<svg xmlns:mydata="http://www.w3.org/2000/svg" mydata:contrastcolor="BABBB1" mydata:template="Contrast" mydata:presentation="2.5" mydata:layouttype="undefined" mydata:specialfontid="undefined" mydata:id1="158" mydata:id2="034" mydata:companyname="Snooze Eatery" mydata:companytagline="" version="1.1" xmlns="http://www.w3.org/2000/svg" xmlns:xlink="http://www.w3.org/1999/xlink" style="height: 463px;" viewBox="0 0 550 470"><g fill="#101820" fill-rule="none" stroke="none" stroke-width="1" stroke-linecap="butt" stroke-linejoin="miter" stroke-miterlimit="10" stroke-dasharray="" stroke-dashoffset="0" font-family="none" font-weight="none" font-size="none" text-anchor="none" style="mix-blend-mode: normal"><g data-paper-data="{&quot;isGlobalGroup&quot;:true,&quot;bounds&quot;:{&quot;x&quot;:146.10968962349884,&quot;y&quot;:115,&quot;width&quot;:257.78062075300227,&quot;height&quot;:240}}"><g data-paper-data="{&quot;isPrimaryText&quot;:true}" fill-rule="nonzero" id="element-id-31409"><path d="M160.20145,349.86855c0,0.6926 -0.13319,1.34968 -0.39958,1.97125c-0.26638,0.62156 -0.626,1.16321 -1.07886,1.62495c-0.45285,0.46173 -0.99006,0.83023 -1.61163,1.1055c-0.62156,0.27526 -1.27865,0.4129 -1.97125,0.4129h-7.35222c-0.46173,0 -0.85687,-0.16427 -1.18541,-0.49281c-0.32854,-0.32854 -0.49281,-0.72368 -0.49281,-1.18541c0,-0.46173 0.16427,-0.85687 0.49281,-1.18541c0.32854,-0.32854 0.72368,-0.49281 1.18541,-0.49281h7.29894c0.47949,0 0.89239,-0.17315 1.23869,-0.51945c0.3463,-0.3463 0.51945,-0.7592 0.51945,-1.23869c0,-0.49725 -0.17315,-0.91903 -0.51945,-1.26533c-0.3463,-0.3463 -0.7592,-0.51945 -1.23869,-0.51945h-3.463c-0.71036,0 -1.37632,-0.13319 -1.99789,-0.39958c-0.62156,-0.26638 -1.16321,-0.63044 -1.62495,-1.09218c-0.46173,-0.46173 -0.82579,-1.00338 -1.09218,-1.62495c-0.26638,-0.62156 -0.39958,-1.28753 -0.39958,-1.99789c0,-0.71036 0.13319,-1.37632 0.39958,-1.99789c0.26638,-0.62156 0.63044,-1.16321 1.09218,-1.62495c0.46173,-0.46173 0.99894,-0.83023 1.61163,-1.1055c0.61269,-0.27526 1.27421,-0.4129 1.98457,-0.4129h3.38309c0.46173,0 0.85687,0.16427 1.18541,0.49281c0.32854,0.32854 0.49281,0.72368 0.49281,1.18541c0,0.46173 -0.16427,0.85687 -0.49281,1.18541c-0.32854,0.32854 -0.72368,0.49281 -1.18541,0.49281h-3.38309c-0.47949,0.01776 -0.88795,0.19535 -1.22537,0.53277c-0.33742,0.33742 -0.50613,0.75476 -0.50613,1.25201c0,0.47949 0.16871,0.89239 0.50613,1.23869c0.33742,0.3463 0.75476,0.51945 1.25201,0.51945h3.463c0.71036,0 1.37632,0.13763 1.99789,0.4129c0.62156,0.27526 1.16321,0.64376 1.62495,1.1055c0.46173,0.46173 0.82579,1.00338 1.09218,1.62495c0.26638,0.62156 0.39958,1.28753 0.39958,1.99789z" data-paper-data="{&quot;glyphName&quot;:&quot;s&quot;,&quot;glyphIndex&quot;:0,&quot;firstGlyphOfWord&quot;:true,&quot;word&quot;:1}" id="element-id-91234"></path><path d="M179.59871,337.82796c0.46173,0 0.85687,0.16427 1.18541,0.49281c0.32854,0.32854 0.49281,0.72368 0.49281,1.18541v6.07357v0.42622v7.32558l-0.02664,0.02664v0.10655v0.07992v0.07992c-0.01776,0.01776 -0.02664,0.0444 -0.02664,0.07992c0,0.01776 -0.00444,0.03108 -0.01332,0.03996c-0.00888,0.00888 -0.01332,0.0222 -0.01332,0.03996c0,0.01776 -0.00888,0.03552 -0.02664,0.05328c0,0.05328 -0.00888,0.08879 -0.02664,0.10655c0,0.01776 -0.00888,0.03552 -0.02664,0.05328c0,0.03552 -0.01776,0.07104 -0.05328,0.10655v0.02664c-0.01776,0.01776 -0.03108,0.03552 -0.03996,0.05328c-0.00888,0.01776 -0.0222,0.03552 -0.03996,0.05328v0.02664c-0.01776,0.01776 -0.03108,0.03552 -0.03996,0.05328c-0.00888,0.01776 -0.03108,0.03552 -0.0666,0.05328v0.02664l-0.10655,0.10655c-0.03552,0.03552 -0.05328,0.05328 -0.05328,0.05328l-0.05328,0.05328c-0.03552,0.01776 -0.07992,0.05328 -0.13319,0.10655c-0.03552,0.01776 -0.05772,0.03108 -0.0666,0.03996c-0.00888,0.00888 -0.03108,0.0222 -0.0666,0.03996h-0.02664c-0.03552,0.03552 -0.07104,0.05328 -0.10655,0.05328c-0.01776,0 -0.02664,0.00888 -0.02664,0.02664c-0.03552,0 -0.05772,0.00444 -0.0666,0.01332c-0.00888,0.00888 -0.03108,0.01332 -0.0666,0.01332c0,0 -0.01776,0.00888 -0.05328,0.02664c-0.01776,0 -0.03108,0.00444 -0.03996,0.01332c-0.00888,0.00888 -0.03108,0.01332 -0.0666,0.01332h-0.05328c-0.01776,0 -0.03108,0.00444 -0.03996,0.01332c-0.00888,0.00888 -0.03108,0.01332 -0.0666,0.01332h-0.05328h-0.10655h-0.02664h-0.02664h-0.10655h-0.07992c-0.01776,0 -0.03108,-0.00444 -0.03996,-0.01332c-0.00888,-0.00888 -0.0222,-0.01332 -0.03996,-0.01332h-0.07992c-0.01776,-0.01776 -0.0444,-0.02664 -0.07992,-0.02664c-0.01776,0 -0.03108,-0.00444 -0.03996,-0.01332c-0.00888,-0.00888 -0.0222,-0.01332 -0.03996,-0.01332c-0.01776,0 -0.03108,-0.00444 -0.03996,-0.01332c-0.00888,-0.00888 -0.0222,-0.01332 -0.03996,-0.01332c-0.01776,0 -0.02664,-0.00444 -0.02664,-0.01332c0,-0.00888 -0.00888,-0.01332 -0.02664,-0.01332c0,0 -0.03552,-0.01776 -0.10655,-0.05328c0,0 -0.00888,-0.00888 -0.02664,-0.02664c-0.03552,0 -0.07104,-0.01776 -0.10655,-0.05328c0,0 -0.00888,-0.00888 -0.02664,-0.02664c-0.07104,-0.03552 -0.10655,-0.05328 -0.10655,-0.05328c0,-0.01776 -0.00444,-0.02664 -0.01332,-0.02664c-0.00888,0 -0.01332,-0.00888 -0.01332,-0.02664c-0.01776,0 -0.0444,-0.01776 -0.07992,-0.05328l-0.05328,-0.05328l-0.02664,-0.02664l-9.40339,-10.57548v1.70486v0.42622v7.32558c0,0.46173 -0.15983,0.85243 -0.47949,1.17209c-0.31966,0.31966 -0.71036,0.47949 -1.17209,0.47949c-0.46173,0 -0.85687,-0.15983 -1.18541,-0.47949c-0.32854,-0.31966 -0.49281,-0.71036 -0.49281,-1.17209v-7.32558v-0.42622v-6.07357v-0.05328v-0.10655l0.02664,-0.02664c0.03552,-0.40846 0.21311,-0.76364 0.53277,-1.06554c0.33742,-0.3019 0.737,-0.44397 1.19873,-0.42622c0.46173,0.01776 0.84355,0.20423 1.14545,0.55941l9.40339,10.54884v-2.93023v-0.42622v-6.07357c0,-0.46173 0.15983,-0.85687 0.47949,-1.18541c0.31966,-0.32854 0.71036,-0.49281 1.17209,-0.49281z" data-paper-data="{&quot;glyphName&quot;:&quot;n&quot;,&quot;glyphIndex&quot;:1,&quot;word&quot;:1}" id="element-id-45981"></path><path d="M192.76256,337.98779c1.36744,-0.23087 2.71269,-0.13319 4.03573,0.29302c1.32304,0.42622 2.47294,1.13658 3.44968,2.13108c0.79915,0.79915 1.41628,1.72706 1.85137,2.78372c0.4351,1.05666 0.64376,2.15328 0.626,3.28985c0,0.90571 -0.14651,1.78922 -0.43954,2.65053c-0.29302,0.86131 -0.70592,1.65603 -1.23869,2.38414c-0.87019,1.17209 -1.97125,2.06448 -3.30317,2.67717c-1.33192,0.61269 -2.71713,0.87463 -4.1556,0.78584c-0.74588,-0.05328 -1.474,-0.20423 -2.18436,-0.45285c-0.71036,-0.24863 -1.37188,-0.57717 -1.98457,-0.98562c-0.61269,-0.40846 -1.16765,-0.88795 -1.66491,-1.43848c-0.49725,-0.55053 -0.91459,-1.16321 -1.25201,-1.83806c-0.31966,-0.65708 -0.55497,-1.3408 -0.70592,-2.05116c-0.15095,-0.71036 -0.20867,-1.42516 -0.17315,-2.1444c0.03552,-0.71924 0.15539,-1.4296 0.35962,-2.13108c0.20423,-0.70148 0.50169,-1.363 0.89239,-1.98457c0.12431,-0.23087 0.27526,-0.46173 0.45285,-0.6926h0.02664c0.65708,-0.88795 1.45624,-1.60719 2.39746,-2.15772c0.94123,-0.55053 1.94461,-0.92347 3.01015,-1.11882zM198.51647,349.4157c0.37294,-0.55053 0.63488,-1.14545 0.78584,-1.78478c0.15095,-0.63932 0.18203,-1.28753 0.09323,-1.94461c-0.10655,-0.65708 -0.3019,-1.23425 -0.58605,-1.7315c-0.35518,-0.63932 -0.81691,-1.18985 -1.3852,-1.65159c-0.56829,-0.46173 -1.20761,-0.7814 -1.91797,-0.95899c-0.6926,-0.19535 -1.40296,-0.23975 -2.13108,-0.13319c-0.72812,0.10655 -1.40296,0.35518 -2.02452,0.74588c-0.79915,0.51501 -1.42072,1.19873 -1.86469,2.05116c-0.44397,0.85243 -0.63932,1.75814 -0.58605,2.71713c0.03552,0.74588 0.22199,1.43848 0.55941,2.0778c0.08879,0.15983 0.17315,0.3241 0.25307,0.49281c0.07992,0.16871 0.17315,0.33298 0.2797,0.49281c-0.15983,-0.26638 -0.31078,-0.54165 -0.45285,-0.82579c0.28414,0.51501 0.6482,0.9723 1.09218,1.37188c0.44397,0.39958 0.94123,0.72368 1.49176,0.9723c0.56829,0.24863 1.16321,0.38626 1.78478,0.4129c0.62156,0.02664 1.22537,-0.05772 1.81142,-0.25307c0.56829,-0.17759 1.09218,-0.44397 1.57167,-0.79915c0.47949,-0.35518 0.88795,-0.77252 1.22537,-1.25201z" data-paper-data="{&quot;glyphName&quot;:&quot;o&quot;,&quot;glyphIndex&quot;:2,&quot;word&quot;:1}" id="element-id-14476"></path><path d="M213.30527,337.98779c1.36744,-0.23087 2.71269,-0.13319 4.03573,0.29302c1.32304,0.42622 2.47294,1.13658 3.44968,2.13108c0.79915,0.79915 1.41628,1.72706 1.85137,2.78372c0.4351,1.05666 0.64376,2.15328 0.626,3.28985c0,0.90571 -0.14651,1.78922 -0.43954,2.65053c-0.29302,0.86131 -0.70592,1.65603 -1.23869,2.38414c-0.87019,1.17209 -1.97125,2.06448 -3.30317,2.67717c-1.33192,0.61269 -2.71713,0.87463 -4.1556,0.78584c-0.74588,-0.05328 -1.474,-0.20423 -2.18436,-0.45285c-0.71036,-0.24863 -1.37188,-0.57717 -1.98457,-0.98562c-0.61269,-0.40846 -1.16765,-0.88795 -1.66491,-1.43848c-0.49725,-0.55053 -0.91459,-1.16321 -1.25201,-1.83806c-0.31966,-0.65708 -0.55497,-1.3408 -0.70592,-2.05116c-0.15095,-0.71036 -0.20867,-1.42516 -0.17315,-2.1444c0.03552,-0.71924 0.15539,-1.4296 0.35962,-2.13108c0.20423,-0.70148 0.50169,-1.363 0.89239,-1.98457c0.12431,-0.23087 0.27526,-0.46173 0.45285,-0.6926h0.02664c0.65708,-0.88795 1.45624,-1.60719 2.39746,-2.15772c0.94123,-0.55053 1.94461,-0.92347 3.01015,-1.11882zM219.05918,349.4157c0.37294,-0.55053 0.63488,-1.14545 0.78584,-1.78478c0.15095,-0.63932 0.18203,-1.28753 0.09323,-1.94461c-0.10655,-0.65708 -0.3019,-1.23425 -0.58605,-1.7315c-0.35518,-0.63932 -0.81691,-1.18985 -1.3852,-1.65159c-0.56829,-0.46173 -1.20761,-0.7814 -1.91797,-0.95899c-0.6926,-0.19535 -1.40296,-0.23975 -2.13108,-0.13319c-0.72812,0.10655 -1.40296,0.35518 -2.02452,0.74588c-0.79915,0.51501 -1.42072,1.19873 -1.86469,2.05116c-0.44397,0.85243 -0.63932,1.75814 -0.58605,2.71713c0.03552,0.74588 0.22199,1.43848 0.55941,2.0778c0.08879,0.15983 0.17315,0.3241 0.25307,0.49281c0.07992,0.16871 0.17315,0.33298 0.2797,0.49281c-0.15983,-0.26638 -0.31078,-0.54165 -0.45285,-0.82579c0.28414,0.51501 0.6482,0.9723 1.09218,1.37188c0.44397,0.39958 0.94123,0.72368 1.49176,0.9723c0.56829,0.24863 1.16321,0.38626 1.78478,0.4129c0.62156,0.02664 1.22537,-0.05772 1.81142,-0.25307c0.56829,-0.17759 1.09218,-0.44397 1.57167,-0.79915c0.47949,-0.35518 0.88795,-0.77252 1.22537,-1.25201z" data-paper-data="{&quot;glyphName&quot;:&quot;o&quot;,&quot;glyphIndex&quot;:3,&quot;word&quot;:1}" id="element-id-69088"></path><path d="M244.15707,351.70661c0.46173,0 0.85243,0.15539 1.17209,0.46617c0.31966,0.31078 0.47949,0.69704 0.47949,1.15877c0,0.46173 -0.15983,0.85243 -0.47949,1.17209c-0.31966,0.31966 -0.71036,0.47949 -1.17209,0.47949h-14.01184c-0.46173,0 -0.85243,-0.15983 -1.17209,-0.47949c-0.31966,-0.31966 -0.47949,-0.71036 -0.47949,-1.17209c0,-0.33742 0.09767,-0.65708 0.29302,-0.95899l0.15983,-0.15983l11.08161,-11.10825h-9.19028c-0.46173,0 -0.84799,-0.15539 -1.15877,-0.46617c-0.31078,-0.31078 -0.46617,-0.69704 -0.46617,-1.15877c0,-0.46173 0.15539,-0.85243 0.46617,-1.17209c0.31078,-0.31966 0.69704,-0.47949 1.15877,-0.47949h13.21269c0.46173,0 0.84799,0.15983 1.15877,0.47949c0.31078,0.31966 0.46617,0.71036 0.46617,1.17209c0,0.33742 -0.09767,0.65708 -0.29302,0.95899c-0.03552,0.03552 -0.07548,0.07992 -0.11987,0.13319c-0.0444,0.05328 -0.09323,0.10655 -0.14651,0.15983l-4.87484,4.87484v-0.02664l-6.12685,6.12685z" data-paper-data="{&quot;glyphName&quot;:&quot;z&quot;,&quot;glyphIndex&quot;:4,&quot;word&quot;:1}" id="element-id-62879"></path><path d="M266.43129,346.43219c-0.01776,0.46173 -0.19091,0.85243 -0.51945,1.17209c-0.32854,0.31966 -0.72368,0.48837 -1.18541,0.50613h-11.85413c0.07104,0.21311 0.16871,0.4351 0.29302,0.66596c0.08879,0.17759 0.17759,0.3463 0.26638,0.50613c0.08879,0.15983 0.17759,0.31966 0.26638,0.47949c-0.08879,-0.14207 -0.16871,-0.2797 -0.23975,-0.4129c-0.07104,-0.13319 -0.14207,-0.27082 -0.21311,-0.4129c0.28414,0.51501 0.6482,0.97674 1.09218,1.3852c0.44397,0.40846 0.94123,0.72812 1.49176,0.95899c0.58605,0.24863 1.23425,0.3907 1.94461,0.42622h0.10655c0.46173,0 0.84799,0.15539 1.15877,0.46617c0.31078,0.31078 0.46617,0.69704 0.46617,1.15877c0,0.46173 -0.15539,0.85243 -0.46617,1.17209c-0.31078,0.31966 -0.69704,0.47949 -1.15877,0.47949c-0.10655,0 -0.20867,0 -0.30634,0c-0.09767,0 -0.19091,-0.00888 -0.2797,-0.02664c-0.74588,-0.05328 -1.474,-0.20423 -2.18436,-0.45285c-0.71036,-0.24863 -1.37188,-0.57273 -1.98457,-0.9723c-0.61269,-0.39958 -1.16765,-0.87463 -1.66491,-1.42516c-0.49725,-0.55053 -0.91459,-1.16321 -1.25201,-1.83806c-0.65708,-1.33192 -0.95455,-2.73932 -0.89239,-4.2222c0.06216,-1.48288 0.48393,-2.85476 1.26533,-4.11565c0.07104,-0.10655 0.14651,-0.21755 0.22643,-0.33298c0.07992,-0.11543 0.16427,-0.22643 0.25307,-0.33298c0.65708,-0.88795 1.45624,-1.61163 2.39746,-2.17104c0.94123,-0.55941 1.94461,-0.93679 3.01015,-1.13214c1.36744,-0.21311 2.71713,-0.10655 4.04905,0.31966c1.33192,0.42622 2.47738,1.13658 3.43636,2.13108c0.7814,0.79915 1.38964,1.70486 1.82474,2.71713c0.4351,1.01226 0.65264,2.0778 0.65264,3.19662v0.05328zM255.05665,341.95692c-0.51501,0.33742 -0.95899,0.75032 -1.33192,1.23869c-0.37294,0.48837 -0.65708,1.0167 -0.85243,1.58499h10.01607c-0.08879,-0.26638 -0.21311,-0.55053 -0.37294,-0.85243c-0.33742,-0.63932 -0.79471,-1.18541 -1.37188,-1.63827c-0.57717,-0.45285 -1.22093,-0.77696 -1.93129,-0.9723c-0.6926,-0.19535 -1.40296,-0.23531 -2.13108,-0.11987c-0.72812,0.11543 -1.40296,0.3685 -2.02452,0.7592z" data-paper-data="{&quot;glyphName&quot;:&quot;e&quot;,&quot;glyphIndex&quot;:5,&quot;lastGlyphOfWord&quot;:true,&quot;word&quot;:1}" id="element-id-2368"></path><path d="M306.69092,346.43219c-0.01776,0.46173 -0.19091,0.85243 -0.51945,1.17209c-0.32854,0.31966 -0.72368,0.48837 -1.18541,0.50613h-11.85413c0.07104,0.21311 0.16871,0.4351 0.29302,0.66596c0.08879,0.17759 0.17759,0.3463 0.26638,0.50613c0.08879,0.15983 0.17759,0.31966 0.26638,0.47949c-0.08879,-0.14207 -0.16871,-0.2797 -0.23975,-0.4129c-0.07104,-0.13319 -0.14207,-0.27082 -0.21311,-0.4129c0.28414,0.51501 0.6482,0.97674 1.09218,1.3852c0.44397,0.40846 0.94123,0.72812 1.49176,0.95899c0.58605,0.24863 1.23425,0.3907 1.94461,0.42622h0.10655c0.46173,0 0.84799,0.15539 1.15877,0.46617c0.31078,0.31078 0.46617,0.69704 0.46617,1.15877c0,0.46173 -0.15539,0.85243 -0.46617,1.17209c-0.31078,0.31966 -0.69704,0.47949 -1.15877,0.47949c-0.10655,0 -0.20867,0 -0.30634,0c-0.09767,0 -0.19091,-0.00888 -0.2797,-0.02664c-0.74588,-0.05328 -1.474,-0.20423 -2.18436,-0.45285c-0.71036,-0.24863 -1.37188,-0.57273 -1.98457,-0.9723c-0.61269,-0.39958 -1.16765,-0.87463 -1.66491,-1.42516c-0.49725,-0.55053 -0.91459,-1.16321 -1.25201,-1.83806c-0.65708,-1.33192 -0.95455,-2.73932 -0.89239,-4.2222c0.06216,-1.48288 0.48393,-2.85476 1.26533,-4.11565c0.07104,-0.10655 0.14651,-0.21755 0.22643,-0.33298c0.07992,-0.11543 0.16427,-0.22643 0.25307,-0.33298c0.65708,-0.88795 1.45624,-1.61163 2.39746,-2.17104c0.94123,-0.55941 1.94461,-0.93679 3.01015,-1.13214c1.36744,-0.21311 2.71713,-0.10655 4.04905,0.31966c1.33192,0.42622 2.47738,1.13658 3.43636,2.13108c0.7814,0.79915 1.38964,1.70486 1.82474,2.71713c0.4351,1.01226 0.65264,2.0778 0.65264,3.19662v0.05328zM295.31628,341.95692c-0.51501,0.33742 -0.95899,0.75032 -1.33192,1.23869c-0.37294,0.48837 -0.65708,1.0167 -0.85243,1.58499h10.01607c-0.08879,-0.26638 -0.21311,-0.55053 -0.37294,-0.85243c-0.33742,-0.63932 -0.79471,-1.18541 -1.37188,-1.63827c-0.57717,-0.45285 -1.22093,-0.77696 -1.93129,-0.9723c-0.6926,-0.19535 -1.40296,-0.23531 -2.13108,-0.11987c-0.72812,0.11543 -1.40296,0.3685 -2.02452,0.7592z" data-paper-data="{&quot;glyphName&quot;:&quot;e&quot;,&quot;glyphIndex&quot;:6,&quot;firstGlyphOfWord&quot;:true,&quot;word&quot;:2}" id="element-id-66433"></path><path d="M318.86915,337.82796c1.18985,0 2.30423,0.22643 3.34313,0.67928c1.0389,0.45285 1.94461,1.06554 2.71713,1.83806c0.77252,0.77252 1.3852,1.68266 1.83806,2.73044c0.45285,1.04778 0.67928,2.15772 0.67928,3.32981v6.92601c0,0.46173 -0.15983,0.85243 -0.47949,1.17209c-0.31966,0.31966 -0.71036,0.47949 -1.17209,0.47949c-0.46173,0 -0.85687,-0.15983 -1.18541,-0.47949c-0.32854,-0.31966 -0.49281,-0.71036 -0.49281,-1.17209v-3.19662h-5.24778v-0.02664c-0.05328,0.01776 -0.15095,0.02664 -0.29302,0.02664c-0.58605,0 -1.14545,0.08879 -1.67822,0.26638c-0.53277,0.17759 -1.0167,0.42622 -1.4518,0.74588c-0.4351,0.31966 -0.81247,0.70148 -1.13214,1.14545c-0.31966,0.44397 -0.55941,0.93235 -0.71924,1.46512c-0.01776,0.01776 -0.02664,0.03552 -0.02664,0.05328c0,0.01776 -0.00888,0.03552 -0.02664,0.05328c-0.10655,0.33742 -0.3019,0.60825 -0.58605,0.81247c-0.28414,0.20423 -0.61269,0.30634 -0.98562,0.30634c-0.46173,0 -0.85243,-0.15983 -1.17209,-0.47949c-0.31966,-0.31966 -0.47949,-0.71036 -0.47949,-1.17209v-0.23975v-6.68626c0,-1.04778 0.17759,-2.0334 0.53277,-2.95687c0.42622,-1.13658 1.06554,-2.14884 1.91797,-3.03679c0.79915,-0.79915 1.71818,-1.4296 2.75708,-1.89133c1.0389,-0.46173 2.15328,-0.6926 3.34313,-0.6926zM324.11693,346.80513v-0.39958c0,-0.92347 -0.22199,-1.7759 -0.66596,-2.55729c0,-0.01776 -0.00444,-0.03108 -0.01332,-0.03996c-0.00888,-0.00888 -0.01332,-0.0222 -0.01332,-0.03996c-0.07104,-0.10655 -0.14207,-0.21311 -0.21311,-0.31966c-0.07104,-0.10655 -0.14207,-0.20423 -0.21311,-0.29302c-0.47949,-0.62156 -1.07442,-1.10994 -1.78478,-1.46512c-0.71036,-0.35518 -1.49176,-0.53277 -2.34419,-0.53277c-0.85243,0 -1.63827,0.19091 -2.35751,0.57273c-0.71924,0.38182 -1.31861,0.88351 -1.7981,1.50507c-0.33742,0.44397 -0.59937,0.93235 -0.78584,1.46512c-0.18647,0.53277 -0.2797,1.10106 -0.2797,1.70486v1.97125c0.6926,-0.49725 1.45624,-0.88351 2.29091,-1.15877c0.83467,-0.27526 1.71374,-0.4129 2.63721,-0.4129h0.29302z" data-paper-data="{&quot;glyphName&quot;:&quot;a&quot;,&quot;glyphIndex&quot;:7,&quot;word&quot;:2}" id="element-id-55483"></path><path d="M345.91165,337.82796c0.46173,0 0.85243,0.16427 1.17209,0.49281c0.31966,0.32854 0.47949,0.72368 0.47949,1.18541c0,0.46173 -0.15983,0.85243 -0.47949,1.17209c-0.31966,0.31966 -0.71036,0.47949 -1.17209,0.47949h-2.05116h-2.21099v12.17379c0,0.46173 -0.16427,0.85243 -0.49281,1.17209c-0.32854,0.31966 -0.72368,0.47949 -1.18541,0.47949c-0.46173,0 -0.85243,-0.15983 -1.17209,-0.47949c-0.31966,-0.31966 -0.47949,-0.71036 -0.47949,-1.17209v-12.17379h-2.02452h-2.23763c-0.46173,0 -0.85243,-0.15983 -1.17209,-0.47949c-0.31966,-0.31966 -0.47949,-0.71036 -0.47949,-1.17209c0,-0.46173 0.15983,-0.85687 0.47949,-1.18541c0.31966,-0.32854 0.71036,-0.49281 1.17209,-0.49281h2.23763h7.56533z" data-paper-data="{&quot;glyphName&quot;:&quot;t&quot;,&quot;glyphIndex&quot;:8,&quot;word&quot;:2}" id="element-id-2827"></path><path d="M368.58544,346.43219c-0.01776,0.46173 -0.19091,0.85243 -0.51945,1.17209c-0.32854,0.31966 -0.72368,0.48837 -1.18541,0.50613h-11.85413c0.07104,0.21311 0.16871,0.4351 0.29302,0.66596c0.08879,0.17759 0.17759,0.3463 0.26638,0.50613c0.08879,0.15983 0.17759,0.31966 0.26638,0.47949c-0.08879,-0.14207 -0.16871,-0.2797 -0.23975,-0.4129c-0.07104,-0.13319 -0.14207,-0.27082 -0.21311,-0.4129c0.28414,0.51501 0.6482,0.97674 1.09218,1.3852c0.44397,0.40846 0.94123,0.72812 1.49176,0.95899c0.58605,0.24863 1.23425,0.3907 1.94461,0.42622h0.10655c0.46173,0 0.84799,0.15539 1.15877,0.46617c0.31078,0.31078 0.46617,0.69704 0.46617,1.15877c0,0.46173 -0.15539,0.85243 -0.46617,1.17209c-0.31078,0.31966 -0.69704,0.47949 -1.15877,0.47949c-0.10655,0 -0.20867,0 -0.30634,0c-0.09767,0 -0.19091,-0.00888 -0.2797,-0.02664c-0.74588,-0.05328 -1.474,-0.20423 -2.18436,-0.45285c-0.71036,-0.24863 -1.37188,-0.57273 -1.98457,-0.9723c-0.61269,-0.39958 -1.16765,-0.87463 -1.66491,-1.42516c-0.49725,-0.55053 -0.91459,-1.16321 -1.25201,-1.83806c-0.65708,-1.33192 -0.95455,-2.73932 -0.89239,-4.2222c0.06216,-1.48288 0.48393,-2.85476 1.26533,-4.11565c0.07104,-0.10655 0.14651,-0.21755 0.22643,-0.33298c0.07992,-0.11543 0.16427,-0.22643 0.25307,-0.33298c0.65708,-0.88795 1.45624,-1.61163 2.39746,-2.17104c0.94123,-0.55941 1.94461,-0.93679 3.01015,-1.13214c1.36744,-0.21311 2.71713,-0.10655 4.04905,0.31966c1.33192,0.42622 2.47738,1.13658 3.43636,2.13108c0.7814,0.79915 1.38964,1.70486 1.82474,2.71713c0.4351,1.01226 0.65264,2.0778 0.65264,3.19662v0.05328zM357.2108,341.95692c-0.51501,0.33742 -0.95899,0.75032 -1.33192,1.23869c-0.37294,0.48837 -0.65708,1.0167 -0.85243,1.58499h10.01607c-0.08879,-0.26638 -0.21311,-0.55053 -0.37294,-0.85243c-0.33742,-0.63932 -0.79471,-1.18541 -1.37188,-1.63827c-0.57717,-0.45285 -1.22093,-0.77696 -1.93129,-0.9723c-0.6926,-0.19535 -1.40296,-0.23531 -2.13108,-0.11987c-0.72812,0.11543 -1.40296,0.3685 -2.02452,0.7592z" data-paper-data="{&quot;glyphName&quot;:&quot;e&quot;,&quot;glyphIndex&quot;:9,&quot;word&quot;:2}" id="element-id-61360"></path><path d="M380.73703,337.82796c0.44397,0.03552 0.82135,0.20867 1.13214,0.51945c0.31078,0.31078 0.46617,0.68816 0.46617,1.13214c0,0.46173 -0.16427,0.85687 -0.49281,1.18541c-0.32854,0.32854 -0.72368,0.49281 -1.18541,0.49281h-0.13319c-0.6926,0.03552 -1.34524,0.19535 -1.95793,0.47949c-0.61269,0.28414 -1.14545,0.66152 -1.59831,1.13214c-0.45285,0.47061 -0.80803,1.0167 -1.06554,1.63827c-0.25751,0.62156 -0.38626,1.28753 -0.38626,1.99789v6.92601c0,0.46173 -0.16427,0.85243 -0.49281,1.17209c-0.32854,0.31966 -0.72368,0.47949 -1.18541,0.47949c-0.46173,0 -0.85243,-0.15983 -1.17209,-0.47949c-0.31966,-0.31966 -0.47949,-0.71036 -0.47949,-1.17209v-6.92601c0,-1.17209 0.21755,-2.26871 0.65264,-3.28985c0.4351,-1.02114 1.02558,-1.91797 1.77146,-2.69049c0.74588,-0.77252 1.62495,-1.38964 2.63721,-1.85137c1.01226,-0.46173 2.09556,-0.71036 3.2499,-0.74588h0.15983h0.02664z" data-paper-data="{&quot;glyphName&quot;:&quot;r&quot;,&quot;glyphIndex&quot;:10,&quot;word&quot;:2}" id="element-id-76082"></path><path d="M402.23872,337.85459c0.46173,0 0.85243,0.15983 1.17209,0.47949c0.31966,0.31966 0.47949,0.71036 0.47949,1.17209v1.70486c-0.01776,0.56829 -0.07992,1.11882 -0.18647,1.65159c-0.10655,0.53277 -0.27526,1.05666 -0.50613,1.57167c-0.42622,0.9945 -1.03002,1.90021 -1.81142,2.71713c-0.40846,0.3907 -0.83467,0.74144 -1.27865,1.05222c-0.44397,0.31078 -0.92347,0.57273 -1.43848,0.78584c-0.28414,0.10655 -0.56385,0.20423 -0.83911,0.29302c-0.27526,0.08879 -0.56385,0.15983 -0.86575,0.21311v3.86258c0,0.46173 -0.15983,0.84799 -0.47949,1.15877c-0.31966,0.31078 -0.71036,0.46617 -1.17209,0.46617c-0.44397,0 -0.82579,-0.15539 -1.14545,-0.46617c-0.31966,-0.31078 -0.47949,-0.69704 -0.47949,-1.15877v-3.86258c-0.3019,-0.05328 -0.59049,-0.12431 -0.86575,-0.21311c-0.27526,-0.08879 -0.55497,-0.18647 -0.83911,-0.29302c-0.51501,-0.21311 -0.9945,-0.47505 -1.43848,-0.78584c-0.44397,-0.31078 -0.87019,-0.66152 -1.27865,-1.05222c-0.7814,-0.79915 -1.39408,-1.70486 -1.83806,-2.71713c-0.40846,-1.01226 -0.63044,-2.08668 -0.66596,-3.22326v-1.70486c0,-0.46173 0.15983,-0.85243 0.47949,-1.17209c0.31966,-0.31966 0.71036,-0.47949 1.17209,-0.47949c0.46173,0 0.84799,0.15983 1.15877,0.47949c0.31078,0.31966 0.46617,0.71036 0.46617,1.17209v1.59831c0,0.72812 0.13763,1.41184 0.4129,2.05116c0.27526,0.63932 0.65264,1.19873 1.13214,1.67822c0.47949,0.47949 1.0389,0.85687 1.67822,1.13214c0.63932,0.27526 1.32304,0.4129 2.05116,0.4129c0.72812,0 1.41628,-0.13763 2.06448,-0.4129c0.6482,-0.27526 1.21205,-0.65264 1.69154,-1.13214c0.47949,-0.47949 0.85687,-1.0389 1.13214,-1.67822c0.27526,-0.63932 0.4129,-1.32304 0.4129,-2.05116v-1.59831c0,-0.46173 0.15539,-0.85243 0.46617,-1.17209c0.31078,-0.31966 0.69704,-0.47949 1.15877,-0.47949z" data-paper-data="{&quot;glyphName&quot;:&quot;y&quot;,&quot;glyphIndex&quot;:11,&quot;lastGlyphOfWord&quot;:true,&quot;word&quot;:2}" id="element-id-73804"></path></g><g data-paper-data="{&quot;fillRule&quot;:&quot;evenodd&quot;,&quot;fillRuleOriginal&quot;:&quot;evenodd&quot;,&quot;isIcon&quot;:true,&quot;iconStyle&quot;:&quot;standalone&quot;,&quot;selectedEffects&quot;:{&quot;container&quot;:&quot;&quot;,&quot;transformation&quot;:&quot;rotate0;translate50&quot;,&quot;pattern&quot;:&quot;&quot;},&quot;bounds&quot;:{&quot;x&quot;:172.07966229379318,&quot;y&quot;:115,&quot;width&quot;:205.84067541241367,&quot;height&quot;:206.08228980322002},&quot;iconType&quot;:&quot;icon&quot;,&quot;rawIconId&quot;:&quot;17562&quot;,&quot;isDetailed&quot;:false,&quot;suitableAsStandaloneIcon&quot;:true}" fill-rule="evenodd" id="element-id-19861"><path d="M198.12022,195.04031l-0.07007,0.0103c0,0 14.72046,5.86098 15.25627,17.05743c0.39568,8.34015 -3.14275,31.41931 -3.77543,32.86188c-1.00568,-12.53599 -4.03921,-27.6006 -7.16548,-27.43574c-2.44826,0.12777 -1.80322,28.59392 -1.80322,28.59392c-2.9614,-10.43395 -7.98569,-27.43574 -10.04651,-26.92053c-3.09123,0 -2.48329,15.92398 -0.2102,28.29304c-0.98301,-1.22825 -10.3783,-22.60723 -12.15267,-30.76396c-2.38231,-10.95327 9.01404,-19.56133 9.01404,-19.56133c-1.28183,-7.48491 -1.91038,-9.89401 -2.96346,-16.22898c-5.81152,-34.93095 -8.88009,-65.3693 -4.92331,-65.91748c0.01855,-0.00413 0.03503,-0.00618 0.0474,-0.00824c0.0103,-0.00206 0.02061,-0.00206 0.03091,-0.00618c0.00824,0 0.02061,-0.00207 0.03091,-0.00207c0.0103,-0.00618 0.02679,-0.00618 0.0474,-0.00618c0.02658,-0.00329 0.05325,-0.00535 0.08,-0.00618h0.05463c3.95804,0.12258 9.56356,26.80574 15.71103,61.95452c1.1046,6.3226 1.73727,10.68949 2.83775,18.08578zM172.07966,252.71861v9.12738c2.26278,15.29749 51.76993,59.23629 63.09828,59.23629h79.64462c11.32628,0 60.83549,-43.93881 63.09621,-59.23835v-9.12532zM269.12175,179.64596c1.91038,-4.58327 10.45249,-3.81664 14.03626,-3.27465c3.37769,0.28027 6.28551,3.21694 7.06862,7.28707c0.73571,3.83107 -0.68213,7.25616 -3.61881,8.72552c-4.87591,2.43589 -15.12644,1.0572 -16.2805,0.89028c-1.19322,-0.17105 -2.10822,-1.14788 -2.20096,-2.34934c-0.05976,-0.76457 -0.53994,-7.59413 0.99538,-11.27888zM329.1123,188.33439c-0.4575,8.32779 -9.08205,15.08316 -9.44887,15.36756c-1.12727,0.86761 -2.74708,0.65946 -3.61468,-0.46575c-0.86761,-1.12521 -0.66152,-2.74296 0.46369,-3.61262l0.00247,-0.00144l0.00021,-0.00021l0.4507,-0.27862c-0.16095,0.07749 -0.3118,0.16899 -0.4507,0.27862c0.21762,-0.17249 7.12921,-5.67262 7.45338,-11.57193c0.07831,-1.41991 1.29008,-2.50802 2.71204,-2.42971c1.42197,0.07831 2.51008,1.2942 2.43177,2.7141zM299.68169,195.23197c-4.08867,0.17105 -9.80127,1.03041 -12.20419,6.51632c-0.00206,0.00206 -0.36889,0.82433 -0.36889,0.82433c-0.88203,1.95778 -1.79292,3.98357 -0.91913,6.1227c0.86142,2.1144 3.10978,3.22107 4.9707,3.9506c6.15156,2.40704 13.51488,1.06132 16.75861,-3.06857c1.78673,-2.27309 1.88565,-5.8074 0.24936,-9.00374c-1.75994,-3.44157 -5.01192,-5.48591 -8.48647,-5.34165zM266.62816,197.86982c-4.32773,-0.48017 -7.65802,2.44826 -10.69773,5.49003l-0.00309,0.00309c-1.47967,1.47967 -3.71669,3.71669 -3.5848,6.6307c0.08862,1.9413 1.17055,3.75276 3.30762,5.53331l0.89234,0.7522c3.92587,3.32617 6.65234,5.18091 12.91106,1.52913c5.6178,-3.27671 5.9599,-5.82595 5.83007,-9.06968c-0.01443,-0.34622 -0.02885,-0.70686 -0.02885,-1.07163c0,-4.55648 -5.37875,-9.43445 -8.6266,-9.79715zM361.02002,201.89461c2.2937,2.52863 3.05208,3.81664 3.28495,9.40972c0.1896,4.56472 -0.37919,5.78473 -3.57965,7.67038c-0.847,0.49872 -1.90008,1.11697 -3.32617,2.18859c-6.13713,4.60182 -10.52668,4.24942 -14.67718,-1.17673c-3.21777,-4.20635 -1.4028,-7.76436 0.05585,-10.62416l0.00185,-0.0035c0.41216,-0.80578 0.83875,-1.64042 1.17261,-2.49772c1.2571,-3.23343 4.94391,-7.1016 9.30049,-7.89913c2.83981,-0.51933 5.48591,0.39774 7.454,2.58427zM303.86929,206.39132c-1.61775,2.06082 -6.46686,3.16336 -10.83375,1.45494c-1.39064,-0.54447 -1.88771,-0.93232 -2.04248,-1.08214c0.06141,-0.40227 0.46162,-1.29749 0.77425,-1.99694l0.03586,-0.08017l0.3895,-0.87379c0.68625,-1.56623 2.13913,-3.20252 7.69717,-3.43333c2.16799,-0.09068 3.36945,1.92069 3.68681,2.53893c0.75014,1.45494 0.73571,2.90782 0.29264,3.47249zM270.1027,207.66697c0,0.46781 0.01649,0.89852 0.03297,1.27771c0.07831,1.92687 0.09892,2.44414 -3.27671,4.41428c-3.43127,2.00106 -3.76718,1.71667 -6.98413,-1.0098l-0.92325,-0.77899c-1.0572,-0.87997 -1.4467,-1.52501 -1.45906,-1.80734c-0.02885,-0.64504 1.50646,-2.18035 2.08349,-2.75738c2.61518,-2.61725 4.61171,-4.20346 6.46109,-4.01531c1.13222,0.26626 4.06559,3.00674 4.06559,4.67683zM266.06349,202.99303c-0.00783,-0.00062 -0.01463,-0.00144 -0.0202,-0.00227c0.00673,0.00082 0.01347,0.00158 0.0202,0.00227zM248.6516,219.90001c0.91913,3.15718 0.6945,7.32004 -1.39106,10.80696c6.62967,3.19221 8.34633,7.60031 7.57558,10.95533c-0.86967,3.75276 -5.17267,7.09541 -12.83068,6.10622c-1.41166,-0.17929 -2.40704,-1.47349 -2.22569,-2.88309c0.18135,-1.4096 1.47349,-2.40704 2.88515,-2.22363c4.19377,0.542 6.81308,-0.70892 7.14899,-2.15974c0.32149,-1.38693 -1.43227,-4.20202 -7.57558,-6.27933c-0.87585,-0.2947 -1.52501,-1.03659 -1.70224,-1.9413c-0.17929,-0.90676 0.14014,-1.83825 0.83463,-2.44414c2.65022,-2.304 3.08299,-5.92899 2.33491,-8.49677c-0.44926,-1.54974 -1.31274,-2.63785 -2.19684,-2.76975c-1.0469,-0.15868 -2.97171,0.89852 -5.23861,4.33597c-0.53581,0.81609 -1.48997,1.2571 -2.45856,1.1417c-0.96859,-0.11541 -1.78879,-0.77281 -2.11853,-1.68987c-1.35602,-3.79191 -3.08711,-5.04077 -3.89908,-5.18091c-0.23493,-0.03916 -0.49666,-0.02267 -0.81815,0.37095c-0.81403,0.99538 -1.60744,4.17523 0.57703,9.7786c0.51727,1.32511 -0.13808,2.81921 -1.46318,3.33647c-1.32717,0.51521 -2.82127,-0.14014 -3.33647,-1.46525c-2.41735,-6.20102 -2.33079,-11.77554 0.23287,-14.91005c1.44258,-1.76613 3.51576,-2.56366 5.68581,-2.18859c2.26897,0.39156 4.33597,2.02991 5.97226,4.60388c3.00262,-3.06444 5.71466,-3.51782 7.63123,-3.22931c2.9511,0.44514 5.33547,2.84806 6.37619,6.42565zM330.2643,228.79452c10.16398,-2.28545 12.98318,1.99282 13.63234,3.51164c1.89596,4.42459 -1.80528,10.01766 -9.21188,13.91055c-1.2571,0.66358 -2.81508,0.17929 -3.47867,-1.07987c-0.66358,-1.2571 -0.17929,-2.81508 1.07987,-3.47867c5.70436,-3.00056 7.31386,-6.30406 6.87491,-7.32623c-0.39156,-0.91294 -3.81046,-2.05258 -11.41078,0.51314c-0.9521,0.32149 -2.00724,0.0577 -2.69762,-0.67389c-0.69038,-0.72953 -0.89234,-1.7991 -0.51521,-2.73059c1.11903,-2.77181 0.69656,-5.58895 -1.13139,-7.53437c-1.33953,-1.42197 -3.16336,-2.01961 -4.65334,-1.52295c-2.17623,0.72335 -3.70536,3.65796 -4.19171,8.04545c-0.09686,0.87997 -0.63886,1.64866 -1.43845,2.03403c-0.79754,0.38743 -1.73727,0.33797 -2.48741,-0.13395c-3.42921,-2.14532 -6.12889,-2.10204 -7.51376,-1.34778c-0.55024,0.29882 -1.20558,0.88203 -1.22001,1.96396c-0.02061,1.63423 1.47555,4.26178 5.73733,6.73271c1.23237,0.71304 1.65072,2.28751 0.93561,3.51989c-0.71304,1.23237 -2.28751,1.65072 -3.51989,0.93561c-5.33135,-3.08917 -8.35664,-7.19227 -8.30512,-11.25621c0.03709,-2.7038 1.49616,-5.10466 3.90526,-6.41946c2.61725,-1.42609 5.98669,-1.43845 9.43239,-0.13189c1.57035,-6.06294 4.95422,-8.13407 7.03771,-8.82857c3.43951,-1.14788 7.28501,-0.04328 10.03621,2.88309c2.14944,2.28545 3.1984,5.28807 3.1036,8.41434zM268.06455,224.96963c3.02117,-6.3494 15.39641,-1.55798 20.57732,0.79754c1.26947,0.57703 1.79704,2.17417 1.25298,3.45806c-0.07007,0.16899 -0.22257,0.73571 -0.34622,1.19322c-0.71717,2.66258 -2.05258,7.62092 -6.05676,10.06712c-4.88003,2.98201 -12.45149,0.83875 -18.50413,-1.36014c-1.81765,-0.65946 -2.92225,-1.73109 -3.28907,-3.18191c-0.63205,-2.50143 1.25751,-4.62016 3.25837,-6.86398l0.00598,-0.0068c1.152,-1.2942 2.45856,-2.75944 3.10154,-4.1031zM356.97874,245.20897c-3.99387,-2.09998 7.09335,-13.58494 16.31347,-17.80757c6.86666,-3.14894 5.58483,6.83369 -0.51521,11.66838c-6.10004,4.83263 -11.80645,8.23917 -15.79827,6.13919zM267.17221,234.43705c2.98201,1.07781 10.40509,3.62499 13.6344,1.65278c2.08555,-1.27359 3.04796,-4.38543 3.63323,-6.51426c-5.60956,-2.24424 -10.78016,-3.14688 -11.74463,-2.35552c-0.96034,1.99282 -2.5142,3.74039 -3.88877,5.28189c-0.51521,0.57497 -1.18497,1.33541 -1.63423,1.93511zM232.61427,230.73375c3.53431,0.43071 6.13507,3.98357 6.41946,4.38749c0.82021,1.16024 0.542,2.76769 -0.61825,3.59201c-1.1623,0.81815 -2.76975,0.542 -3.58995,-0.62031l0.00618,0.00824c-0.63061,-0.87791 -1.97015,-2.14944 -2.84394,-2.25248c-0.11747,-0.01443 -0.2947,-0.03503 -0.63061,0.25554c-1.07575,0.92943 -2.70174,0.81196 -3.63323,-0.26172c-0.93149,-1.07781 -0.81403,-2.7038 0.26172,-3.63529c1.34984,-1.17055 2.9511,-1.67957 4.62861,-1.47349zM323.81392,238.11768c-3.15512,-0.82021 -9.71266,-0.92943 -11.93423,4.53175c-0.53581,1.31893 0.09892,2.81921 1.41785,3.35708c1.31893,0.53581 2.81921,-0.09892 3.35708,-1.41785c1.07575,-2.64816 5.81564,-1.49822 5.8651,-1.48585c1.37663,0.35858 2.78417,-0.46987 3.14069,-1.8465c0.35652,-1.37663 -0.46987,-2.78005 -1.8465,-3.13863z" data-paper-data="{&quot;isPathIcon&quot;:true}" id="element-id-71212"></path></g></g></g><rect data-element-id="element-id-19861" stroke-width="2" fill="transparent" class="invisible-element-box grouping-element" x="172" y="115" width="206" height="206" data-element-name="isIcon"></rect><rect data-element-id="element-id-71212" stroke-width="2" fill="transparent" class="invisible-element-box individual-element" x="172" y="115" width="206" height="206"></rect><rect data-element-id="element-id-31409" stroke-width="2" fill="transparent" class="invisible-element-box grouping-element" x="146" y="338" width="258" height="17" data-element-name="isPrimaryText"></rect><rect data-element-id="element-id-14476" stroke-width="2" fill="transparent" class="invisible-element-box individual-element" x="186" y="338" width="17" height="17"></rect><rect data-element-id="element-id-69088" stroke-width="2" fill="transparent" class="invisible-element-box individual-element" x="206" y="338" width="17" height="17"></rect><rect data-element-id="element-id-62879" stroke-width="2" fill="transparent" class="invisible-element-box individual-element" x="228" y="338" width="17" height="17"></rect><rect data-element-id="element-id-2368" stroke-width="2" fill="transparent" class="invisible-element-box individual-element" x="249" y="338" width="17" height="17"></rect><rect data-element-id="element-id-66433" stroke-width="2" fill="transparent" class="invisible-element-box individual-element" x="290" y="338" width="17" height="17"></rect><rect data-element-id="element-id-55483" stroke-width="2" fill="transparent" class="invisible-element-box individual-element" x="310" y="338" width="17" height="17"></rect><rect data-element-id="element-id-61360" stroke-width="2" fill="transparent" class="invisible-element-box individual-element" x="351" y="338" width="17" height="17"></rect><rect data-element-id="element-id-73804" stroke-width="2" fill="transparent" class="invisible-element-box individual-element" x="387" y="338" width="17" height="17"></rect><rect data-element-id="element-id-45981" stroke-width="2" fill="transparent" class="invisible-element-box individual-element" x="166" y="338" width="16" height="17"></rect><rect data-element-id="element-id-2827" stroke-width="2" fill="transparent" class="invisible-element-box individual-element" x="332" y="338" width="15" height="17"></rect><rect data-element-id="element-id-91234" stroke-width="2" fill="transparent" class="invisible-element-box individual-element" x="146" y="338" width="14" height="17"></rect><rect data-element-id="element-id-76082" stroke-width="2" fill="transparent" class="invisible-element-box individual-element" x="372" y="338" width="10" height="17"></rect></svg>