<svg xmlns:mydata="http://www.w3.org/2000/svg" mydata:contrastcolor="BABBB1" mydata:template="Contrast" mydata:presentation="2.5" mydata:layouttype="undefined" mydata:specialfontid="undefined" mydata:id1="658" mydata:id2="034" mydata:companyname="Snooze Eatery" mydata:companytagline="" version="1.1" xmlns="http://www.w3.org/2000/svg" xmlns:xlink="http://www.w3.org/1999/xlink" viewBox="0 0 550 470"><g fill="#101820" fill-rule="none" stroke="none" stroke-width="1" stroke-linecap="butt" stroke-linejoin="miter" stroke-miterlimit="10" stroke-dasharray="" stroke-dashoffset="0" font-family="none" font-weight="none" font-size="none" text-anchor="none" style="mix-blend-mode: normal"><g data-paper-data="{&quot;isGlobalGroup&quot;:true,&quot;bounds&quot;:{&quot;x&quot;:188.46554731012256,&quot;y&quot;:115,&quot;width&quot;:173.0689053797549,&quot;height&quot;:239.99999999999994}}"><g data-paper-data="{&quot;stacked&quot;:true,&quot;isPrimaryText&quot;:true}" fill-rule="nonzero"><path d="M213.79654,314.53401c-1.31998,-1.0057 -3.3628,-1.66569 -6.12847,-2.04282c-0.97427,-0.12571 -2.98566,-0.28285 -6.03418,-0.47142c-2.04282,-0.12571 -3.55137,-0.34571 -4.46278,-0.69142c-1.25712,-0.43999 -1.91711,-1.13141 -1.91711,-2.10568c0,-0.94284 0.59713,-1.66569 1.7914,-2.19996c1.19427,-0.53428 2.92281,-0.7857 5.18562,-0.7857c3.39423,0 6.69417,0.81713 9.96268,2.48281l1.53997,-2.89138c-3.07995,-1.88568 -6.81988,-2.82852 -11.21981,-2.82852c-3.55137,0 -6.28561,0.59713 -8.20271,1.7914c-1.94854,1.19427 -2.92281,2.82852 -2.92281,4.90277c0,2.01139 0.84856,3.45708 2.5771,4.30564c1.44569,0.72284 3.99136,1.19427 7.63701,1.44569c4.08564,0.28285 6.59989,0.53428 7.54273,0.75427c1.75997,0.47142 2.67138,1.41426 2.67138,2.79709c0,1.19427 -0.69142,2.13711 -2.04282,2.82852c-1.41426,0.72284 -3.42565,1.06855 -6.00275,1.06855c-3.95993,0 -7.66844,-1.03712 -11.12552,-3.1428l-1.38283,3.11137c3.07995,2.16853 7.22845,3.23709 12.47693,3.23709c3.89708,0 6.85131,-0.62856 8.92556,-1.91711c2.07425,-1.28855 3.11137,-3.07995 3.11137,-5.40562c0,-1.82283 -0.65999,-3.23709 -1.97997,-4.24278z" data-paper-data="{&quot;glyphName&quot;:&quot;S&quot;,&quot;glyphIndex&quot;:0,&quot;firstGlyphOfWord&quot;:true,&quot;word&quot;:1,&quot;line&quot;:1,&quot;firstGlyphOfFirstLine&quot;:true}"></path><path d="M221.69021,303.47135v21.99962h3.64565v-21.99962zM246.67549,303.47135h-3.64565v18.03969l-14.83403,-15.8083v4.80849l13.92262,14.95974h4.55706z" data-paper-data="{&quot;glyphName&quot;:&quot;N&quot;,&quot;glyphIndex&quot;:1,&quot;word&quot;:1,&quot;line&quot;:1}"></path><path d="M273.1117,306.67701c-2.23139,-2.3571 -5.1542,-3.5828 -8.73699,-3.5828c-3.51994,0 -6.47417,1.22569 -8.73699,3.61422c-1.94854,2.07425 -2.95423,4.65135 -2.95423,7.73129c0,3.04852 1.0057,5.62562 2.95423,7.73129c2.26282,2.38853 5.21705,3.5828 8.73699,3.5828c3.55137,0 6.47417,-1.16284 8.70556,-3.55137c1.97997,-2.07425 2.98566,-4.65135 2.98566,-7.76272c0,-3.11137 -1.0057,-5.68847 -2.95423,-7.76272zM270.18889,320.28534c-1.44569,1.47712 -3.42565,2.19996 -5.81418,2.19996c-2.3571,0 -4.33707,-0.75427 -5.81418,-2.23139c-1.53997,-1.50855 -2.32567,-3.45708 -2.32567,-5.81418c0,-2.19996 0.69142,-4.02279 2.04282,-5.4999c1.53997,-1.69711 3.55137,-2.54567 6.09704,-2.54567c2.3571,0 4.33707,0.72284 5.81418,2.19996c1.53997,1.44569 2.29425,3.39423 2.29425,5.84561c0,2.45139 -0.75427,4.39992 -2.29425,5.84561z" data-paper-data="{&quot;glyphName&quot;:&quot;O&quot;,&quot;glyphIndex&quot;:2,&quot;word&quot;:1,&quot;line&quot;:1}"></path><path d="M302.31357,306.67701c-2.23139,-2.3571 -5.1542,-3.5828 -8.73699,-3.5828c-3.51994,0 -6.47417,1.22569 -8.73699,3.61422c-1.94854,2.07425 -2.95423,4.65135 -2.95423,7.73129c0,3.04852 1.0057,5.62562 2.95423,7.73129c2.26282,2.38853 5.21705,3.5828 8.73699,3.5828c3.55137,0 6.47417,-1.16284 8.70556,-3.55137c1.97997,-2.07425 2.98566,-4.65135 2.98566,-7.76272c0,-3.11137 -1.0057,-5.68847 -2.95423,-7.76272zM299.39077,320.28534c-1.44569,1.47712 -3.42565,2.19996 -5.81418,2.19996c-2.3571,0 -4.33707,-0.75427 -5.81418,-2.23139c-1.53997,-1.50855 -2.32567,-3.45708 -2.32567,-5.81418c0,-2.19996 0.69142,-4.02279 2.04282,-5.4999c1.53997,-1.69711 3.55137,-2.54567 6.09704,-2.54567c2.3571,0 4.33707,0.72284 5.81418,2.19996c1.53997,1.44569 2.29425,3.39423 2.29425,5.84561c0,2.45139 -0.75427,4.39992 -2.29425,5.84561z" data-paper-data="{&quot;glyphName&quot;:&quot;O&quot;,&quot;glyphIndex&quot;:3,&quot;word&quot;:1,&quot;line&quot;:1}"></path><path d="M333.05542,322.20245l-16.594,-0.03143l16.594,-14.48832v-4.21136l-21.55963,18.7311v3.26851h21.55963zM311.77865,303.47135v3.29994h12.4455l4.21136,-3.29994z" data-paper-data="{&quot;glyphName&quot;:&quot;Z&quot;,&quot;glyphIndex&quot;:4,&quot;word&quot;:1,&quot;line&quot;:1}"></path><path d="M339.47198,303.47135v15.83973h3.64565v-3.64565h15.61973v-3.26851h-15.61973v-5.65704h15.5883v-3.26851zM339.47198,322.17102v3.29994h19.23395v-3.29994z" data-paper-data="{&quot;glyphName&quot;:&quot;E&quot;,&quot;glyphIndex&quot;:5,&quot;lastGlyphOfWord&quot;:true,&quot;word&quot;:1,&quot;line&quot;:1,&quot;lastGlyphOfFirstLine&quot;:true}"></path><path d="M188.46555,333.00038v15.83973h3.64565v-3.64565h15.61973v-3.26851h-15.61973v-5.65704h15.5883v-3.26851zM188.46555,351.70006v3.29994h19.23395v-3.29994z" data-paper-data="{&quot;glyphName&quot;:&quot;E&quot;,&quot;glyphIndex&quot;:6,&quot;firstGlyphOfWord&quot;:true,&quot;word&quot;:2,&quot;line&quot;:2,&quot;firstGlyphOfSecondLine&quot;:true}"></path><path d="M218.48455,346.76586l-4.33707,8.23414h3.99136l2.54567,-4.9342h14.8026l2.54567,4.9342h3.99136l-11.6598,-21.99962h-4.55706l-5.81418,10.93695h3.95993l4.1485,-7.79415l5.62562,10.6541z" data-paper-data="{&quot;glyphName&quot;:&quot;A&quot;,&quot;glyphIndex&quot;:7,&quot;word&quot;:2,&quot;line&quot;:2}"></path><path d="M273.1117,333.00038h-24.671v3.29994h24.671zM262.58331,339.28599h-3.64565v15.71401h3.64565z" data-paper-data="{&quot;glyphName&quot;:&quot;T&quot;,&quot;glyphIndex&quot;:8,&quot;word&quot;:2,&quot;line&quot;:2}"></path><path d="M279.52825,333.00038v15.83973h3.64565v-3.64565h15.61973v-3.26851h-15.61973v-5.65704h15.5883v-3.26851zM279.52825,351.70006v3.29994h19.23395v-3.29994z" data-paper-data="{&quot;glyphName&quot;:&quot;E&quot;,&quot;glyphIndex&quot;:9,&quot;word&quot;:2,&quot;line&quot;:2}"></path><path d="M327.39838,355l-5.87704,-8.57985c1.72854,-0.28285 3.11137,-0.94284 4.08564,-2.01139c1.09998,-1.13141 1.63426,-2.60853 1.63426,-4.49421c0,-2.10568 -0.65999,-3.80279 -1.97997,-5.05991c-1.31998,-1.22569 -3.1428,-1.85425 -5.43705,-1.85425h-14.61403v21.99962h3.64565v-18.7311h1.28855l13.0112,18.7311zM319.32137,343.3402l-4.83992,-7.07131h4.46278c3.01709,0 4.55706,1.22569 4.55706,3.64565c0,2.26282 -1.38283,3.39423 -4.17993,3.42565z" data-paper-data="{&quot;glyphName&quot;:&quot;R&quot;,&quot;glyphIndex&quot;:10,&quot;word&quot;:2,&quot;line&quot;:2}"></path><path d="M338.372,333.00038h-4.55706l9.27127,10.24554l2.26282,-2.51424zM361.53445,333.00038h-4.55706l-11.12552,12.25693v9.74269h3.64565v-8.70556z" data-paper-data="{&quot;glyphName&quot;:&quot;Y&quot;,&quot;glyphIndex&quot;:11,&quot;lastGlyphOfWord&quot;:true,&quot;word&quot;:2,&quot;line&quot;:2,&quot;lastGlyphOfSecondLine&quot;:true}"></path></g><g data-paper-data="{&quot;fillRule&quot;:&quot;evenodd&quot;,&quot;fillRuleOriginal&quot;:&quot;evenodd&quot;,&quot;isIcon&quot;:true,&quot;iconStyle&quot;:&quot;standalone&quot;,&quot;selectedEffects&quot;:{&quot;container&quot;:&quot;&quot;,&quot;transformation&quot;:&quot;rotate0;translate50&quot;,&quot;pattern&quot;:&quot;&quot;},&quot;bounds&quot;:{&quot;x&quot;:188.46554731012256,&quot;y&quot;:115,&quot;width&quot;:173.0689053797549,&quot;height&quot;:173.2720524888337},&quot;iconType&quot;:&quot;icon&quot;,&quot;rawIconId&quot;:&quot;17562&quot;,&quot;isDetailed&quot;:false,&quot;suitableAsStandaloneIcon&quot;:true}" fill-rule="evenodd"><path d="M210.3602,182.29714l-0.05891,0.00866c0,0 12.37682,4.92786 12.82733,14.34173c0.33268,7.01232 -2.6424,26.41706 -3.17434,27.62996c-0.84557,-10.54014 -3.39613,-23.20633 -6.02467,-23.06771c-2.05847,0.10743 -1.51613,24.0415 -1.51613,24.0415c-2.48992,-8.77276 -6.71429,-23.06771 -8.44701,-22.63453c-2.59908,0 -2.08793,13.38873 -0.17674,23.78852c-0.82651,-1.0327 -8.72598,-19.00794 -10.21785,-25.86605c-2.00302,-9.20941 7.57892,-16.44698 7.57892,-16.44698c-1.07775,-6.29324 -1.60623,-8.31879 -2.49165,-13.64517c-4.88627,-29.36961 -7.46629,-54.9619 -4.13947,-55.4228c0.01559,-0.00347 0.02946,-0.0052 0.03985,-0.00693c0.00866,-0.00173 0.01733,-0.00173 0.02599,-0.0052c0.00693,0 0.01733,-0.00174 0.02599,-0.00174c0.00866,-0.0052 0.02253,-0.0052 0.03985,-0.0052c0.02235,-0.00276 0.04477,-0.0045 0.06726,-0.0052h0.04593c3.32788,0.10306 8.04095,22.53802 13.20969,52.09078c0.92874,5.31599 1.46068,8.98762 2.38596,15.20636zM188.46555,230.79251v7.67422c1.90253,12.86198 43.52767,49.80532 53.05244,49.80532h66.96445c9.52303,0 51.14991,-36.94333 53.0507,-49.80705v-7.67249zM270.05762,169.35372c1.60623,-3.85357 8.78836,-3.209 11.80156,-2.75329c2.83993,0.23565 5.2848,2.70478 5.94323,6.1269c0.61858,3.22113 -0.57353,6.10091 -3.04266,7.33634c-4.09962,2.04808 -12.71817,0.88889 -13.68849,0.74854c-1.00325,-0.14382 -1.77257,-0.96513 -1.85055,-1.9753c-0.05025,-0.64284 -0.45397,-6.38508 0.8369,-9.48318zM320.49711,176.65887c-0.38466,7.00192 -7.6361,12.68178 -7.94452,12.9209c-0.9478,0.72948 -2.30972,0.55447 -3.03919,-0.39159c-0.72948,-0.94607 -0.5562,-2.30625 0.38986,-3.03746l0.00208,-0.00121l0.00017,-0.00017l0.37895,-0.23426c-0.13533,0.06515 -0.26216,0.14208 -0.37895,0.23426c0.18298,-0.14503 5.99417,-4.76949 6.26673,-9.72957c0.06584,-1.19384 1.08468,-2.10872 2.28026,-2.04288c1.19558,0.06584 2.11045,1.08815 2.04461,2.28199zM295.75214,182.45828c-3.43772,0.14382 -8.24082,0.86636 -10.26117,5.47886c-0.00173,0.00173 -0.31016,0.69309 -0.31016,0.69309c-0.7416,1.64608 -1.50747,3.34935 -0.77279,5.14791c0.72428,1.77777 2.61468,2.70824 4.17932,3.32163c5.17217,2.02382 11.36318,0.89235 14.09048,-2.58002c1.50227,-1.91119 1.58544,-4.88281 0.20966,-7.57026c-1.47974,-2.89364 -4.21398,-4.6125 -7.13534,-4.49121zM267.96103,184.67617c-3.63871,-0.40372 -6.43879,2.05847 -8.99455,4.61597l-0.0026,0.0026c-1.24409,1.24409 -3.12496,3.12496 -3.01407,5.57503c0.07451,1.63222 0.98419,3.15528 2.78102,4.65235l0.75027,0.63244c3.30083,2.79661 5.59322,4.35606 10.85549,1.28568c4.7234,-2.75503 5.01103,-4.8984 4.90187,-7.6257c-0.01213,-0.2911 -0.02426,-0.59432 -0.02426,-0.90101c0,-3.83105 -4.5224,-7.93239 -7.25317,-8.23735zM347.32482,188.06017c1.92852,2.12605 2.56616,3.209 2.76196,7.9116c0.15941,3.83798 -0.31882,4.86375 -3.00974,6.44919c-0.71215,0.41932 -1.59757,0.93913 -2.79661,1.84015c-5.16004,3.86916 -8.85074,3.57287 -12.34044,-0.98938c-2.70547,-3.53666 -1.17946,-6.5282 0.04696,-8.93269l0.00156,-0.00295c0.34654,-0.67749 0.70522,-1.37925 0.98592,-2.10006c1.05696,-2.71864 4.1568,-5.97095 7.81977,-6.64152c2.38769,-0.43665 4.6125,0.33442 6.26725,2.17283zM299.27302,191.84097c-1.36019,1.73272 -5.43728,2.65973 -9.10891,1.2233c-1.16924,-0.45778 -1.58717,-0.78388 -1.7173,-0.90985c0.05164,-0.33823 0.38813,-1.09092 0.65098,-1.67901l0.03015,-0.0674l0.32748,-0.73467c0.577,-1.31687 1.79856,-2.69265 6.47171,-2.88671c1.82282,-0.07624 2.833,1.6149 3.09984,2.13471c0.63071,1.2233 0.61858,2.44487 0.24605,2.91963zM270.8824,192.91352c0,0.39333 0.01386,0.75547 0.02772,1.07429c0.06584,1.62009 0.08317,2.05501 -2.75503,3.71149c-2.88498,1.68247 -3.16741,1.44336 -5.87219,-0.84903l-0.77626,-0.65497c-0.88889,-0.73987 -1.21637,-1.28221 -1.22677,-1.5196c-0.02426,-0.54234 1.26662,-1.83322 1.75178,-2.31838c2.19882,-2.20056 3.87748,-3.53423 5.43243,-3.37603c0.95196,0.22387 3.41831,2.52804 3.41831,3.93224zM267.48627,188.98371c-0.00658,-0.00052 -0.0123,-0.00121 -0.01698,-0.00191c0.00566,0.00069 0.01132,0.00133 0.01698,0.00191zM252.84651,203.19894c0.77279,2.65453 0.58393,6.15462 -1.16959,9.08639c5.57416,2.68398 7.01752,6.39027 6.36948,9.21114c-0.73121,3.15528 -4.34913,5.96576 -10.78792,5.13405c-1.18691,-0.15075 -2.02382,-1.2389 -1.87134,-2.42408c0.15248,-1.18518 1.2389,-2.02382 2.42581,-1.86961c3.52609,0.45571 5.72837,-0.59606 6.01081,-1.81589c0.2703,-1.16612 -1.20424,-3.53302 -6.36948,-5.2796c-0.73641,-0.24778 -1.28221,-0.87156 -1.43123,-1.63222c-0.15075,-0.7624 0.11782,-1.54559 0.70175,-2.05501c2.22828,-1.93718 2.59215,-4.98504 1.96317,-7.14401c-0.37773,-1.30301 -1.10374,-2.21788 -1.84708,-2.32878c-0.88022,-0.13342 -2.49858,0.75547 -4.40458,3.64564c-0.45051,0.68616 -1.25276,1.05696 -2.06714,0.95993c-0.81438,-0.09703 -1.504,-0.64977 -1.78124,-1.42083c-1.14013,-3.18821 -2.59562,-4.23823 -3.27831,-4.35606c-0.19753,-0.03292 -0.41759,-0.01906 -0.68789,0.31189c-0.68442,0.8369 -1.35152,3.51049 0.48516,8.22176c0.43491,1.11414 -0.11609,2.37036 -1.23023,2.80527c-1.11587,0.43318 -2.37209,-0.11782 -2.80527,-1.23196c-2.03248,-5.21376 -1.95971,-9.90077 0.1958,-12.53623c1.2129,-1.48494 2.95602,-2.1555 4.78058,-1.84015c1.90773,0.32922 3.64564,1.70673 5.02142,3.8709c2.52457,-2.57656 4.80483,-2.95775 6.41626,-2.71517c2.48126,0.37427 4.48601,2.39462 5.36104,5.40262zM321.4657,210.67736c8.54578,-1.92159 10.91614,1.67554 11.46195,2.95256c1.5941,3.72015 -1.51786,8.42275 -7.74526,11.69586c-1.05696,0.55794 -2.3669,0.15075 -2.92483,-0.90795c-0.55794,-1.05696 -0.15075,-2.3669 0.90795,-2.92483c4.79617,-2.52284 6.14943,-5.30039 5.78036,-6.15982c-0.32922,-0.7676 -3.2038,-1.72579 -9.59407,0.43145c-0.80052,0.2703 -1.68767,0.04852 -2.26813,-0.5666c-0.58046,-0.61338 -0.75027,-1.51267 -0.43318,-2.29585c0.94087,-2.33051 0.58566,-4.69914 -0.95126,-6.33483c-1.12627,-1.19558 -2.65973,-1.69807 -3.91248,-1.28048c-1.82975,0.60818 -3.11543,3.07558 -3.52435,6.76454c-0.08144,0.73987 -0.53714,1.38618 -1.20944,1.7102c-0.67056,0.32575 -1.46068,0.28417 -2.09139,-0.11263c-2.88325,-1.80376 -5.15311,-1.76737 -6.3175,-1.1332c-0.46264,0.25124 -1.01364,0.7416 -1.02577,1.65128c-0.01733,1.37405 1.24063,3.58327 4.82389,5.6608c1.03617,0.59952 1.38791,1.92332 0.78666,2.95949c-0.59952,1.03617 -1.92332,1.38791 -2.95949,0.78666c-4.48255,-2.59735 -7.02618,-6.04719 -6.98286,-9.46412c0.03119,-2.27333 1.25796,-4.29195 3.28351,-5.39742c2.20056,-1.19904 5.03355,-1.20944 7.93066,-0.11089c1.32033,-5.09766 4.16546,-6.83905 5.91724,-7.42297c2.89191,-0.96513 6.12517,-0.03639 8.43835,2.42408c1.80723,1.92159 2.68918,4.44616 2.60948,7.0747zM269.16874,207.46143c2.54017,-5.33851 12.94516,-1.30994 17.30121,0.67056c1.06736,0.48516 1.51093,1.82802 1.05349,2.90751c-0.05891,0.14208 -0.18713,0.61858 -0.2911,1.00325c-0.60299,2.23867 -1.72579,6.4076 -5.09247,8.46434c-4.10308,2.50725 -10.4691,0.70522 -15.5581,-1.1436c-1.52826,-0.55447 -2.457,-1.45549 -2.76542,-2.67532c-0.53143,-2.10318 1.05731,-3.88459 2.7396,-5.77117l0.00502,-0.00572c0.96859,-1.08815 2.06714,-2.32011 2.60774,-3.44985zM343.92696,224.47848c-3.35801,-1.76564 5.96402,-11.42209 13.71622,-14.97244c5.77342,-2.6476 4.69567,5.7457 -0.43318,9.81066c-5.12885,4.06323 -9.92676,6.92742 -13.28304,5.16177zM268.41847,215.42155c2.50725,0.90621 8.74851,3.04786 11.46368,1.38964c1.75351,-1.07082 2.56269,-3.68723 3.05479,-5.47713c-4.71647,-1.88693 -9.06386,-2.64586 -9.87477,-1.9805c-0.80745,1.67554 -2.11392,3.14489 -3.26964,4.44096c-0.43318,0.48343 -0.99631,1.1228 -1.37405,1.62702zM239.36248,212.30785c2.97162,0.36214 5.15831,3.34935 5.39742,3.68896c0.68962,0.97552 0.45571,2.32704 -0.51982,3.02013c-0.97725,0.68789 -2.32878,0.45571 -3.0184,-0.52155l0.0052,0.00693c-0.53021,-0.73814 -1.65648,-1.80723 -2.39115,-1.89386c-0.09877,-0.01213 -0.24778,-0.02946 -0.53021,0.21486c-0.90448,0.78146 -2.2716,0.68269 -3.05479,-0.22006c-0.78319,-0.90621 -0.68442,-2.27333 0.22006,-3.05652c1.13493,-0.98419 2.48126,-1.41217 3.89169,-1.2389zM316.04229,218.51619c-2.6528,-0.68962 -8.16631,-0.78146 -10.03418,3.81025c-0.45051,1.10894 0.08317,2.37036 1.19211,2.8226c1.10894,0.45051 2.37036,-0.08317 2.8226,-1.19211c0.90448,-2.22655 4.88974,-1.25969 4.93132,-1.24929c1.15746,0.30149 2.34091,-0.39506 2.64067,-1.55252c0.29976,-1.15746 -0.39506,-2.33744 -1.55252,-2.63893z" data-paper-data="{&quot;isPathIcon&quot;:true}"></path></g></g></g></svg>