<svg xmlns:mydata="http://www.w3.org/2000/svg" mydata:contrastcolor="ffffff" mydata:template="Contrast" mydata:presentation="2.5" mydata:layouttype="undefined" mydata:specialfontid="undefined" mydata:id1="1021" mydata:id2="220" mydata:companyname="Snooze Eatery" mydata:companytagline="" version="1.1" xmlns="http://www.w3.org/2000/svg" xmlns:xlink="http://www.w3.org/1999/xlink" style="height: 463px;" viewBox="0 0 550 470"><g fill="#222223" fill-rule="none" stroke="none" stroke-width="1" stroke-linecap="butt" stroke-linejoin="miter" stroke-miterlimit="10" stroke-dasharray="" stroke-dashoffset="0" font-family="none" font-weight="none" font-size="none" text-anchor="none" style="mix-blend-mode: normal"><g data-paper-data="{&quot;isGlobalGroup&quot;:true,&quot;bounds&quot;:{&quot;x&quot;:80.01858545356248,&quot;y&quot;:115.00000000000003,&quot;width&quot;:389.96282909287504,&quot;height&quot;:239.99999999999997}}"><g data-paper-data="{&quot;isPrimaryText&quot;:true}" fill-rule="nonzero" id="element-id-72552"><path d="M90.02164,345.36164c11.51393,0 29.54027,-5.83512 29.54027,-15.94237c0,-0.72939 -0.1042,-1.51088 -0.3126,-2.29237c-3.28225,-12.76431 -28.86298,-17.24485 -28.86298,-23.91355c0.57309,-7.55439 20.5271,-17.08855 33.13512,-17.08855c4.01164,0 7.65859,0.98989 7.65859,3.90744c0,3.85534 -5.26202,10.62825 -8.33588,12.08702c-0.41679,0.2084 -0.57309,0.57309 -0.57309,0.93779c0,0.52099 0.41679,1.09408 1.04198,1.09408c0.1563,0 0.3126,0 0.46889,-0.1042c3.59485,-1.77137 9.53416,-9.06527 9.53416,-14.11889c0,-4.11584 -4.22004,-5.93931 -9.69046,-5.93931c-9.74256,0 -23.86145,5.52252 -30.63435,11.46183c-3.02176,2.60496 -4.53263,4.89733 -4.74103,7.81489c0,4.22004 5.73092,7.0855 12.19122,10.41985c8.17958,4.16794 16.98435,9.11737 16.98435,15.68187c0,8.38798 -16.67176,13.8584 -27.4042,13.8584c-4.22004,-0.0521 -7.81489,-0.88569 -7.81489,-3.07386c0,-1.25038 1.04198,-3.02176 3.59485,-5.31412c0.2084,-0.2084 0.3126,-0.52099 0.3126,-0.78149c0,-0.52099 -0.41679,-1.09408 -1.09408,-1.09408c-0.2084,0 -0.46889,0.1042 -0.67729,0.3126c-3.02176,2.76126 -4.32424,5.10573 -4.32424,6.9292c0,3.23015 3.85534,5.10573 10.00305,5.15782z" data-paper-data="{&quot;glyphName&quot;:&quot;S&quot;,&quot;glyphIndex&quot;:0,&quot;firstGlyphOfWord&quot;:true,&quot;word&quot;:1}" id="element-id-93617"></path><path d="M140.45371,328.53358c4.27214,0 17.40115,-6.51241 21.36069,-8.54428c0.41679,-0.2084 0.62519,-0.57309 0.62519,-0.88569c0,-0.62519 -0.46889,-1.14618 -1.04198,-1.14618c-0.1563,0 -0.3126,0.0521 -0.52099,0.1563c-2.60496,1.25038 -16.72386,8.28378 -20.3187,8.28378c-0.36469,0 -0.57309,0 -0.57309,-0.46889c0,-1.51088 3.12595,-6.46031 3.12595,-8.28378c-0.0521,-1.04198 -0.67729,-1.66718 -1.71927,-1.66718l-0.52099,0.0521c-3.90744,0.46889 -12.08702,8.90897 -15.10878,10.26355c0.72939,-2.39657 3.54275,-6.35611 4.42844,-7.76279c0.1042,-0.2084 0.1563,-0.36469 0.1563,-0.57309c0,-0.57309 -0.52099,-1.04198 -1.14618,-1.04198c-0.3126,0 -0.62519,0.1563 -0.83359,0.52099c-0.93779,1.45878 -4.22004,6.30401 -4.79313,8.70057l-0.1042,0.78149c0,1.04198 0.46889,1.51088 1.61508,1.61508c3.64695,0 11.82653,-9.53416 15.83817,-10.36775c-0.52099,1.71927 -3.12595,5.57462 -3.12595,8.07538c0,1.40668 0.72939,2.18817 2.65706,2.29237z" data-paper-data="{&quot;glyphName&quot;:&quot;n&quot;,&quot;glyphIndex&quot;:1,&quot;word&quot;:1}" id="element-id-87310"></path><path d="M159.67833,328.53358c2.55286,0 5.62672,-3.23015 7.0334,-5.73092c1.14618,0.2084 2.34447,0.3126 3.69905,0.3126c4.48053,0 10.05515,-1.14618 16.04657,-3.07386c0.46889,-0.1563 0.72939,-0.57309 0.72939,-0.98989c-0.1042,-0.62519 -0.36469,-1.09408 -1.04198,-1.09408l-0.36469,0.0521c-5.88721,1.92767 -11.14924,2.96966 -15.31718,2.96966c-1.04198,0 -1.97977,-0.1042 -2.86546,-0.2084c0.2084,-0.67729 0.3126,-1.30248 0.3126,-1.87557c0,-2.34447 -1.82347,-3.43855 -3.59485,-3.43855c-1.56298,0 -3.12595,0.83359 -3.43855,2.44866c-1.97977,1.77137 -4.06374,5.15782 -4.16794,7.76279c0,1.71927 1.04198,2.76126 2.96966,2.86546zM165.51344,320.3019c-0.98989,-0.3126 -2.55286,-1.09408 -2.55286,-1.87557c0.0521,-0.52099 0.72939,-0.88569 1.45878,-0.88569c0.67729,0 1.35458,0.36469 1.35458,1.40668c0,0.36469 -0.0521,0.83359 -0.2605,1.35458zM159.67833,326.39752h-0.1042c-0.57309,0 -0.78149,-0.3126 -0.78149,-0.78149c0.0521,-1.77137 1.71927,-4.22004 2.70916,-5.36622c0.72939,0.88569 1.82347,1.56298 3.07386,1.97977c-1.09408,1.71927 -3.33435,4.11584 -4.89733,4.16794z" data-paper-data="{&quot;glyphName&quot;:&quot;o&quot;,&quot;glyphIndex&quot;:2,&quot;word&quot;:1}" id="element-id-45991"></path><path d="M184.42547,328.53358c2.55286,0 5.62672,-3.23015 7.0334,-5.73092c1.14618,0.2084 2.34447,0.3126 3.69905,0.3126c4.48053,0 10.05515,-1.14618 16.04657,-3.07386c0.46889,-0.1563 0.72939,-0.57309 0.72939,-0.98989c-0.1042,-0.62519 -0.36469,-1.09408 -1.04198,-1.09408l-0.36469,0.0521c-5.88721,1.92767 -11.14924,2.96966 -15.31718,2.96966c-1.04198,0 -1.97977,-0.1042 -2.86546,-0.2084c0.2084,-0.67729 0.3126,-1.30248 0.3126,-1.87557c0,-2.34447 -1.82347,-3.43855 -3.59485,-3.43855c-1.56298,0 -3.12595,0.83359 -3.43855,2.44866c-1.97977,1.77137 -4.06374,5.15782 -4.16794,7.76279c0,1.71927 1.04198,2.76126 2.96966,2.86546zM190.26058,320.3019c-0.98989,-0.3126 -2.55286,-1.09408 -2.55286,-1.87557c0.0521,-0.52099 0.72939,-0.88569 1.45878,-0.88569c0.67729,0 1.35458,0.36469 1.35458,1.40668c0,0.36469 -0.0521,0.83359 -0.2605,1.35458zM184.42547,326.39752h-0.1042c-0.57309,0 -0.78149,-0.3126 -0.78149,-0.78149c0.0521,-1.77137 1.71927,-4.22004 2.70916,-5.36622c0.72939,0.88569 1.82347,1.56298 3.07386,1.97977c-1.09408,1.71927 -3.33435,4.11584 -4.89733,4.16794z" data-paper-data="{&quot;glyphName&quot;:&quot;o&quot;,&quot;glyphIndex&quot;:3,&quot;word&quot;:1}" id="element-id-16229"></path><path d="M207.76593,328.48149c1.71927,-0.2084 3.43855,-0.2605 5.05363,-0.2605c3.07386,0 5.99141,0.2084 8.90897,0.2084c1.35458,0 2.65706,-0.0521 3.95954,-0.1563c7.0855,-0.67729 14.90038,-5.05363 21.51699,-8.33588c0.41679,-0.2084 0.62519,-0.52099 0.62519,-0.88569c0,-0.52099 -0.41679,-1.14618 -1.04198,-1.14618c-0.1563,0 -0.36469,0.0521 -0.52099,0.1563c-6.51241,3.17805 -14.17099,7.50229 -20.7876,8.12748c-0.83359,0.0521 -1.71927,0.1042 -2.60496,0.1042c-3.02176,0 -6.19981,-0.3126 -9.27367,-0.3126h-1.30248c4.63683,-2.50076 15.89027,-8.38798 19.38092,-9.69046c0.46889,-0.1563 0.67729,-0.57309 0.67729,-0.98989c0,-0.52099 -0.36469,-1.04198 -1.04198,-1.09408c-1.35458,-0.0521 -5.93931,-0.3126 -10.05515,-0.3126c-3.23015,0 -6.14771,0.1563 -6.9292,0.72939c-0.3126,0.2084 -0.41679,0.52099 -0.41679,0.83359c0,0.57309 0.41679,1.09408 1.04198,1.09408c0.2084,0 0.41679,-0.0521 0.62519,-0.2084c0.36469,-0.2605 2.60496,-0.36469 5.00153,-0.36469c2.44866,0 5.05363,0.1042 6.19981,0.1563c-5.52252,2.65706 -15.73397,7.97118 -19.69351,10.36775c-0.3126,0.2084 -0.46889,0.57309 -0.46889,0.88569c0,0.57309 0.46889,1.09408 1.04198,1.09408z" data-paper-data="{&quot;glyphName&quot;:&quot;z&quot;,&quot;glyphIndex&quot;:4,&quot;word&quot;:1}" id="element-id-47580"></path><path d="M248.19494,328.53358c7.45019,0 18.75573,-5.00153 25.78912,-8.54428c0.41679,-0.2084 0.62519,-0.57309 0.62519,-0.88569c0,-0.57309 -0.52099,-1.14618 -1.09408,-1.14618c-0.1563,0 -0.3126,0 -0.46889,0.1042c-6.7208,3.38645 -17.76584,8.33588 -24.74714,8.33588c-2.34447,-0.0521 -3.12595,-0.52099 -3.12595,-1.71927c0,-0.88569 0.41679,-1.97977 1.04198,-3.02176c0.46889,0.2605 1.04198,0.36469 1.71927,0.36469c1.45878,0 3.33435,-0.57309 4.89733,-1.45878c2.29237,-1.30248 3.23015,-2.86546 3.23015,-4.11584c0,-1.40668 -1.19828,-2.44866 -3.02176,-2.44866c-1.40668,0 -3.12595,0.62519 -4.94943,2.13607c-2.44866,2.03187 -5.00153,5.67882 -5.00153,8.64847c0,2.29237 1.40668,3.69905 5.10573,3.75115zM247.88234,319.93721l-0.46889,-0.0521c1.92767,-2.44866 4.37634,-3.85534 5.62672,-3.85534c0.52099,0 0.83359,0.2084 0.83359,0.57309c0,0.46889 -0.62519,1.30248 -2.13607,2.13607c-0.88569,0.52099 -2.76126,1.19828 -3.85534,1.19828z" data-paper-data="{&quot;glyphName&quot;:&quot;e&quot;,&quot;glyphIndex&quot;:5,&quot;lastGlyphOfWord&quot;:true,&quot;word&quot;:1}" id="element-id-66376"></path><path d="M303.05544,347.8624c12.08702,0 29.27977,-9.27367 29.27977,-14.63989c0,-1.09408 -0.67729,-2.03187 -2.18817,-2.70916c-0.1563,-0.0521 -0.2605,-0.0521 -0.41679,-0.0521c-0.62519,0 -1.04198,0.57309 -1.04198,1.09408c0,0.36469 0.1563,0.72939 0.62519,0.93779c0.57309,0.2084 0.83359,0.57309 0.83359,0.93779c0,0.1563 -0.0521,0.2605 -0.1042,0.41679c-1.92767,4.58473 -17.81794,12.03492 -27.1958,12.03492c-4.01164,0 -6.8771,-1.51088 -6.8771,-4.48053c0,-7.34599 17.81794,-20.26661 22.14218,-23.23626c0.3126,-0.2084 0.46889,-0.52099 0.46889,-0.83359c0,-0.52099 -0.36469,-0.98989 -0.93779,-1.09408c-15.42138,-2.08397 -20.8918,-6.825 -20.8918,-11.93073c0,-4.06374 3.38645,-8.23168 6.5645,-11.14924c8.64847,-8.07538 24.17405,-14.84828 36.78207,-14.84828c1.25038,0 2.50076,0.0521 3.69905,0.2084c3.12595,0.36469 4.32424,2.18817 4.32424,4.68893c0,6.5645 -8.75267,18.70363 -13.4937,18.70363h-0.2084c-0.78149,0 -0.98989,0.57309 -0.98989,1.14618c0,0.57309 0.41679,0.98989 1.19828,0.98989c5.93931,0 15.57767,-13.07691 15.57767,-20.8918c0,-3.43855 -1.66718,-6.19981 -6.14771,-6.7208c-1.30248,-0.1563 -2.60496,-0.2084 -3.95954,-0.2084c-13.18111,0 -29.22767,7.0334 -38.24084,15.36928c-3.64695,3.38645 -7.1897,8.02328 -7.1897,12.71222c0,5.52252 4.89733,11.09714 20.05821,13.65c-5.05363,3.54275 -20.8397,15.31718 -20.8397,23.54886c0,4.06374 3.64695,6.35611 9.16947,6.35611z" data-paper-data="{&quot;glyphName&quot;:&quot;E&quot;,&quot;glyphIndex&quot;:6,&quot;firstGlyphOfWord&quot;:true,&quot;word&quot;:2}" id="element-id-35278"></path><path d="M351.09094,328.48149c3.80324,0 14.37939,-6.30401 18.28683,-8.54428c0.36469,-0.2084 0.52099,-0.52099 0.52099,-0.83359c0,-0.57309 -0.41679,-1.14618 -1.04198,-1.14618c-0.2084,0 -0.36469,0.0521 -0.57309,0.1563c-3.23015,1.87557 -14.0668,8.23168 -17.19275,8.23168c-0.78149,0 -1.09408,-0.41679 -1.09408,-1.30248c0,-2.03187 1.92767,-5.67882 2.44866,-6.46031c0.1563,-0.2084 0.2084,-0.41679 0.2084,-0.62519c0,-0.62519 -0.52099,-1.09408 -1.09408,-1.09408c-0.2084,0 -0.41679,0.1042 -0.62519,0.2084c-0.88569,-0.88569 -2.60496,-1.45878 -3.95954,-1.45878c-5.00153,0 -10.00305,5.88721 -10.00305,9.53416c0,1.61508 1.09408,2.65706 2.76126,2.65706c2.86546,0 6.6166,-3.23015 8.44008,-4.89733c-0.1563,0.67729 -0.2605,1.35458 -0.2605,2.03187c0,1.97977 0.78149,3.49065 3.17805,3.54275zM339.88961,325.92862c-0.41679,0 -0.67729,-0.2605 -0.67729,-0.83359c0,-2.18817 3.49065,-7.0855 7.71069,-7.29389c0.93779,0 2.03187,0.3126 2.55286,0.83359c-0.88569,0.93779 -7.45019,7.29389 -9.58626,7.29389z" data-paper-data="{&quot;glyphName&quot;:&quot;a&quot;,&quot;glyphIndex&quot;:7,&quot;word&quot;:2}" id="element-id-25753"></path><path d="M352.86232,355c0.36469,0 0.72939,-0.1563 0.93779,-0.62519c7.71069,-17.97424 16.25496,-35.42748 24.38245,-50.06737c11.56603,0.1042 24.59084,0.2084 28.02939,0.36469c0.62519,0 0.93779,-0.46889 0.98989,-0.98989c0,-0.57309 -0.3126,-1.09408 -1.04198,-1.14618l-26.83111,-0.36469c2.13607,-3.69905 4.84523,-8.85687 6.14771,-10.78454c0.1563,-0.2605 0.2605,-0.46889 0.2605,-0.72939c0,-0.41679 -0.46889,-0.83359 -1.04198,-0.83359c-0.3126,0 -0.62519,0.1563 -0.83359,0.52099c-1.40668,2.13607 -4.53263,7.55439 -6.9292,11.82653l-28.13359,-0.2084c-0.67729,0 -1.04198,0.52099 -1.04198,0.98989c0,0.57309 0.2605,1.14618 1.04198,1.14618c15.62977,0.1042 20.8397,3.17805 20.8397,8.38798c0,2.44866 -1.04198,5.36622 -2.60496,8.44008c-4.79313,9.58626 -10.10725,20.7355 -15.21298,32.61413l-0.1042,0.46889c0,0.62519 0.57309,0.98989 1.14618,0.98989zM371.77434,311.70553c-0.2605,-3.64695 -2.65706,-6.04351 -6.6166,-7.55439l10.57615,0.1042z" data-paper-data="{&quot;glyphName&quot;:&quot;t&quot;,&quot;glyphIndex&quot;:8,&quot;word&quot;:2}" id="element-id-98734"></path><path d="M382.03789,328.53358c7.45019,0 18.75573,-5.00153 25.78912,-8.54428c0.41679,-0.2084 0.62519,-0.57309 0.62519,-0.88569c0,-0.57309 -0.52099,-1.14618 -1.09408,-1.14618c-0.1563,0 -0.3126,0 -0.46889,0.1042c-6.7208,3.38645 -17.76584,8.33588 -24.74714,8.33588c-2.34447,-0.0521 -3.12595,-0.52099 -3.12595,-1.71927c0,-0.88569 0.41679,-1.97977 1.04198,-3.02176c0.46889,0.2605 1.04198,0.36469 1.71927,0.36469c1.45878,0 3.33435,-0.57309 4.89733,-1.45878c2.29237,-1.30248 3.23015,-2.86546 3.23015,-4.11584c0,-1.40668 -1.19828,-2.44866 -3.02176,-2.44866c-1.40668,0 -3.12595,0.62519 -4.94943,2.13607c-2.44866,2.03187 -5.00153,5.67882 -5.00153,8.64847c0,2.29237 1.40668,3.69905 5.10573,3.75115zM381.7253,319.93721l-0.46889,-0.0521c1.92767,-2.44866 4.37634,-3.85534 5.62672,-3.85534c0.52099,0 0.83359,0.2084 0.83359,0.57309c0,0.46889 -0.62519,1.30248 -2.13607,2.13607c-0.88569,0.52099 -2.76126,1.19828 -3.85534,1.19828z" data-paper-data="{&quot;glyphName&quot;:&quot;e&quot;,&quot;glyphIndex&quot;:9,&quot;word&quot;:2}" id="element-id-68382"></path><path d="M403.13809,328.58568c0.3126,0 0.57309,-0.1563 0.83359,-0.46889c2.39657,-3.64695 7.29389,-7.86699 11.25344,-10.41985c-0.1042,0.36469 -0.1042,0.67729 -0.1042,0.98989c0,2.81336 2.76126,4.27214 5.62672,4.48053l1.77137,0.0521c5.15782,0 11.25344,-1.35458 15.26508,-3.23015c0.46889,-0.2084 0.62519,-0.57309 0.62519,-0.93779c0,-0.52099 -0.46889,-1.09408 -1.04198,-1.09408c-0.1563,0 -0.3126,0.0521 -0.46889,0.1042c-3.80324,1.71927 -9.58626,3.02176 -14.48359,3.02176l-1.51088,-0.0521c-1.56298,-0.1563 -3.64695,-0.78149 -3.64695,-2.44866c0,-0.88569 0.46889,-1.97977 1.04198,-2.86546c0.1042,-0.2084 0.1563,-0.41679 0.1563,-0.57309c0,-0.57309 -0.41679,-1.09408 -1.04198,-1.09408c-0.1563,0 -0.36469,0 -0.52099,0.1042c-3.02176,1.66718 -6.35611,4.06374 -9.11737,6.6166c0.78149,-1.51088 1.56298,-2.86546 2.13607,-3.85534c0.1042,-0.2084 0.1563,-0.36469 0.1563,-0.57309c0,-0.52099 -0.52099,-1.04198 -1.09408,-1.04198c-0.3126,0 -0.62519,0.1563 -0.88569,0.52099c-1.56298,2.55286 -4.79313,8.75267 -5.99141,11.25344c-0.1042,0.1563 -0.1042,0.3126 -0.1042,0.46889c0,0.57309 0.57309,1.04198 1.14618,1.04198z" data-paper-data="{&quot;glyphName&quot;:&quot;r&quot;,&quot;glyphIndex&quot;:10,&quot;word&quot;:2}" id="element-id-55660"></path><path d="M426.94744,355c5.20992,0 13.12901,-13.4416 19.48512,-25.47653c7.0855,-4.32424 14.84828,-7.1376 22.81947,-9.48206c0.52099,-0.1563 0.72939,-0.57309 0.72939,-0.98989c-0.1042,-0.67729 -0.3126,-1.14618 -1.04198,-1.14618l-0.3126,0.0521c-6.9292,2.08397 -13.8584,4.48053 -20.3708,8.07538c1.30248,-2.55286 3.85534,-7.60649 4.68893,-8.96107c0.1042,-0.2084 0.1563,-0.41679 0.1563,-0.57309c0,-0.57309 -0.52099,-1.04198 -1.09408,-1.04198c-0.2605,0 -0.57309,0.1042 -0.78149,0.41679c-1.66718,2.13607 -11.09714,10.41985 -14.43149,10.41985c-0.83359,-0.1563 -1.14618,-0.3126 -1.14618,-1.19828c0,-2.08397 3.23015,-6.46031 4.58473,-8.23168c0.1042,-0.2084 0.2084,-0.41679 0.2084,-0.67729c0,-0.57309 -0.46889,-1.04198 -1.04198,-1.04198c-0.36469,0 -0.67729,0.1563 -0.88569,0.41679c-1.35458,1.77137 -5.05363,6.46031 -5.05363,9.69046c0,1.45878 1.04198,3.12595 3.17805,3.12595c3.33435,0 8.75267,-4.27214 11.30554,-6.46031l-3.12595,6.09561c-6.6166,4.11584 -19.01622,15.00458 -20.6834,22.87157c-0.0521,0.36469 -0.1042,0.67729 -0.1042,0.98989c0,1.92767 1.25038,3.12595 2.91756,3.12595zM427.15584,352.96813c-0.57309,0 -0.98989,-0.3126 -0.98989,-1.09408l0.0521,-0.57309c1.30248,-6.09561 11.35763,-15.62977 16.46336,-19.32882c-5.78302,10.78454 -12.08702,20.99599 -15.52557,20.99599z" data-paper-data="{&quot;glyphName&quot;:&quot;y&quot;,&quot;glyphIndex&quot;:11,&quot;lastGlyphOfWord&quot;:true,&quot;word&quot;:2}" id="element-id-54937"></path></g><g data-paper-data="{&quot;fillRule&quot;:&quot;evenodd&quot;,&quot;fillRuleOriginal&quot;:&quot;evenodd&quot;,&quot;isIcon&quot;:true,&quot;iconStyle&quot;:&quot;standalone&quot;,&quot;selectedEffects&quot;:{&quot;container&quot;:&quot;&quot;,&quot;transformation&quot;:&quot;&quot;,&quot;pattern&quot;:&quot;&quot;},&quot;bounds&quot;:{&quot;x&quot;:187.09430778818353,&quot;y&quot;:115.00000000000003,&quot;width&quot;:175.81138442363294,&quot;height&quot;:141.4094317845004},&quot;iconType&quot;:&quot;icon&quot;,&quot;rawIconId&quot;:&quot;21988&quot;,&quot;isDetailed&quot;:false,&quot;suitableAsStandaloneIcon&quot;:true}" fill-rule="evenodd" id="element-id-36986"><path d="M326.42831,129.29662l-109.36391,-10.61432c-0.56822,-0.05455 -0.9887,-0.56595 -0.93188,-1.13417l0.15683,-1.60692c0.05455,-0.57277 0.56367,-0.99097 1.13189,-0.93642l109.36391,10.61432c0.57049,0.05455 0.99097,0.56595 0.93642,1.13644l-0.15683,1.60692c-0.05682,0.57049 -0.56595,0.9887 -1.13644,0.93415zM283.65509,136.35617h-66.93161c-0.57049,0 -1.03643,-0.46594 -1.0387,-1.03643v-1.61601c0,-0.57504 0.46821,-1.04098 1.0387,-1.04098h71.67737c0.15683,0 0.30457,0.04091 0.43867,0.10456c0.08864,-0.01137 0.17273,-0.04091 0.26366,-0.04773h0.23411c0.01137,0 0.01137,-0.00228 0.02273,-0.00228h37.5797c0.57277,0 1.04098,0.46594 1.04098,1.04098v1.63193c0.00228,0.57504 -0.47049,1.04098 -1.04098,1.04098h-0.40002v0.01818c0,0 -1.14326,-0.00909 -1.24326,-0.00909c-1.58874,0.13182 -2.78654,1.41373 -2.78654,2.98883c0,1.06825 0.56822,2.03877 1.52055,2.59563c1.14326,0.6705 1.84557,1.89558 1.84557,3.22066c0,1.32508 -0.70232,2.55016 -1.84557,3.22066c-0.95234,0.55686 -1.52055,1.52737 -1.52055,2.59563c0,1.06825 0.56822,2.03877 1.52055,2.59563c1.14326,0.66822 1.84557,1.8933 1.84557,3.21839c0,1.32508 -0.70005,2.55016 -1.8433,3.22066c-0.9387,0.55003 -1.50009,1.50237 -1.516,2.55016c0.01591,1.04779 0.57731,1.99786 1.51374,2.54789c1.14326,0.6705 1.84557,1.89558 1.84557,3.22066c0,1.32508 -0.70232,2.55016 -1.84557,3.22066c-0.95234,0.55686 -1.52055,1.52737 -1.52055,2.59563c0,1.06825 0.56822,2.03877 1.52055,2.59563c1.14326,0.66822 1.84557,1.8933 1.84557,3.21839c0,1.32508 -0.70005,2.55016 -1.8433,3.22066c-0.9546,0.55686 -1.52283,1.52737 -1.52283,2.59563c0,1.57056 1.19554,2.85018 2.77745,2.98656c-0.01204,-0.00136 0.085,-0.00727 0.19138,-0.01386c0.07523,-0.00477 0.15501,-0.00955 0.20411,-0.01341c0.01363,0 0.01591,-0.00454 0.03182,-0.00454h1.20235c0.57277,0 1.04098,0.46594 1.04098,1.04098v1.6501c0.00228,0.57504 -0.47049,1.04098 -1.04098,1.04098h-1.19554l-0.71822,0.02046c-3.4775,-0.27957 -6.22313,-3.15702 -6.22313,-6.70725c0,-2.49107 1.36145,-4.64121 3.36613,-5.81629c-2.00467,-1.17508 -3.36613,-3.32522 -3.36613,-5.81629c0,-2.46834 1.33872,-4.6003 3.31385,-5.78219c-1.49783,-0.88869 -2.61381,-2.32515 -3.06838,-4.05026c0,-0.00228 -0.00228,-0.00454 -0.00228,-0.00682c-0.06364,-0.23638 -0.11364,-0.47503 -0.15001,-0.72278c-0.04091,-0.2432 -0.06137,-0.49321 -0.07273,-0.7455c-0.00454,-0.07728 -0.02273,-0.15001 -0.02273,-0.22729c0,-0.01591 0.00454,-0.03182 0.00454,-0.04773c-0.00228,-0.01591 -0.00454,-0.02955 -0.00454,-0.04546h0.00682c0.03409,-2.45016 1.37964,-4.56166 3.35931,-5.7231c-2.00467,-1.17508 -3.36613,-3.32522 -3.36613,-5.81629c0,-2.49107 1.36145,-4.64121 3.36613,-5.81629c-2.00467,-1.17508 -3.36613,-3.32749 -3.36613,-5.81629c0,-1.08416 0.27957,-2.09332 0.73641,-2.99792h-1.95013v0.01818c0,0 -1.14326,-0.00909 -1.24326,-0.00909c-1.59101,0.13182 -2.78654,1.41373 -2.78654,2.98883c0,1.06825 0.56822,2.03877 1.52055,2.59563c1.14326,0.6705 1.84557,1.89558 1.84557,3.22066c0,1.32508 -0.70232,2.55016 -1.84557,3.22066c-0.95234,0.55686 -1.52055,1.52737 -1.52055,2.59563c0,1.06825 0.56822,2.03877 1.52055,2.59563c1.14326,0.66822 1.84557,1.8933 1.84557,3.21839c0,1.32508 -0.70005,2.55016 -1.8433,3.22066c-0.9387,0.55003 -1.50009,1.50237 -1.516,2.55016c0.01591,1.04779 0.57731,1.99786 1.51374,2.54789c1.14326,0.6705 1.84557,1.89558 1.84557,3.22066c0,1.32508 -0.70232,2.55016 -1.84557,3.22066c-0.95234,0.55686 -1.52055,1.52737 -1.52055,2.59563c0,1.06825 0.56822,2.03877 1.52055,2.59563c1.14326,0.66822 1.84557,1.8933 1.84557,3.21839c0,1.32508 -0.70005,2.55016 -1.8433,3.22066c-0.9546,0.55686 -1.52283,1.52737 -1.52283,2.59563c0,1.57056 1.19554,2.85018 2.77745,2.98656c-0.01204,-0.00136 0.085,-0.00727 0.19138,-0.01386c0.07523,-0.00477 0.15501,-0.00955 0.20411,-0.01341c0.01363,0 0.01591,-0.00454 0.03182,-0.00454h1.20235c0.57049,0 1.04098,0.46594 1.04098,1.04098v1.6501c0.00228,0.57504 -0.47049,1.04098 -1.04098,1.04098h-1.19554l-0.71822,0.02046c-3.4775,-0.27957 -6.22313,-3.15702 -6.22313,-6.70725c0,-2.49107 1.36145,-4.64121 3.36613,-5.81629c-2.00467,-1.17508 -3.36613,-3.32522 -3.36613,-5.81629c0,-2.46834 1.33872,-4.6003 3.31385,-5.78219c-1.49783,-0.88869 -2.61381,-2.32515 -3.06838,-4.05026c0,-0.00228 -0.00228,-0.00454 -0.00228,-0.00682c-0.06364,-0.23638 -0.11364,-0.47503 -0.15001,-0.72278c-0.04091,-0.2432 -0.06137,-0.49321 -0.07273,-0.7455c-0.00228,-0.07728 -0.02273,-0.15001 -0.02273,-0.22729c0,-0.01591 0.00454,-0.03182 0.00454,-0.04773c-0.00228,-0.01591 -0.00454,-0.02955 -0.00454,-0.04546h0.01137c0.03409,-2.45016 1.37964,-4.56166 3.35931,-5.7231c-2.00467,-1.17508 -3.36613,-3.32522 -3.36613,-5.81629c0,-2.49107 1.36145,-4.64121 3.36613,-5.81629c-2.00467,-1.17508 -3.36613,-3.32749 -3.36613,-5.81629c0,-1.08644 0.27957,-2.09332 0.73641,-2.99792h-1.95013v0.01818c0,0 -1.14326,-0.00909 -1.24326,-0.00909c-1.59101,0.13182 -2.78654,1.41373 -2.78654,2.98883c0,1.06825 0.56822,2.03877 1.52055,2.59563c1.14326,0.6705 1.84557,1.89558 1.84557,3.22066c0,1.32508 -0.70459,2.55016 -1.84557,3.22066c-0.95234,0.55686 -1.52055,1.52737 -1.52055,2.59563c0,1.06825 0.56822,2.03877 1.52055,2.59563c1.14326,0.66822 1.84557,1.8933 1.84557,3.21839c0,1.32508 -0.70232,2.55016 -1.8433,3.22066c-0.9387,0.55003 -1.50009,1.50237 -1.516,2.55016c0.01591,1.04779 0.57731,1.99786 1.51374,2.54789c1.14326,0.6705 1.84557,1.89558 1.84557,3.22066c0,1.32508 -0.70459,2.55016 -1.84557,3.22066c-0.95234,0.55686 -1.52055,1.52737 -1.52055,2.59563c0,1.06825 0.56822,2.03877 1.52055,2.59563c1.14326,0.66822 1.84557,1.8933 1.84557,3.21839c0,1.32508 -0.70232,2.55016 -1.8433,3.22066c-0.9546,0.55686 -1.52283,1.52737 -1.52283,2.59563c0,1.57056 1.19554,2.85018 2.77745,2.98656c-0.01204,-0.00136 0.085,-0.00727 0.19138,-0.01386c0.07523,-0.00477 0.15501,-0.00955 0.20411,-0.01341c0.01363,0 0.01591,-0.00454 0.03182,-0.00454h1.20235c0.57049,0 1.04098,0.46594 1.04098,1.04098v1.6501c0.00228,0.57504 -0.46821,1.04098 -1.04098,1.04098h-1.19554l-0.71822,0.02046c-3.4775,-0.27957 -6.22313,-3.15702 -6.22313,-6.70725c0,-2.49107 1.36145,-4.64121 3.36613,-5.81629c-2.00467,-1.17508 -3.36613,-3.32522 -3.36613,-5.81629c0,-2.46834 1.33872,-4.6003 3.31385,-5.78219c-1.49783,-0.88869 -2.61381,-2.32515 -3.06838,-4.05026c0,-0.00228 -0.00228,-0.00454 -0.00228,-0.00682c-0.06364,-0.23638 -0.11364,-0.47503 -0.15001,-0.72278c-0.04091,-0.2432 -0.06137,-0.49321 -0.07273,-0.7455c-0.00228,-0.07728 -0.02273,-0.15001 -0.02273,-0.22729c0,-0.01591 0.00454,-0.03182 0.00454,-0.04773c-0.00228,-0.01591 -0.00454,-0.02955 -0.00454,-0.04546h0.00682c0.03409,-2.45016 1.37964,-4.56166 3.35931,-5.7231c-2.00467,-1.17508 -3.36613,-3.32522 -3.36613,-5.81629c0,-2.49107 1.36145,-4.64121 3.36613,-5.81629c-2.00467,-1.17508 -3.36613,-3.32749 -3.36613,-5.81629c0,-1.08644 0.27957,-2.09332 0.73641,-2.99792h-1.95013v0.01818c0,0 -1.14326,-0.00909 -1.24326,-0.00909c-1.58874,0.13182 -2.78654,1.41373 -2.78654,2.98883c0,1.06825 0.56822,2.03877 1.52055,2.59563c1.14326,0.6705 1.84557,1.89558 1.84557,3.22066c0,1.32508 -0.70232,2.55016 -1.84557,3.22066c-0.95234,0.55686 -1.52055,1.52737 -1.52055,2.59563c0,1.06825 0.56822,2.03877 1.52055,2.59563c1.14326,0.66822 1.84557,1.8933 1.84557,3.21839c0,1.32508 -0.70005,2.55016 -1.8433,3.22066c-0.9387,0.55003 -1.50009,1.50237 -1.516,2.55016c0.01591,1.04779 0.57731,1.99786 1.51374,2.54789c1.14326,0.6705 1.84557,1.89558 1.84557,3.22066c0,1.32508 -0.70232,2.55016 -1.84557,3.22066c-0.95234,0.55686 -1.52055,1.52737 -1.52055,2.59563c0,1.06825 0.56822,2.03877 1.52055,2.59563c1.14326,0.66822 1.84557,1.8933 1.84557,3.21839c0,1.32508 -0.70005,2.55016 -1.8433,3.22066c-0.9546,0.55686 -1.52283,1.52737 -1.52283,2.59563c0,1.57056 1.19326,2.85018 2.77745,2.98656c-0.01204,-0.00136 0.085,-0.00727 0.19138,-0.01386c0.07523,-0.00477 0.15501,-0.00955 0.20411,-0.01341c0.01363,0 0.01591,-0.00454 0.03182,-0.00454h1.20235c0.57049,0 1.04098,0.46594 1.04098,1.04098v1.6501c0.00228,0.57504 -0.47049,1.04098 -1.04098,1.04098h-1.19554l-0.71822,0.02046c-3.47977,-0.27957 -6.22313,-3.15702 -6.22313,-6.70725c0,-2.49107 1.35918,-4.64121 3.36385,-5.81629c-2.0024,-1.17508 -3.36385,-3.32522 -3.36385,-5.81629c0,-2.46834 1.33872,-4.6003 3.31385,-5.78219c-1.50009,-0.88869 -2.61381,-2.32515 -3.06838,-4.05026c0,-0.00228 -0.00228,-0.00454 -0.00228,-0.00682c-0.06364,-0.23638 -0.11364,-0.47503 -0.15001,-0.72278c-0.04091,-0.2432 -0.06137,-0.49321 -0.07273,-0.7455c-0.00228,-0.07728 -0.02273,-0.15001 -0.02273,-0.22729c0,-0.01591 0.00454,-0.03182 0.00454,-0.04773c-0.00228,-0.01591 -0.00454,-0.02955 -0.00454,-0.04546h0.00682c0.03637,-2.45016 1.3819,-4.56166 3.35931,-5.7231c-2.0024,-1.17508 -3.36385,-3.32522 -3.36385,-5.81629c0,-2.49107 1.35918,-4.64121 3.36385,-5.81629c-2.0024,-1.17508 -3.36385,-3.32749 -3.36385,-5.81629c0,-1.08644 0.28183,-2.09332 0.73868,-2.99792h-1.9524v0.01818c0,0 -1.14326,-0.00909 -1.24326,-0.00909c-1.58874,0.13182 -2.78654,1.41373 -2.78654,2.98883c0,1.06825 0.56822,2.03877 1.52055,2.59563c1.14326,0.6705 1.84557,1.89558 1.84557,3.22066c0,1.32508 -0.70232,2.55016 -1.84557,3.22066c-0.95234,0.55686 -1.52055,1.52737 -1.52055,2.59563c0,1.06825 0.56822,2.03877 1.52055,2.59563c1.14326,0.66822 1.84557,1.8933 1.84557,3.21839c0,1.32508 -0.70005,2.55016 -1.8433,3.22066c-0.94097,0.55003 -1.50009,1.50237 -1.516,2.55016c0.01591,1.04779 0.57504,1.99786 1.51374,2.54789c1.14326,0.6705 1.84557,1.89558 1.84557,3.22066c0,1.32508 -0.70232,2.55016 -1.84557,3.22066c-0.95234,0.55686 -1.52055,1.52737 -1.52055,2.59563c0,1.06825 0.56822,2.03877 1.52055,2.59563c1.14326,0.66822 1.84557,1.8933 1.84557,3.21839c0,1.32508 -0.70005,2.55016 -1.8433,3.22066c-0.9546,0.55686 -1.52283,1.52737 -1.52283,2.59563c0,1.57056 1.19326,2.85018 2.77745,2.98656c-0.01204,-0.00136 0.085,-0.00727 0.19115,-0.01386c0.07546,-0.00477 0.15524,-0.00955 0.20433,-0.01341c0.01363,0 0.01591,-0.00454 0.03182,-0.00454h1.20235c0.57277,0 1.04098,0.46594 1.04098,1.04098v1.6501c0.00228,0.57504 -0.47049,1.04098 -1.04098,1.04098h-1.1978l-0.71822,0.02046c-3.4775,-0.27957 -6.22313,-3.15702 -6.22313,-6.70725c0,-2.49107 1.36145,-4.64121 3.36613,-5.81629c-2.00467,-1.17508 -3.36613,-3.32522 -3.36613,-5.81629c0,-2.46834 1.33872,-4.6003 3.31385,-5.78219c-1.49783,-0.88869 -2.61381,-2.32515 -3.06838,-4.05026c0,-0.00228 -0.00228,-0.00454 -0.00228,-0.00682c-0.06364,-0.23638 -0.11364,-0.47503 -0.15001,-0.72278c-0.04091,-0.2432 -0.06137,-0.49321 -0.07273,-0.7455c-0.00228,-0.07728 -0.02273,-0.15001 -0.02273,-0.22729c0,-0.01591 0.00454,-0.03182 0.00454,-0.04773c-0.00228,-0.01591 -0.00454,-0.02955 -0.00454,-0.04546h0.00682c0.03409,-2.45016 1.37964,-4.56166 3.35931,-5.7231c-2.00467,-1.17508 -3.36613,-3.32522 -3.36613,-5.81629c0,-2.49107 1.36145,-4.64121 3.36613,-5.81629c-2.00467,-1.17508 -3.36613,-3.32749 -3.36613,-5.81629c0,-1.11598 0.29548,-2.15014 0.77505,-3.07293zM273.17714,196.83281h88.68984c0.57049,0 1.04098,0.46594 1.0387,1.04325v4.68667c0,0.57504 -0.47049,1.04098 -1.04098,1.04098h-5.20716c-0.87278,0.40457 -2.10241,1.11826 -3.52977,2.42516c-3.02747,2.77973 -6.96181,8.22326 -9.54834,19.06033c-2.76836,11.56666 -6.2504,19.26715 -11.14845,24.28794c-4.84804,4.99123 -11.05299,6.80726 -17.67387,6.80726h-21.39457c-0.88188,0.14773 -1.72057,0.22501 -2.49107,0.22501h-64.38826c-5.45262,0.01137 -14.17819,-3.40704 -20.06039,-14.33502c-3.20475,-6.10721 -9.55062,-8.20735 -12.64627,-8.85284h-5.639c-0.57504,0 -1.04325,-0.46594 -1.04325,-1.04098v-4.68667c0,-0.57277 0.46821,-1.0387 1.04325,-1.0387h15.83739c1.21145,-3.21384 3.18203,-5.86629 5.87538,-7.68232c3.01156,-2.05014 6.66861,-3.03428 10.83252,-3.28431c0.71368,-4.68212 2.52516,-8.53464 5.614,-11.23709c3.69796,-3.23203 8.70738,-4.47529 14.52594,-4.47074h0.40911c1.10461,0 2.17059,0.04319 3.20475,0.13637c3.45022,-2.18423 7.73459,-3.0502 12.61673,-3.0502h0.41139c4.32301,0 8.14144,0.67277 11.38028,2.34334c2.64108,1.34781 4.80713,3.42067 6.31177,6.02539c4.12981,0.20456 7.76642,1.11598 10.79161,3.04565c2.71382,1.71829 4.75712,4.26845 6.04357,7.38003c1.30918,-0.16138 2.67972,-0.24092 4.1139,-0.24092h0.41139c4.94578,0.00228 9.26196,0.88188 12.75537,3.13656c2.84109,1.81603 4.92078,4.55939 6.17767,7.89596h13.74407c0.57277,0 1.04098,0.46821 1.04098,1.0387v4.68667c0,0.57504 -0.47049,1.04098 -1.04098,1.04098h-5.63446c-0.99325,0.20229 -2.31833,0.55231 -3.76388,1.14098c-3.12066,1.27054 -6.64588,3.53432 -8.89375,7.71186c-1.74784,3.24339 -3.7457,5.81174 -5.8322,7.83914h9.44152c5.78901,-0.04319 9.81428,-1.28645 13.44178,-4.92532c3.63887,-3.6707 6.90954,-10.3143 9.52562,-21.34911c2.3206,-9.75518 5.82765,-16.03513 9.28924,-20.03312h-60.81985c-0.51594,-0.18865 -1.06143,-0.34775 -1.62056,-0.49321c-0.2091,-0.05455 -0.42958,-0.10001 -0.6455,-0.14773c-0.37048,-0.08182 -0.74778,-0.1591 -1.13644,-0.22501c-0.24547,-0.04319 -0.49549,-0.08182 -0.75005,-0.11591c-0.41139,-0.05455 -0.83641,-0.10001 -1.26827,-0.13864c-0.22729,-0.02046 -0.45003,-0.04319 -0.68413,-0.0591c-0.67277,-0.04319 -1.36373,-0.07046 -2.08195,-0.07046h-0.08182c-0.25457,-0.59549 -0.53867,-1.15235 -0.8546,-1.6751c-0.04319,-0.07273 -0.09546,-0.13182 -0.14092,-0.20001c-0.27957,-0.44548 -0.57277,-0.87733 -0.89551,-1.27054c-0.0591,-0.07273 -0.12956,-0.13182 -0.18865,-0.20229c-0.32502,-0.3773 -0.65913,-0.74096 -1.02507,-1.0728c-0.06819,-0.06137 -0.14773,-0.11137 -0.21592,-0.17273c-0.3773,-0.32729 -0.76369,-0.64322 -1.18189,-0.92733zM222.92615,221.6867c-4.35938,-0.00228 -7.46866,0.83187 -9.53925,2.25469c-0.96142,0.66822 -1.76829,1.47964 -2.43652,2.50925h97.55178c-0.71368,-1.09552 -1.58419,-1.93876 -2.63426,-2.63654c-2.06604,-1.34327 -5.12533,-2.12968 -9.34833,-2.12514h-0.41139c-2.11377,0 -3.94344,0.20229 -5.51627,0.57731c-1.66375,0.39548 -3.33885,-0.61595 -3.76161,-2.27287c-0.85006,-3.22521 -2.21605,-5.09806 -4.26391,-6.43678c-2.05468,-1.32964 -5.09806,-2.10468 -9.28014,-2.10014h-0.0841c-1.25917,0 -2.38879,-0.74778 -2.88201,-1.90467c-1.00688,-2.2956 -2.34334,-3.71388 -4.35483,-4.77758c-2.00923,-1.04779 -4.82304,-1.64784 -8.49827,-1.64329h-0.41139c-4.62303,0 -7.82324,0.93188 -9.90519,2.52289c-0.65913,0.49776 -1.48646,0.71822 -2.30697,0.60913c-1.09552,-0.14547 -2.29787,-0.22047 -3.60705,-0.22047h-0.40911c-5.00032,0.00454 -8.31191,1.07735 -10.39386,2.9161c-2.07968,1.82966 -3.46841,4.76168 -3.79343,9.78927c-0.10228,1.65238 -1.47282,2.94337 -3.12747,2.94337c-0.12273,0 -0.20001,-0.00454 -0.22729,-0.00454zM259.07849,204.16284c0.25229,-0.25229 0.66596,-0.25001 0.91597,0.00228l6.17767,6.17767c0.25229,0.25229 0.25229,0.66368 0.00228,0.91597l-2.07059,2.06832c-0.25457,0.25229 -0.66596,0.25229 -0.91825,-0.00228l-6.17767,-6.1754c-0.25001,-0.25229 -0.25229,-0.66596 0,-0.91825zM241.89101,210.53825h8.73465c0.35911,0 0.65231,0.28866 0.65231,0.64777v2.92292c0,0.35911 -0.2932,0.65005 -0.65231,0.65005h-8.73465c-0.35457,0 -0.64777,-0.29092 -0.64777,-0.64777v-2.92519c0,-0.35684 0.2932,-0.64777 0.64777,-0.64777zM233.76094,211.47012h2.92519c0.35911,0 0.65005,0.2932 0.65005,0.65231v8.73465c0,0.35684 -0.29092,0.64777 -0.64777,0.64777h-2.92519c-0.35684,0 -0.64777,-0.29092 -0.64777,-0.64777v-8.73465c-0.00228,-0.35911 0.29092,-0.65231 0.6455,-0.65231zM257.71476,212.9634c0.25229,-0.25229 0.66368,-0.25457 0.91597,-0.00228l2.06832,2.06832c0.25229,0.25229 0.25229,0.66596 -0.00228,0.91825l-6.1754,6.1754c-0.25229,0.25229 -0.66368,0.25457 -0.91825,0l-2.06604,-2.06832c-0.25457,-0.25229 -0.25001,-0.66368 0,-0.91597zM272.34526,217.79553h8.73465c0.35684,0 0.64777,0.28866 0.64777,0.64777v2.92519c0,0.35684 -0.29092,0.64777 -0.64777,0.64777h-8.73465c-0.35911,0 -0.65231,-0.29092 -0.65231,-0.65005v-2.92519c0,-0.35457 0.2932,-0.6455 0.65231,-0.6455zM226.4832,250.13627h64.36098c3.00702,-0.01363 9.65972,-1.97967 14.53503,-11.03936c1.32736,-2.40016 2.92064,-4.32073 4.61393,-5.87992h-102.64984c-0.00228,0.00228 -0.00682,0.00454 -0.01137,0.00682c1.69102,1.55919 3.28431,3.4775 4.60939,5.87538c4.88213,9.05741 11.53257,11.02571 14.54185,11.03708z" data-paper-data="{&quot;isPathIcon&quot;:true}" id="element-id-98565"></path></g></g></g><rect data-element-id="element-id-72552" stroke-width="2" fill="transparent" class="invisible-element-box grouping-element" x="80" y="276" width="390" height="79" data-element-name="isPrimaryText"></rect><rect data-element-id="element-id-36986" stroke-width="2" fill="transparent" class="invisible-element-box grouping-element" x="187" y="115" width="176" height="141" data-element-name="isIcon"></rect><rect data-element-id="element-id-98565" stroke-width="2" fill="transparent" class="invisible-element-box individual-element" x="187" y="115" width="176" height="141"></rect><rect data-element-id="element-id-35278" stroke-width="2" fill="transparent" class="invisible-element-box individual-element" x="294" y="276" width="56" height="72"></rect><rect data-element-id="element-id-98734" stroke-width="2" fill="transparent" class="invisible-element-box individual-element" x="348" y="290" width="59" height="65"></rect><rect data-element-id="element-id-93617" stroke-width="2" fill="transparent" class="invisible-element-box individual-element" x="80" y="284" width="53" height="61"></rect><rect data-element-id="element-id-54937" stroke-width="2" fill="transparent" class="invisible-element-box individual-element" x="424" y="315" width="46" height="40"></rect><rect data-element-id="element-id-47580" stroke-width="2" fill="transparent" class="invisible-element-box individual-element" x="207" y="314" width="41" height="15"></rect><rect data-element-id="element-id-55660" stroke-width="2" fill="transparent" class="invisible-element-box individual-element" x="402" y="314" width="36" height="15"></rect><rect data-element-id="element-id-87310" stroke-width="2" fill="transparent" class="invisible-element-box individual-element" x="123" y="316" width="39" height="13"></rect><rect data-element-id="element-id-66376" stroke-width="2" fill="transparent" class="invisible-element-box individual-element" x="243" y="314" width="32" height="15"></rect><rect data-element-id="element-id-68382" stroke-width="2" fill="transparent" class="invisible-element-box individual-element" x="377" y="314" width="32" height="15"></rect><rect data-element-id="element-id-25753" stroke-width="2" fill="transparent" class="invisible-element-box individual-element" x="337" y="316" width="33" height="13"></rect><rect data-element-id="element-id-45991" stroke-width="2" fill="transparent" class="invisible-element-box individual-element" x="157" y="315" width="30" height="13"></rect><rect data-element-id="element-id-16229" stroke-width="2" fill="transparent" class="invisible-element-box individual-element" x="181" y="315" width="30" height="13"></rect></svg>