<svg xmlns:mydata="http://www.w3.org/2000/svg" xmlns="http://www.w3.org/2000/svg" xmlns:xlink="http://www.w3.org/1999/xlink" mydata:contrastcolor="ffffff" mydata:template="Contrast" mydata:presentation="2.5" mydata:layouttype="undefined" mydata:specialfontid="undefined" mydata:id1="1021" mydata:id2="220" mydata:companyname="Snooze Eatery" mydata:companytagline="Feeling hungry? We Got You" version="1.1" style="height: 463px;" viewBox="0 0 550 470"><g fill="#222223" fill-rule="none" stroke="none" stroke-width="1" stroke-linecap="butt" stroke-linejoin="miter" stroke-miterlimit="10" stroke-dasharray="" stroke-dashoffset="0" font-family="none" font-weight="none" font-size="none" text-anchor="none" style="mix-blend-mode: normal"><g data-paper-data="{&quot;isGlobalGroup&quot;:true,&quot;bounds&quot;:{&quot;x&quot;:103.2246222007899,&quot;y&quot;:115,&quot;width&quot;:343.5507555984202,&quot;height&quot;:240}}"><g data-paper-data="{&quot;fillRule&quot;:&quot;evenodd&quot;,&quot;fillRuleOriginal&quot;:&quot;evenodd&quot;,&quot;isIcon&quot;:true,&quot;iconStyle&quot;:&quot;standalone&quot;,&quot;selectedEffects&quot;:{&quot;container&quot;:&quot;&quot;,&quot;transformation&quot;:&quot;&quot;,&quot;pattern&quot;:&quot;&quot;},&quot;bounds&quot;:{&quot;x&quot;:190.3197354896076,&quot;y&quot;:115,&quot;width&quot;:169.36052902078475,&quot;height&quot;:136.220849713827},&quot;iconType&quot;:&quot;icon&quot;,&quot;rawIconId&quot;:&quot;21988&quot;,&quot;isDetailed&quot;:false,&quot;suitableAsStandaloneIcon&quot;:true}" fill-rule="evenodd" id="element-id-50714"><path d="M324.54131,128.77205l-105.35114,-10.22486c-0.54737,-0.05254 -0.95242,-0.54518 -0.89769,-1.09255l0.15108,-1.54796c0.05254,-0.55175 0.54299,-0.95461 1.09036,-0.90207l105.35114,10.22486c0.54956,0.05254 0.95461,0.54518 0.90207,1.09474l-0.15108,1.54796c-0.05474,0.54956 -0.54518,0.95242 -1.09474,0.89987zM283.33751,135.57257h-64.47576c-0.54956,0 -0.99841,-0.44884 -1.00059,-0.99841v-1.55672c0,-0.55394 0.45103,-1.00278 1.00059,-1.00278h69.04739c0.15108,0 0.29339,0.03941 0.42257,0.10072c0.08539,-0.01095 0.1664,-0.03941 0.25398,-0.04598h0.22552c0.01095,0 0.01095,-0.00219 0.0219,-0.00219h36.20083c0.55175,0 1.00278,0.44884 1.00278,1.00278v1.57205c0.00219,0.55394 -0.45323,1.00278 -1.00278,1.00278h-0.38535v0.01751c0,0 -1.10131,-0.00876 -1.19764,-0.00876c-1.53044,0.12699 -2.6843,1.36185 -2.6843,2.87916c0,1.02905 0.54737,1.96396 1.46476,2.50039c1.10131,0.6459 1.77785,1.82603 1.77785,3.10249c0,1.27646 -0.67655,2.45659 -1.77785,3.10249c-0.91739,0.53642 -1.46476,1.47133 -1.46476,2.50039c0,1.02905 0.54737,1.96396 1.46476,2.50039c1.10131,0.64371 1.77785,1.82384 1.77785,3.10031c0,1.27646 -0.67436,2.45659 -1.77567,3.10249c-0.90426,0.52985 -1.44505,1.44725 -1.46038,2.45659c0.01533,1.00935 0.55613,1.92455 1.45819,2.45441c1.10131,0.6459 1.77785,1.82603 1.77785,3.10249c0,1.27646 -0.67655,2.45659 -1.77785,3.10249c-0.91739,0.53642 -1.46476,1.47133 -1.46476,2.50039c0,1.02905 0.54737,1.96396 1.46476,2.50039c1.10131,0.64371 1.77785,1.82384 1.77785,3.10031c0,1.27646 -0.67436,2.45659 -1.77567,3.10249c-0.91958,0.53642 -1.46695,1.47133 -1.46695,2.50039c0,1.51293 1.15167,2.74561 2.67554,2.87698c-0.0116,-0.00131 0.08189,-0.007 0.18436,-0.01335c0.07247,-0.0046 0.14933,-0.0092 0.19662,-0.01291c0.01313,0 0.01533,-0.00438 0.03065,-0.00438h1.15823c0.55175,0 1.00278,0.44884 1.00278,1.00278v1.58956c0.00219,0.55394 -0.45323,1.00278 -1.00278,1.00278h-1.15167l-0.69187,0.01971c-3.3499,-0.26931 -5.9948,-3.04118 -5.9948,-6.46115c0,-2.39967 1.31149,-4.47091 3.24262,-5.60288c-1.93112,-1.13196 -3.24262,-3.20321 -3.24262,-5.60288c0,-2.37777 1.2896,-4.4315 3.19226,-5.57003c-1.44287,-0.85608 -2.5179,-2.23984 -2.9558,-3.90165c0,-0.00219 -0.00219,-0.00438 -0.00219,-0.00657c-0.06131,-0.22771 -0.10947,-0.4576 -0.14451,-0.69626c-0.03941,-0.23428 -0.05912,-0.47512 -0.07006,-0.71815c-0.00438,-0.07444 -0.0219,-0.14451 -0.0219,-0.21895c0,-0.01533 0.00438,-0.03065 0.00438,-0.04598c-0.00219,-0.01533 -0.00438,-0.02846 -0.00438,-0.04379h0.00657c0.03284,-2.36026 1.32901,-4.39428 3.23605,-5.51311c-1.93112,-1.13196 -3.24262,-3.20321 -3.24262,-5.60288c0,-2.39967 1.31149,-4.47091 3.24262,-5.60288c-1.93112,-1.13196 -3.24262,-3.20539 -3.24262,-5.60288c0,-1.04438 0.26931,-2.01651 0.70939,-2.88792h-1.87857v0.01751c0,0 -1.10131,-0.00876 -1.19764,-0.00876c-1.53264,0.12699 -2.6843,1.36185 -2.6843,2.87916c0,1.02905 0.54737,1.96396 1.46476,2.50039c1.10131,0.6459 1.77785,1.82603 1.77785,3.10249c0,1.27646 -0.67655,2.45659 -1.77785,3.10249c-0.91739,0.53642 -1.46476,1.47133 -1.46476,2.50039c0,1.02905 0.54737,1.96396 1.46476,2.50039c1.10131,0.64371 1.77785,1.82384 1.77785,3.10031c0,1.27646 -0.67436,2.45659 -1.77567,3.10249c-0.90426,0.52985 -1.44505,1.44725 -1.46038,2.45659c0.01533,1.00935 0.55613,1.92455 1.45819,2.45441c1.10131,0.6459 1.77785,1.82603 1.77785,3.10249c0,1.27646 -0.67655,2.45659 -1.77785,3.10249c-0.91739,0.53642 -1.46476,1.47133 -1.46476,2.50039c0,1.02905 0.54737,1.96396 1.46476,2.50039c1.10131,0.64371 1.77785,1.82384 1.77785,3.10031c0,1.27646 -0.67436,2.45659 -1.77567,3.10249c-0.91958,0.53642 -1.46695,1.47133 -1.46695,2.50039c0,1.51293 1.15167,2.74561 2.67554,2.87698c-0.0116,-0.00131 0.08189,-0.007 0.18436,-0.01335c0.07247,-0.0046 0.14933,-0.0092 0.19662,-0.01291c0.01313,0 0.01533,-0.00438 0.03065,-0.00438h1.15823c0.54956,0 1.00278,0.44884 1.00278,1.00278v1.58956c0.00219,0.55394 -0.45323,1.00278 -1.00278,1.00278h-1.15167l-0.69187,0.01971c-3.3499,-0.26931 -5.9948,-3.04118 -5.9948,-6.46115c0,-2.39967 1.31149,-4.47091 3.24262,-5.60288c-1.93112,-1.13196 -3.24262,-3.20321 -3.24262,-5.60288c0,-2.37777 1.2896,-4.4315 3.19226,-5.57003c-1.44287,-0.85608 -2.5179,-2.23984 -2.9558,-3.90165c0,-0.00219 -0.00219,-0.00438 -0.00219,-0.00657c-0.06131,-0.22771 -0.10947,-0.4576 -0.14451,-0.69626c-0.03941,-0.23428 -0.05912,-0.47512 -0.07006,-0.71815c-0.00219,-0.07444 -0.0219,-0.14451 -0.0219,-0.21895c0,-0.01533 0.00438,-0.03065 0.00438,-0.04598c-0.00219,-0.01533 -0.00438,-0.02846 -0.00438,-0.04379h0.01095c0.03284,-2.36026 1.32901,-4.39428 3.23605,-5.51311c-1.93112,-1.13196 -3.24262,-3.20321 -3.24262,-5.60288c0,-2.39967 1.31149,-4.47091 3.24262,-5.60288c-1.93112,-1.13196 -3.24262,-3.20539 -3.24262,-5.60288c0,-1.04657 0.26931,-2.01651 0.70939,-2.88792h-1.87857v0.01751c0,0 -1.10131,-0.00876 -1.19764,-0.00876c-1.53264,0.12699 -2.6843,1.36185 -2.6843,2.87916c0,1.02905 0.54737,1.96396 1.46476,2.50039c1.10131,0.6459 1.77785,1.82603 1.77785,3.10249c0,1.27646 -0.67874,2.45659 -1.77785,3.10249c-0.91739,0.53642 -1.46476,1.47133 -1.46476,2.50039c0,1.02905 0.54737,1.96396 1.46476,2.50039c1.10131,0.64371 1.77785,1.82384 1.77785,3.10031c0,1.27646 -0.67655,2.45659 -1.77567,3.10249c-0.90426,0.52985 -1.44505,1.44725 -1.46038,2.45659c0.01533,1.00935 0.55613,1.92455 1.45819,2.45441c1.10131,0.6459 1.77785,1.82603 1.77785,3.10249c0,1.27646 -0.67874,2.45659 -1.77785,3.10249c-0.91739,0.53642 -1.46476,1.47133 -1.46476,2.50039c0,1.02905 0.54737,1.96396 1.46476,2.50039c1.10131,0.64371 1.77785,1.82384 1.77785,3.10031c0,1.27646 -0.67655,2.45659 -1.77567,3.10249c-0.91958,0.53642 -1.46695,1.47133 -1.46695,2.50039c0,1.51293 1.15167,2.74561 2.67554,2.87698c-0.0116,-0.00131 0.08189,-0.007 0.18436,-0.01335c0.07247,-0.0046 0.14933,-0.0092 0.19662,-0.01291c0.01313,0 0.01533,-0.00438 0.03065,-0.00438h1.15823c0.54956,0 1.00278,0.44884 1.00278,1.00278v1.58956c0.00219,0.55394 -0.45103,1.00278 -1.00278,1.00278h-1.15167l-0.69187,0.01971c-3.3499,-0.26931 -5.9948,-3.04118 -5.9948,-6.46115c0,-2.39967 1.31149,-4.47091 3.24262,-5.60288c-1.93112,-1.13196 -3.24262,-3.20321 -3.24262,-5.60288c0,-2.37777 1.2896,-4.4315 3.19226,-5.57003c-1.44287,-0.85608 -2.5179,-2.23984 -2.9558,-3.90165c0,-0.00219 -0.00219,-0.00438 -0.00219,-0.00657c-0.06131,-0.22771 -0.10947,-0.4576 -0.14451,-0.69626c-0.03941,-0.23428 -0.05912,-0.47512 -0.07006,-0.71815c-0.00219,-0.07444 -0.0219,-0.14451 -0.0219,-0.21895c0,-0.01533 0.00438,-0.03065 0.00438,-0.04598c-0.00219,-0.01533 -0.00438,-0.02846 -0.00438,-0.04379h0.00657c0.03284,-2.36026 1.32901,-4.39428 3.23605,-5.51311c-1.93112,-1.13196 -3.24262,-3.20321 -3.24262,-5.60288c0,-2.39967 1.31149,-4.47091 3.24262,-5.60288c-1.93112,-1.13196 -3.24262,-3.20539 -3.24262,-5.60288c0,-1.04657 0.26931,-2.01651 0.70939,-2.88792h-1.87857v0.01751c0,0 -1.10131,-0.00876 -1.19764,-0.00876c-1.53044,0.12699 -2.6843,1.36185 -2.6843,2.87916c0,1.02905 0.54737,1.96396 1.46476,2.50039c1.10131,0.6459 1.77785,1.82603 1.77785,3.10249c0,1.27646 -0.67655,2.45659 -1.77785,3.10249c-0.91739,0.53642 -1.46476,1.47133 -1.46476,2.50039c0,1.02905 0.54737,1.96396 1.46476,2.50039c1.10131,0.64371 1.77785,1.82384 1.77785,3.10031c0,1.27646 -0.67436,2.45659 -1.77567,3.10249c-0.90426,0.52985 -1.44505,1.44725 -1.46038,2.45659c0.01533,1.00935 0.55613,1.92455 1.45819,2.45441c1.10131,0.6459 1.77785,1.82603 1.77785,3.10249c0,1.27646 -0.67655,2.45659 -1.77785,3.10249c-0.91739,0.53642 -1.46476,1.47133 -1.46476,2.50039c0,1.02905 0.54737,1.96396 1.46476,2.50039c1.10131,0.64371 1.77785,1.82384 1.77785,3.10031c0,1.27646 -0.67436,2.45659 -1.77567,3.10249c-0.91958,0.53642 -1.46695,1.47133 -1.46695,2.50039c0,1.51293 1.14948,2.74561 2.67554,2.87698c-0.0116,-0.00131 0.08189,-0.007 0.18436,-0.01335c0.07247,-0.0046 0.14933,-0.0092 0.19662,-0.01291c0.01313,0 0.01533,-0.00438 0.03065,-0.00438h1.15823c0.54956,0 1.00278,0.44884 1.00278,1.00278v1.58956c0.00219,0.55394 -0.45323,1.00278 -1.00278,1.00278h-1.15167l-0.69187,0.01971c-3.35209,-0.26931 -5.9948,-3.04118 -5.9948,-6.46115c0,-2.39967 1.30931,-4.47091 3.24043,-5.60288c-1.92893,-1.13196 -3.24043,-3.20321 -3.24043,-5.60288c0,-2.37777 1.2896,-4.4315 3.19226,-5.57003c-1.44505,-0.85608 -2.5179,-2.23984 -2.9558,-3.90165c0,-0.00219 -0.00219,-0.00438 -0.00219,-0.00657c-0.06131,-0.22771 -0.10947,-0.4576 -0.14451,-0.69626c-0.03941,-0.23428 -0.05912,-0.47512 -0.07006,-0.71815c-0.00219,-0.07444 -0.0219,-0.14451 -0.0219,-0.21895c0,-0.01533 0.00438,-0.03065 0.00438,-0.04598c-0.00219,-0.01533 -0.00438,-0.02846 -0.00438,-0.04379h0.00657c0.03503,-2.36026 1.3312,-4.39428 3.23605,-5.51311c-1.92893,-1.13196 -3.24043,-3.20321 -3.24043,-5.60288c0,-2.39967 1.30931,-4.47091 3.24043,-5.60288c-1.92893,-1.13196 -3.24043,-3.20539 -3.24043,-5.60288c0,-1.04657 0.27149,-2.01651 0.71158,-2.88792h-1.88077v0.01751c0,0 -1.10131,-0.00876 -1.19764,-0.00876c-1.53044,0.12699 -2.6843,1.36185 -2.6843,2.87916c0,1.02905 0.54737,1.96396 1.46476,2.50039c1.10131,0.6459 1.77785,1.82603 1.77785,3.10249c0,1.27646 -0.67655,2.45659 -1.77785,3.10249c-0.91739,0.53642 -1.46476,1.47133 -1.46476,2.50039c0,1.02905 0.54737,1.96396 1.46476,2.50039c1.10131,0.64371 1.77785,1.82384 1.77785,3.10031c0,1.27646 -0.67436,2.45659 -1.77567,3.10249c-0.90644,0.52985 -1.44505,1.44725 -1.46038,2.45659c0.01533,1.00935 0.55394,1.92455 1.45819,2.45441c1.10131,0.6459 1.77785,1.82603 1.77785,3.10249c0,1.27646 -0.67655,2.45659 -1.77785,3.10249c-0.91739,0.53642 -1.46476,1.47133 -1.46476,2.50039c0,1.02905 0.54737,1.96396 1.46476,2.50039c1.10131,0.64371 1.77785,1.82384 1.77785,3.10031c0,1.27646 -0.67436,2.45659 -1.77567,3.10249c-0.91958,0.53642 -1.46695,1.47133 -1.46695,2.50039c0,1.51293 1.14948,2.74561 2.67554,2.87698c-0.0116,-0.00131 0.08189,-0.007 0.18414,-0.01335c0.07269,-0.0046 0.14955,-0.0092 0.19683,-0.01291c0.01313,0 0.01533,-0.00438 0.03065,-0.00438h1.15823c0.55175,0 1.00278,0.44884 1.00278,1.00278v1.58956c0.00219,0.55394 -0.45323,1.00278 -1.00278,1.00278h-1.15385l-0.69187,0.01971c-3.3499,-0.26931 -5.9948,-3.04118 -5.9948,-6.46115c0,-2.39967 1.31149,-4.47091 3.24262,-5.60288c-1.93112,-1.13196 -3.24262,-3.20321 -3.24262,-5.60288c0,-2.37777 1.2896,-4.4315 3.19226,-5.57003c-1.44287,-0.85608 -2.5179,-2.23984 -2.9558,-3.90165c0,-0.00219 -0.00219,-0.00438 -0.00219,-0.00657c-0.06131,-0.22771 -0.10947,-0.4576 -0.14451,-0.69626c-0.03941,-0.23428 -0.05912,-0.47512 -0.07006,-0.71815c-0.00219,-0.07444 -0.0219,-0.14451 -0.0219,-0.21895c0,-0.01533 0.00438,-0.03065 0.00438,-0.04598c-0.00219,-0.01533 -0.00438,-0.02846 -0.00438,-0.04379h0.00657c0.03284,-2.36026 1.32901,-4.39428 3.23605,-5.51311c-1.93112,-1.13196 -3.24262,-3.20321 -3.24262,-5.60288c0,-2.39967 1.31149,-4.47091 3.24262,-5.60288c-1.93112,-1.13196 -3.24262,-3.20539 -3.24262,-5.60288c0,-1.07503 0.28464,-2.07125 0.74661,-2.96018zM273.24402,193.83021h85.43564c0.54956,0 1.00278,0.44884 1.00059,1.00497v4.5147c0,0.55394 -0.45323,1.00278 -1.00278,1.00278h-5.0161c-0.84076,0.38972 -2.02526,1.07723 -3.40026,2.33618c-2.91639,2.67773 -6.70637,7.92153 -9.198,18.36097c-2.66678,11.14226 -6.02106,18.5602 -10.73939,23.39677c-4.67016,4.80809 -10.64743,6.55749 -17.02538,6.55749h-20.60956c-0.84952,0.14231 -1.65744,0.21676 -2.39967,0.21676h-62.02573c-5.25256,0.01095 -13.65796,-3.28203 -19.32433,-13.80904c-3.08716,-5.88313 -9.20019,-7.90621 -12.18226,-8.52801h-5.4321c-0.55394,0 -1.00497,-0.44884 -1.00497,-1.00278v-4.5147c0,-0.55175 0.45103,-1.00059 1.00497,-1.00059h15.25629c1.167,-3.09592 3.06527,-5.65104 5.6598,-7.40044c2.90106,-1.97491 6.42393,-2.92295 10.43506,-3.1638c0.68749,-4.51033 2.43251,-8.22149 5.40801,-10.82478c3.56228,-3.11344 8.38789,-4.31108 13.99296,-4.3067h0.3941c1.06408,0 2.09095,0.0416 3.08716,0.13136c3.32362,-2.10408 7.4508,-2.93828 12.15379,-2.93828h0.3963c4.16439,0 7.84271,0.64808 10.96272,2.25736c2.54418,1.29836 4.63075,3.29516 6.08018,5.80431c3.97828,0.19705 7.48145,1.07503 10.39565,2.9339c2.61424,1.65525 4.58257,4.11184 5.82182,7.10924c1.26114,-0.15546 2.58139,-0.23208 3.96295,-0.23208h0.3963c4.76431,0.00219 8.92212,0.84952 12.28735,3.02148c2.73685,1.74939 4.74022,4.39209 5.951,7.60624h13.23978c0.55175,0 1.00278,0.45103 1.00278,1.00059v4.5147c0,0.55394 -0.45323,1.00278 -1.00278,1.00278h-5.42772c-0.9568,0.19487 -2.23326,0.53205 -3.62577,1.09912c-3.00616,1.22392 -6.40203,3.40464 -8.56742,7.4289c-1.68371,3.12439 -3.60826,5.59849 -5.61821,7.55151h9.09509c5.5766,-0.0416 9.45417,-1.23924 12.94858,-4.7446c3.50536,-3.53601 6.65601,-9.93585 9.17611,-20.56577c2.23546,-9.39724 5.61382,-15.44677 8.9484,-19.29807h-58.58825c-0.49701,-0.18172 -1.02249,-0.33499 -1.5611,-0.47512c-0.20143,-0.05254 -0.41382,-0.09634 -0.62182,-0.14231c-0.35688,-0.07882 -0.72034,-0.15326 -1.09474,-0.21676c-0.23646,-0.0416 -0.47731,-0.07882 -0.72253,-0.11166c-0.3963,-0.05254 -0.80572,-0.09634 -1.22173,-0.13356c-0.21895,-0.01971 -0.43352,-0.0416 -0.65903,-0.05693c-0.64808,-0.0416 -1.31369,-0.06787 -2.00556,-0.06787h-0.07882c-0.24523,-0.57364 -0.5189,-1.11007 -0.82324,-1.61364c-0.0416,-0.07006 -0.09195,-0.12699 -0.13575,-0.19267c-0.26931,-0.42913 -0.55175,-0.84513 -0.86265,-1.22392c-0.05693,-0.07006 -0.1248,-0.12699 -0.18172,-0.19487c-0.3131,-0.36346 -0.63495,-0.71377 -0.98746,-1.03344c-0.06569,-0.05912 -0.14231,-0.10728 -0.208,-0.1664c-0.36346,-0.31528 -0.73567,-0.61962 -1.13853,-0.89331zM224.83684,217.77216c-4.19942,-0.00219 -7.19462,0.80135 -9.18924,2.17196c-0.92615,0.64371 -1.70341,1.42535 -2.34712,2.41718h93.97242c-0.68749,-1.05533 -1.52607,-1.86762 -2.53761,-2.5398c-1.99023,-1.29398 -4.93727,-2.05154 -9.00532,-2.04716h-0.3963c-2.03621,0 -3.79875,0.19487 -5.31386,0.55613c-1.6027,0.38097 -3.21634,-0.59335 -3.62359,-2.18948c-0.81887,-3.10687 -2.13474,-4.911 -4.10746,-6.2006c-1.97929,-1.28085 -4.911,-2.02746 -8.93964,-2.02308h-0.08101c-1.21297,0 -2.30114,-0.72034 -2.77626,-1.83478c-0.96994,-2.21137 -2.25736,-3.57761 -4.19504,-4.60228c-1.9355,-1.00935 -4.64608,-1.58737 -8.18646,-1.583h-0.3963c-4.4534,0 -7.53619,0.89769 -9.54175,2.43032c-0.63495,0.47949 -1.43192,0.69187 -2.22232,0.58678c-1.05533,-0.14013 -2.21356,-0.21238 -3.4747,-0.21238h-0.3941c-4.81685,0.00438 -8.00693,1.03782 -10.01248,2.8091c-2.00337,1.76253 -3.34114,4.58696 -3.65424,9.43008c-0.09853,1.59175 -1.41878,2.83537 -3.01272,2.83537c-0.11823,0 -0.19267,-0.00438 -0.21895,-0.00438zM259.66268,200.89128c0.24303,-0.24303 0.64152,-0.24084 0.88236,0.00219l5.951,5.951c0.24303,0.24303 0.24303,0.63933 0.00219,0.88236l-1.99462,1.99243c-0.24523,0.24303 -0.64152,0.24303 -0.88455,-0.00219l-5.951,-5.94881c-0.24084,-0.24303 -0.24303,-0.64152 0,-0.88455zM243.10584,207.03277h8.41416c0.34594,0 0.62838,0.27806 0.62838,0.624v2.81567c0,0.34594 -0.28244,0.62619 -0.62838,0.62619h-8.41416c-0.34156,0 -0.624,-0.28025 -0.624,-0.624v-2.81785c0,-0.34375 0.28244,-0.624 0.624,-0.624zM235.27408,207.93045h2.81785c0.34594,0 0.62619,0.28244 0.62619,0.62838v8.41416c0,0.34375 -0.28025,0.624 -0.624,0.624h-2.81785c-0.34375,0 -0.624,-0.28025 -0.624,-0.624v-8.41416c-0.00219,-0.34594 0.28025,-0.62838 0.62182,-0.62838zM258.34899,209.36894c0.24303,-0.24303 0.63933,-0.24523 0.88236,-0.00219l1.99243,1.99243c0.24303,0.24303 0.24303,0.64152 -0.00219,0.88455l-5.94881,5.94881c-0.24303,0.24303 -0.63933,0.24523 -0.88455,0l-1.99023,-1.99243c-0.24523,-0.24303 -0.24084,-0.63933 0,-0.88236zM272.44267,214.02377h8.41416c0.34375,0 0.624,0.27806 0.624,0.624v2.81785c0,0.34375 -0.28025,0.624 -0.624,0.624h-8.41416c-0.34594,0 -0.62838,-0.28025 -0.62838,-0.62619v-2.81785c0,-0.34156 0.28244,-0.62182 0.62838,-0.62182zM228.26337,245.17786h61.99945c2.89668,-0.01313 9.30529,-1.90703 14.00171,-10.6343c1.27866,-2.31209 2.81348,-4.1622 4.44464,-5.66418h-98.88342c-0.00219,0.00219 -0.00657,0.00438 -0.01095,0.00657c1.62897,1.50198 3.1638,3.3499 4.44026,5.6598c4.703,8.72507 11.10942,10.62116 14.00828,10.63211z" data-paper-data="{&quot;isPathIcon&quot;:true}" id="element-id-79985"/></g></g></g></svg>