<svg xmlns:mydata="http://www.w3.org/2000/svg" mydata:contrastcolor="ffffff" mydata:template="Contrast" mydata:presentation="2.5" mydata:layouttype="undefined" mydata:specialfontid="undefined" mydata:id1="1021" mydata:id2="220" mydata:companyname="Snooze Eatery" mydata:companytagline="Feeling hungry? We Got You" version="1.1" xmlns="http://www.w3.org/2000/svg" xmlns:xlink="http://www.w3.org/1999/xlink" style="height: 463px;" viewBox="0 0 550 470"><g fill="#222223" fill-rule="none" stroke="none" stroke-width="1" stroke-linecap="butt" stroke-linejoin="miter" stroke-miterlimit="10" stroke-dasharray="" stroke-dashoffset="0" font-family="none" font-weight="none" font-size="none" text-anchor="none" style="mix-blend-mode: normal"><g data-paper-data="{&quot;isGlobalGroup&quot;:true,&quot;bounds&quot;:{&quot;x&quot;:103.2246222007899,&quot;y&quot;:115,&quot;width&quot;:343.5507555984202,&quot;height&quot;:240}}"><g data-paper-data="{&quot;textHeightFactor&quot;:0.27453600231336306,&quot;isSecondaryText&quot;:true}" fill-rule="nonzero" id="element-id-54750"><path d="M156.30873,343.18064h-2.54954c-0.14105,0 -0.25213,0.03526 -0.33324,0.10579c-0.08111,0.07053 -0.12166,0.16221 -0.12166,0.27505v0.8569h2.61301v1.52338h-2.61301v2.8246h-2.29564v-5.68093c0,-0.49369 0.16221,-0.89393 0.48663,-1.20072c0.32442,-0.30679 0.74053,-0.46019 1.24832,-0.46019c1.77727,0 3.00091,0.04937 3.67092,0.14811z" data-paper-data="{&quot;glyphName&quot;:&quot;F&quot;,&quot;glyphIndex&quot;:0,&quot;firstGlyphOfWord&quot;:true,&quot;word&quot;:1}" id="element-id-47899"></path><path d="M164.72564,347.05256l0.10579,1.61859c-0.70527,0.09168 -1.97122,0.13753 -3.79786,0.13753c-0.50074,0 -0.91156,-0.1534 -1.23245,-0.46019c-0.3209,-0.30679 -0.48134,-0.70703 -0.48134,-1.20072v-4.06234c0,-0.49369 0.16045,-0.89393 0.48134,-1.20072c0.3209,-0.30679 0.73171,-0.46019 1.23245,-0.46019c1.82664,0 3.0926,0.04584 3.79786,0.13753l-0.10579,1.61859h-2.67649c-0.134,0 -0.23979,0.03526 -0.31737,0.10579c-0.07758,0.07053 -0.11637,0.16221 -0.11637,0.27505v0.70879h2.72938v1.52338h-2.72938v0.87806c0,0.11284 0.03879,0.20453 0.11637,0.27505c0.07758,0.07053 0.18337,0.10579 0.31737,0.10579z" data-paper-data="{&quot;glyphName&quot;:&quot;E&quot;,&quot;glyphIndex&quot;:1,&quot;word&quot;:1}" id="element-id-71789"></path><path d="M173.30293,347.05256l0.10579,1.61859c-0.70527,0.09168 -1.97122,0.13753 -3.79786,0.13753c-0.50074,0 -0.91156,-0.1534 -1.23245,-0.46019c-0.3209,-0.30679 -0.48134,-0.70703 -0.48134,-1.20072v-4.06234c0,-0.49369 0.16045,-0.89393 0.48134,-1.20072c0.3209,-0.30679 0.73171,-0.46019 1.23245,-0.46019c1.82664,0 3.0926,0.04584 3.79786,0.13753l-0.10579,1.61859h-2.67649c-0.134,0 -0.23979,0.03526 -0.31737,0.10579c-0.07758,0.07053 -0.11637,0.16221 -0.11637,0.27505v0.70879h2.72938v1.52338h-2.72938v0.87806c0,0.11284 0.03879,0.20453 0.11637,0.27505c0.07758,0.07053 0.18337,0.10579 0.31737,0.10579z" data-paper-data="{&quot;glyphName&quot;:&quot;E&quot;,&quot;glyphIndex&quot;:2,&quot;word&quot;:1}" id="element-id-62788"></path><path d="M178.80113,341.46684v5.09908c0,0.11284 0.04055,0.20453 0.12166,0.27505c0.08111,0.07053 0.18866,0.10579 0.32266,0.10579h2.45433l0.10579,1.7138c-0.72643,0.09874 -1.9148,0.14811 -3.56513,0.14811c-0.5219,0 -0.94153,-0.1534 -1.2589,-0.46019c-0.31737,-0.30679 -0.47606,-0.70703 -0.47606,-1.20072v-5.68093z" data-paper-data="{&quot;glyphName&quot;:&quot;L&quot;,&quot;glyphIndex&quot;:3,&quot;word&quot;:1}" id="element-id-7759"></path><path d="M186.96123,348.76636h-2.27449v-7.29952h2.27449z" data-paper-data="{&quot;glyphName&quot;:&quot;I&quot;,&quot;glyphIndex&quot;:4,&quot;word&quot;:1}" id="element-id-98533"></path><path d="M197.0563,341.46684v6.50609c0,0.52895 -0.26448,0.79343 -0.79343,0.79343h-0.87806c-0.21863,0 -0.38613,-0.04937 -0.5025,-0.14811c-0.11637,-0.09874 -0.24508,-0.27153 -0.38613,-0.51837l-1.58685,-2.50722c-0.17632,-0.31737 -0.33853,-0.73348 -0.48663,-1.24832h-0.07405c0.07053,0.49369 0.10579,0.93801 0.10579,1.33296v3.08907h-2.1158v-6.50609c0,-0.52895 0.26448,-0.79343 0.79343,-0.79343h0.87806c0.21863,0 0.38437,0.04937 0.49721,0.14811c0.11284,0.09874 0.24332,0.27153 0.39142,0.51837l1.52338,2.39086c0.19042,0.33853 0.37732,0.75464 0.56069,1.24832h0.07405c-0.06347,-0.5219 -0.09874,-0.96269 -0.10579,-1.32238v-2.98328z" data-paper-data="{&quot;glyphName&quot;:&quot;N&quot;,&quot;glyphIndex&quot;:5,&quot;word&quot;:1}" id="element-id-40599"></path><path d="M206.5522,344.56649v4.19987h-1.69264l-0.201,-0.75111c-0.19747,0.24684 -0.47077,0.45842 -0.81987,0.63474c-0.34911,0.17632 -0.74935,0.26448 -1.20072,0.26448c-0.85337,0 -1.47048,-0.29092 -1.85133,-0.87277c-0.38084,-0.58185 -0.57127,-1.55688 -0.57127,-2.9251c0,-1.39643 0.25742,-2.37851 0.77227,-2.94625c0.51485,-0.56774 1.40348,-0.85161 2.66591,-0.85161c1.01558,0 1.87954,0.10226 2.59186,0.30679l-0.16926,1.65033c-1.07201,-0.01411 -1.87601,-0.02116 -2.41201,-0.02116c-0.40905,0 -0.68411,0.12342 -0.82516,0.37027c-0.14105,0.24684 -0.21158,0.74406 -0.21158,1.49164c0,0.73348 0.06347,1.22364 0.19042,1.47048c0.12695,0.24684 0.37379,0.37027 0.74053,0.37027c0.24684,0 0.51132,-0.02116 0.79343,-0.06347v-2.32738z" data-paper-data="{&quot;glyphName&quot;:&quot;G&quot;,&quot;glyphIndex&quot;:6,&quot;lastGlyphOfWord&quot;:true,&quot;word&quot;:1}" id="element-id-83408"></path><path d="M220.67787,341.46684v7.29952h-2.29564v-3.06791h-1.84075v3.06791h-2.29564v-7.29952h2.29564v2.62359h1.84075v-2.62359z" data-paper-data="{&quot;glyphName&quot;:&quot;H&quot;,&quot;glyphIndex&quot;:7,&quot;firstGlyphOfWord&quot;:true,&quot;word&quot;:2}" id="element-id-75755"></path><path d="M230.48137,341.46684v4.2845c0,1.16369 -0.23274,1.9818 -0.69821,2.45433c-0.46548,0.47253 -1.26948,0.70879 -2.41201,0.70879c-1.23422,0 -2.1017,-0.23626 -2.60244,-0.70879c-0.50074,-0.47253 -0.75111,-1.29064 -0.75111,-2.45433v-4.2845h2.29564v4.2845c0,0.58537 0.06347,0.97503 0.19042,1.16898c0.12695,0.19395 0.37732,0.29092 0.75111,0.29092c0.36674,0 0.61358,-0.09697 0.74053,-0.29092c0.12695,-0.19395 0.19042,-0.58361 0.19042,-1.16898v-4.2845z" data-paper-data="{&quot;glyphName&quot;:&quot;U&quot;,&quot;glyphIndex&quot;:8,&quot;word&quot;:2}" id="element-id-31522"></path><path d="M240.52925,341.46684v6.50609c0,0.52895 -0.26448,0.79343 -0.79343,0.79343h-0.87806c-0.21863,0 -0.38613,-0.04937 -0.5025,-0.14811c-0.11637,-0.09874 -0.24508,-0.27153 -0.38613,-0.51837l-1.58685,-2.50722c-0.17632,-0.31737 -0.33853,-0.73348 -0.48663,-1.24832h-0.07405c0.07053,0.49369 0.10579,0.93801 0.10579,1.33296v3.08907h-2.1158v-6.50609c0,-0.52895 0.26448,-0.79343 0.79343,-0.79343h0.87806c0.21863,0 0.38437,0.04937 0.49721,0.14811c0.11284,0.09874 0.24332,0.27153 0.39142,0.51837l1.52338,2.39086c0.19042,0.33853 0.37732,0.75464 0.56069,1.24832h0.07405c-0.06347,-0.5219 -0.09874,-0.96269 -0.10579,-1.32238v-2.98328z" data-paper-data="{&quot;glyphName&quot;:&quot;N&quot;,&quot;glyphIndex&quot;:9,&quot;word&quot;:2}" id="element-id-43502"></path><path d="M250.02516,344.56649v4.19987h-1.69264l-0.201,-0.75111c-0.19747,0.24684 -0.47077,0.45842 -0.81987,0.63474c-0.34911,0.17632 -0.74935,0.26448 -1.20072,0.26448c-0.85337,0 -1.47048,-0.29092 -1.85133,-0.87277c-0.38084,-0.58185 -0.57127,-1.55688 -0.57127,-2.9251c0,-1.39643 0.25742,-2.37851 0.77227,-2.94625c0.51485,-0.56774 1.40348,-0.85161 2.66591,-0.85161c1.01558,0 1.87954,0.10226 2.59186,0.30679l-0.16926,1.65033c-1.07201,-0.01411 -1.87601,-0.02116 -2.41201,-0.02116c-0.40905,0 -0.68411,0.12342 -0.82516,0.37027c-0.14105,0.24684 -0.21158,0.74406 -0.21158,1.49164c0,0.73348 0.06347,1.22364 0.19042,1.47048c0.12695,0.24684 0.37379,0.37027 0.74053,0.37027c0.24684,0 0.51132,-0.02116 0.79343,-0.06347v-2.32738z" data-paper-data="{&quot;glyphName&quot;:&quot;G&quot;,&quot;glyphIndex&quot;:10,&quot;word&quot;:2}" id="element-id-81750"></path><path d="M259.71098,348.76636h-2.40143l-0.47606,-2.1687c-0.04232,-0.19747 -0.10755,-0.32971 -0.19571,-0.39671c-0.08816,-0.067 -0.23098,-0.1005 -0.42845,-0.1005h-0.70879v2.66591h-2.25333v-7.29952c0.71937,-0.07053 1.75259,-0.10579 3.09965,-0.10579c1.10022,0 1.88835,0.16221 2.36441,0.48663c0.47606,0.32442 0.71408,0.90274 0.71408,1.73496c0,1.0579 -0.49369,1.63622 -1.48106,1.73496v0.06347c0.66295,0.08463 1.06143,0.46548 1.19543,1.14253zM255.50054,344.48186h0.79343c0.33148,0 0.55187,-0.04937 0.66119,-0.14811c0.10932,-0.09874 0.16397,-0.29974 0.16397,-0.603c0,-0.30326 -0.05466,-0.50427 -0.16397,-0.603c-0.10932,-0.09874 -0.32971,-0.14811 -0.66119,-0.14811h-0.79343z" data-paper-data="{&quot;glyphName&quot;:&quot;R&quot;,&quot;glyphIndex&quot;:11,&quot;word&quot;:2}" id="element-id-86281"></path><path d="M266.49209,346.49187v2.27449h-2.29564v-2.25333l-2.42259,-5.04619h2.35912l0.92037,2.29564c0.06347,0.15516 0.13753,0.49721 0.22216,1.02616h0.13753c0.08463,-0.51485 0.15869,-0.86043 0.22216,-1.03674l0.90979,-2.28507h2.35912z" data-paper-data="{&quot;glyphName&quot;:&quot;Y&quot;,&quot;glyphIndex&quot;:12,&quot;word&quot;:2}" id="element-id-51074"></path><path d="M271.47332,342.99022l-0.0529,-1.4599c0.05642,-0.01411 0.18866,-0.04055 0.39671,-0.07934c0.20805,-0.03879 0.34029,-0.06347 0.39671,-0.07405c0.05642,-0.01058 0.17455,-0.02997 0.3544,-0.05818c0.17984,-0.02821 0.33324,-0.04584 0.46019,-0.0529c0.12695,-0.00705 0.29445,-0.01411 0.5025,-0.02116c0.20805,-0.00705 0.4355,-0.01058 0.68235,-0.01058c0.81811,0 1.42288,0.134 1.8143,0.402c0.39142,0.268 0.58713,0.68058 0.58713,1.23774c0,0.28211 -0.05995,0.54129 -0.17984,0.77756c-0.1199,0.23626 -0.26624,0.44432 -0.43903,0.62416c-0.17279,0.17984 -0.35087,0.36145 -0.53424,0.54482c-0.18337,0.18337 -0.34911,0.40729 -0.49721,0.67177c-0.14811,0.26448 -0.23979,0.5554 -0.27505,0.87277h-1.73496c-0.02116,-0.402 0.02821,-0.78285 0.14811,-1.14253c0.1199,-0.35969 0.26095,-0.64179 0.42316,-0.84632c0.16221,-0.20453 0.31913,-0.40377 0.47077,-0.59771c0.15163,-0.19395 0.23803,-0.34029 0.25919,-0.43903c0.02821,-0.134 -0.00176,-0.22569 -0.08992,-0.27505c-0.08816,-0.04937 -0.25566,-0.07405 -0.5025,-0.07405zM273.56796,346.80924h0.49721c0.28916,0 0.4884,0.05466 0.59771,0.16397c0.10932,0.10932 0.16397,0.30855 0.16397,0.59771v0.43374c0,0.28916 -0.05466,0.4884 -0.16397,0.59771c-0.10932,0.10932 -0.30855,0.16397 -0.59771,0.16397h-0.49721c-0.28916,0 -0.4884,-0.05466 -0.59771,-0.16397c-0.10932,-0.10932 -0.16397,-0.30855 -0.16397,-0.59771v-0.43374c0,-0.28916 0.05466,-0.4884 0.16397,-0.59771c0.10932,-0.10932 0.30855,-0.16397 0.59771,-0.16397z" data-paper-data="{&quot;glyphName&quot;:&quot;?&quot;,&quot;glyphIndex&quot;:13,&quot;lastGlyphOfWord&quot;:true,&quot;word&quot;:2}" id="element-id-37987"></path><path d="M293.98388,341.46684l-0.90979,6.68593c-0.02821,0.18337 -0.11637,0.33148 -0.26448,0.44432c-0.14811,0.11284 -0.3209,0.16926 -0.51837,0.16926h-1.94654c-0.19747,0 -0.37203,-0.05642 -0.52366,-0.16926c-0.15163,-0.11284 -0.23803,-0.26095 -0.25919,-0.44432l-0.49721,-4.0306c-0.02821,-0.21863 -0.05642,-0.57479 -0.08463,-1.06848h-0.17984c-0.02821,0.49369 -0.05642,0.85337 -0.08463,1.07906l-0.48663,4.02002c-0.02116,0.18337 -0.10755,0.33148 -0.25919,0.44432c-0.15163,0.11284 -0.32619,0.16926 -0.52366,0.16926h-1.95712c-0.19747,0 -0.37027,-0.05642 -0.51837,-0.16926c-0.14811,-0.11284 -0.23626,-0.26095 -0.26448,-0.44432l-0.90979,-6.68593h2.26391l0.37027,4.47492c0.02821,0.47958 0.04232,0.88511 0.04232,1.21659h0.16926c0.09874,-0.69116 0.15516,-1.10022 0.16926,-1.22716l0.48663,-3.78728c0.02116,-0.19747 0.10403,-0.35969 0.24861,-0.48663c0.14458,-0.12695 0.31913,-0.19042 0.52366,-0.19042h1.63975c0.20453,0 0.37732,0.06171 0.51837,0.18513c0.14105,0.12342 0.22569,0.2874 0.2539,0.49192l0.49721,3.80844c0.02116,0.21158 0.07405,0.61358 0.15869,1.20601h0.16926c0,-0.19747 0.01763,-0.59595 0.0529,-1.19543l0.35969,-4.49608z" data-paper-data="{&quot;glyphName&quot;:&quot;W&quot;,&quot;glyphIndex&quot;:14,&quot;firstGlyphOfWord&quot;:true,&quot;word&quot;:3}" id="element-id-23530"></path><path d="M302.38882,347.05256l0.10579,1.61859c-0.70527,0.09168 -1.97122,0.13753 -3.79786,0.13753c-0.50074,0 -0.91156,-0.1534 -1.23245,-0.46019c-0.3209,-0.30679 -0.48134,-0.70703 -0.48134,-1.20072v-4.06234c0,-0.49369 0.16045,-0.89393 0.48134,-1.20072c0.3209,-0.30679 0.73171,-0.46019 1.23245,-0.46019c1.82664,0 3.0926,0.04584 3.79786,0.13753l-0.10579,1.61859h-2.67649c-0.134,0 -0.23979,0.03526 -0.31737,0.10579c-0.07758,0.07053 -0.11637,0.16221 -0.11637,0.27505v0.70879h2.72938v1.52338h-2.72938v0.87806c0,0.11284 0.03879,0.20453 0.11637,0.27505c0.07758,0.07053 0.18337,0.10579 0.31737,0.10579z" data-paper-data="{&quot;glyphName&quot;:&quot;E&quot;,&quot;glyphIndex&quot;:15,&quot;lastGlyphOfWord&quot;:true,&quot;word&quot;:3}" id="element-id-48876"></path><path d="M316.20145,344.56649v4.19987h-1.69264l-0.201,-0.75111c-0.19747,0.24684 -0.47077,0.45842 -0.81987,0.63474c-0.34911,0.17632 -0.74935,0.26448 -1.20072,0.26448c-0.85337,0 -1.47048,-0.29092 -1.85133,-0.87277c-0.38084,-0.58185 -0.57127,-1.55688 -0.57127,-2.9251c0,-1.39643 0.25742,-2.37851 0.77227,-2.94625c0.51485,-0.56774 1.40348,-0.85161 2.66591,-0.85161c1.01558,0 1.87954,0.10226 2.59186,0.30679l-0.16926,1.65033c-1.07201,-0.01411 -1.87601,-0.02116 -2.41201,-0.02116c-0.40905,0 -0.68411,0.12342 -0.82516,0.37027c-0.14105,0.24684 -0.21158,0.74406 -0.21158,1.49164c0,0.73348 0.06347,1.22364 0.19042,1.47048c0.12695,0.24684 0.37379,0.37027 0.74053,0.37027c0.24684,0 0.51132,-0.02116 0.79343,-0.06347v-2.32738z" data-paper-data="{&quot;glyphName&quot;:&quot;G&quot;,&quot;glyphIndex&quot;:16,&quot;firstGlyphOfWord&quot;:true,&quot;word&quot;:4}" id="element-id-56064"></path><path d="M322.60744,341.31874c0.86748,0 1.53925,0.10755 2.0153,0.32266c0.47606,0.21511 0.82693,0.59595 1.05261,1.14253c0.22569,0.54658 0.33853,1.32414 0.33853,2.33267c0,1.00853 -0.11284,1.78609 -0.33853,2.33267c-0.22569,0.54658 -0.57656,0.92743 -1.05261,1.14253c-0.47606,0.21511 -1.14782,0.32266 -2.0153,0.32266c-0.86043,0 -1.52867,-0.10755 -2.00472,-0.32266c-0.47606,-0.21511 -0.82693,-0.59595 -1.05261,-1.14253c-0.22569,-0.54658 -0.33853,-1.32414 -0.33853,-2.33267c0,-1.00853 0.11284,-1.78609 0.33853,-2.33267c0.22569,-0.54658 0.57656,-0.92743 1.05261,-1.14253c0.47606,-0.21511 1.1443,-0.32266 2.00472,-0.32266zM323.39558,343.43983c0,0 -0.03262,-0.06965 -0.09786,-0.20894c-0.06524,-0.13929 -0.29533,-0.20894 -0.69028,-0.20894c-0.39495,0 -0.65766,0.13929 -0.78814,0.41787c-0.13047,0.27858 -0.19571,0.8375 -0.19571,1.67677c0,0.83927 0.06524,1.39819 0.19571,1.67677c0.13047,0.27858 0.39319,0.41787 0.78814,0.41787c0.39495,0 0.65766,-0.13929 0.78814,-0.41787c0.13047,-0.27858 0.19571,-0.8375 0.19571,-1.67677c0,-0.83927 -0.06524,-1.39819 -0.19571,-1.67677z" data-paper-data="{&quot;glyphName&quot;:&quot;O&quot;,&quot;glyphIndex&quot;:17,&quot;word&quot;:4}" id="element-id-6743"></path><path d="M335.06208,343.18064h-2.04175v5.58572h-2.29564v-5.58572h-2.04175v-1.7138h6.37914z" data-paper-data="{&quot;glyphName&quot;:&quot;T&quot;,&quot;glyphIndex&quot;:18,&quot;lastGlyphOfWord&quot;:true,&quot;word&quot;:4}" id="element-id-19611"></path><path d="M357.4996,346.44956v2.27449h-2.29564v-2.25333l-2.42259,-5.04619h2.35912l0.92037,2.29564c0.06347,0.15516 0.13753,0.49721 0.22216,1.02616h0.13753c0.08463,-0.51485 0.15869,-0.86043 0.22216,-1.03674l0.90979,-2.28507h2.35912z" data-paper-data="{&quot;glyphName&quot;:&quot;Y&quot;,&quot;glyphIndex&quot;:19,&quot;firstGlyphOfWord&quot;:true,&quot;word&quot;:5}" id="element-id-60851"></path><path d="M365.54232,341.27642c0.86748,0 1.53925,0.10755 2.0153,0.32266c0.47606,0.21511 0.82693,0.59595 1.05261,1.14253c0.22569,0.54658 0.33853,1.32414 0.33853,2.33267c0,1.00853 -0.11284,1.78609 -0.33853,2.33267c-0.22569,0.54658 -0.57656,0.92743 -1.05261,1.14253c-0.47606,0.21511 -1.14782,0.32266 -2.0153,0.32266c-0.86043,0 -1.52867,-0.10755 -2.00472,-0.32266c-0.47606,-0.21511 -0.82693,-0.59595 -1.05261,-1.14253c-0.22569,-0.54658 -0.33853,-1.32414 -0.33853,-2.33267c0,-1.00853 0.11284,-1.78609 0.33853,-2.33267c0.22569,-0.54658 0.57656,-0.92743 1.05261,-1.14253c0.47606,-0.21511 1.1443,-0.32266 2.00472,-0.32266zM366.33046,343.39751c0,0 -0.03262,-0.06965 -0.09786,-0.20894c-0.06524,-0.13929 -0.29533,-0.20894 -0.69028,-0.20894c-0.39495,0 -0.65766,0.13929 -0.78814,0.41787c-0.13047,0.27858 -0.19571,0.8375 -0.19571,1.67677c0,0.83927 0.06524,1.39819 0.19571,1.67677c0.13047,0.27858 0.39319,0.41787 0.78814,0.41787c0.39495,0 0.65766,-0.13929 0.78814,-0.41787c0.13047,-0.27858 0.19571,-0.8375 0.19571,-1.67677c0,-0.83927 -0.06524,-1.39819 -0.19571,-1.67677z" data-paper-data="{&quot;glyphName&quot;:&quot;O&quot;,&quot;glyphIndex&quot;:20,&quot;word&quot;:5}" id="element-id-2109"></path><path d="M378.52981,341.42453v4.2845c0,1.16369 -0.23274,1.9818 -0.69821,2.45433c-0.46548,0.47253 -1.26948,0.70879 -2.41201,0.70879c-1.23422,0 -2.1017,-0.23626 -2.60244,-0.70879c-0.50074,-0.47253 -0.75111,-1.29064 -0.75111,-2.45433v-4.2845h2.29564v4.2845c0,0.58537 0.06347,0.97503 0.19042,1.16898c0.12695,0.19395 0.37732,0.29092 0.75111,0.29092c0.36674,0 0.61358,-0.09697 0.74053,-0.29092c0.12695,-0.19395 0.19042,-0.58361 0.19042,-1.16898v-4.2845z" data-paper-data="{&quot;glyphName&quot;:&quot;U&quot;,&quot;glyphIndex&quot;:21,&quot;lastGlyphOfWord&quot;:true,&quot;word&quot;:5}" id="element-id-27199"></path><path d="M103.22462,328.54933v-1.52511h343.55076v1.52511z" data-paper-data="{&quot;isContainerTopLineAboveSecondaryText&quot;:true}" id="element-id-58408"></path><path d="M103.22462,355v-1.52511h343.55076v1.52511z" data-paper-data="{&quot;isContainerBottomLineBelowSecondaryText&quot;:true}" id="element-id-66365"></path></g><g data-paper-data="{&quot;isPrimaryText&quot;:true}" fill-rule="nonzero" id="element-id-73647"><path d="M112.03715,330.634c10.14358,0 26.02449,-5.14064 26.02449,-14.04496c0,-0.64258 -0.0918,-1.33106 -0.27539,-2.01954c-2.89161,-11.24515 -25.4278,-15.19242 -25.4278,-21.06744c0.50488,-6.65529 18.08403,-15.05473 29.19149,-15.05473c3.53419,0 6.74709,0.87207 6.74709,3.44239c0,3.39649 -4.63576,9.36331 -7.34377,10.64847c-0.36719,0.18359 -0.50488,0.50488 -0.50488,0.82617c0,0.45899 0.36719,0.96387 0.91797,0.96387c0.1377,0 0.27539,0 0.41309,-0.0918c3.167,-1.56055 8.39944,-7.98635 8.39944,-12.43851c0,-3.62599 -3.71778,-5.23244 -8.53713,-5.23244c-8.58303,0 -21.02154,4.86525 -26.98836,10.09768c-2.66212,2.29493 -3.99318,4.31447 -4.17677,6.88478c0,3.71778 5.04884,6.2422 10.74026,9.17971c7.20607,3.67189 14.96293,8.03225 14.96293,13.81547c0,7.38967 -14.68754,12.20902 -24.14264,12.20902c-3.71778,-0.0459 -6.88478,-0.78028 -6.88478,-2.70802c0,-1.10157 0.91797,-2.66212 3.167,-4.68165c0.18359,-0.18359 0.27539,-0.45899 0.27539,-0.68848c0,-0.45899 -0.36719,-0.96387 -0.96387,-0.96387c-0.18359,0 -0.41309,0.0918 -0.59668,0.27539c-2.66212,2.43262 -3.80958,4.49806 -3.80958,6.10451c0,2.84571 3.39649,4.49806 8.81252,4.54396z" data-paper-data="{&quot;glyphName&quot;:&quot;S&quot;,&quot;glyphIndex&quot;:0,&quot;firstGlyphOfWord&quot;:true,&quot;word&quot;:1}" id="element-id-78457"></path><path d="M156.46696,315.80876c3.76368,0 15.33012,-5.73732 18.81841,-7.52736c0.36719,-0.18359 0.55078,-0.50488 0.55078,-0.78028c0,-0.55078 -0.41309,-1.00977 -0.91797,-1.00977c-0.1377,0 -0.27539,0.0459 -0.45899,0.1377c-2.29493,1.10157 -14.73344,7.29787 -17.90044,7.29787c-0.32129,0 -0.50488,0 -0.50488,-0.41309c0,-1.33106 2.75391,-5.69142 2.75391,-7.29787c-0.0459,-0.91797 -0.59668,-1.46875 -1.51465,-1.46875l-0.45899,0.0459c-3.44239,0.41309 -10.64847,7.84865 -13.31058,9.04202c0.64258,-2.11133 3.1211,-5.59962 3.90138,-6.83889c0.0918,-0.18359 0.1377,-0.32129 0.1377,-0.50488c0,-0.50488 -0.45899,-0.91797 -1.00977,-0.91797c-0.27539,0 -0.55078,0.1377 -0.73438,0.45899c-0.82617,1.28516 -3.71778,5.55373 -4.22267,7.66506l-0.0918,0.68848c0,0.91797 0.41309,1.33106 1.42286,1.42286c3.2129,0 10.41897,-8.39944 13.95316,-9.13381c-0.45899,1.51465 -2.75391,4.91115 -2.75391,7.11428c0,1.23926 0.64258,1.92774 2.34083,2.01954z" data-paper-data="{&quot;glyphName&quot;:&quot;n&quot;,&quot;glyphIndex&quot;:1,&quot;word&quot;:1}" id="element-id-50404"></path><path d="M173.40353,315.80876c2.24903,0 4.95704,-2.84571 6.19631,-5.04884c1.00977,0.18359 2.06544,0.27539 3.2588,0.27539c3.94728,0 8.85842,-1.00977 14.13676,-2.70802c0.41309,-0.1377 0.64258,-0.50488 0.64258,-0.87207c-0.0918,-0.55078 -0.32129,-0.96387 -0.91797,-0.96387l-0.32129,0.0459c-5.18654,1.69825 -9.82229,2.61622 -13.49418,2.61622c-0.91797,0 -1.74415,-0.0918 -2.52442,-0.18359c0.18359,-0.59668 0.27539,-1.14746 0.27539,-1.65235c0,-2.06544 -1.60645,-3.02931 -3.167,-3.02931c-1.37696,0 -2.75391,0.73438 -3.02931,2.15723c-1.74415,1.56055 -3.58009,4.54396 -3.67189,6.83889c0,1.51465 0.91797,2.43262 2.61622,2.52442zM178.54417,308.55679c-0.87207,-0.27539 -2.24903,-0.96387 -2.24903,-1.65235c0.0459,-0.45899 0.64258,-0.78028 1.28516,-0.78028c0.59668,0 1.19336,0.32129 1.19336,1.23926c0,0.32129 -0.0459,0.73438 -0.22949,1.19336zM173.40353,313.92692h-0.0918c-0.50488,0 -0.68848,-0.27539 -0.68848,-0.68848c0.0459,-1.56055 1.51465,-3.71778 2.38673,-4.72755c0.64258,0.78028 1.60645,1.37696 2.70802,1.74415c-0.96387,1.51465 -2.93751,3.62599 -4.31447,3.67189z" data-paper-data="{&quot;glyphName&quot;:&quot;o&quot;,&quot;glyphIndex&quot;:2,&quot;word&quot;:1}" id="element-id-61776"></path><path d="M195.20535,315.80876c2.24903,0 4.95704,-2.84571 6.19631,-5.04884c1.00977,0.18359 2.06544,0.27539 3.2588,0.27539c3.94728,0 8.85842,-1.00977 14.13676,-2.70802c0.41309,-0.1377 0.64258,-0.50488 0.64258,-0.87207c-0.0918,-0.55078 -0.32129,-0.96387 -0.91797,-0.96387l-0.32129,0.0459c-5.18654,1.69825 -9.82229,2.61622 -13.49418,2.61622c-0.91797,0 -1.74415,-0.0918 -2.52442,-0.18359c0.18359,-0.59668 0.27539,-1.14746 0.27539,-1.65235c0,-2.06544 -1.60645,-3.02931 -3.167,-3.02931c-1.37696,0 -2.75391,0.73438 -3.02931,2.15723c-1.74415,1.56055 -3.58009,4.54396 -3.67189,6.83889c0,1.51465 0.91797,2.43262 2.61622,2.52442zM200.34598,308.55679c-0.87207,-0.27539 -2.24903,-0.96387 -2.24903,-1.65235c0.0459,-0.45899 0.64258,-0.78028 1.28516,-0.78028c0.59668,0 1.19336,0.32129 1.19336,1.23926c0,0.32129 -0.0459,0.73438 -0.22949,1.19336zM195.20535,313.92692h-0.0918c-0.50488,0 -0.68848,-0.27539 -0.68848,-0.68848c0.0459,-1.56055 1.51465,-3.71778 2.38673,-4.72755c0.64258,0.78028 1.60645,1.37696 2.70802,1.74415c-0.96387,1.51465 -2.93751,3.62599 -4.31447,3.67189z" data-paper-data="{&quot;glyphName&quot;:&quot;o&quot;,&quot;glyphIndex&quot;:3,&quot;word&quot;:1}" id="element-id-96358"></path><path d="M215.7679,315.76286c1.51465,-0.18359 3.02931,-0.22949 4.45216,-0.22949c2.70802,0 5.27833,0.18359 7.84865,0.18359c1.19336,0 2.34083,-0.0459 3.48829,-0.1377c6.2422,-0.59668 13.12699,-4.45216 18.95611,-7.34377c0.36719,-0.18359 0.55078,-0.45899 0.55078,-0.78028c0,-0.45899 -0.36719,-1.00977 -0.91797,-1.00977c-0.1377,0 -0.32129,0.0459 -0.45899,0.1377c-5.73732,2.79981 -12.48441,6.60939 -18.31353,7.16018c-0.73438,0.0459 -1.51465,0.0918 -2.29493,0.0918c-2.66212,0 -5.46193,-0.27539 -8.16994,-0.27539h-1.14746c4.08497,-2.20313 13.99906,-7.38967 17.07427,-8.53713c0.41309,-0.1377 0.59668,-0.50488 0.59668,-0.87207c0,-0.45899 -0.32129,-0.91797 -0.91797,-0.96387c-1.19336,-0.0459 -5.23244,-0.27539 -8.85842,-0.27539c-2.84571,0 -5.41603,0.1377 -6.10451,0.64258c-0.27539,0.18359 -0.36719,0.45899 -0.36719,0.73438c0,0.50488 0.36719,0.96387 0.91797,0.96387c0.18359,0 0.36719,-0.0459 0.55078,-0.18359c0.32129,-0.22949 2.29493,-0.32129 4.40626,-0.32129c2.15723,0 4.45216,0.0918 5.46193,0.1377c-4.86525,2.34083 -13.86137,7.02248 -17.34966,9.13381c-0.27539,0.18359 -0.41309,0.50488 -0.41309,0.78028c0,0.50488 0.41309,0.96387 0.91797,0.96387z" data-paper-data="{&quot;glyphName&quot;:&quot;z&quot;,&quot;glyphIndex&quot;:4,&quot;word&quot;:1}" id="element-id-23509"></path><path d="M251.38519,315.80876c6.56349,0 16.52348,-4.40626 22.71979,-7.52736c0.36719,-0.18359 0.55078,-0.50488 0.55078,-0.78028c0,-0.50488 -0.45899,-1.00977 -0.96387,-1.00977c-0.1377,0 -0.27539,0 -0.41309,0.0918c-5.92091,2.98341 -15.65141,7.34377 -21.80182,7.34377c-2.06544,-0.0459 -2.75391,-0.45899 -2.75391,-1.51465c0,-0.78028 0.36719,-1.74415 0.91797,-2.66212c0.41309,0.22949 0.91797,0.32129 1.51465,0.32129c1.28516,0 2.93751,-0.50488 4.31447,-1.28516c2.01954,-1.14746 2.84571,-2.52442 2.84571,-3.62599c0,-1.23926 -1.05567,-2.15723 -2.66212,-2.15723c-1.23926,0 -2.75391,0.55078 -4.36036,1.88184c-2.15723,1.79004 -4.40626,5.00294 -4.40626,7.61916c0,2.01954 1.23926,3.2588 4.49806,3.3047zM251.1098,308.2355l-0.41309,-0.0459c1.69825,-2.15723 3.85548,-3.39649 4.95704,-3.39649c0.45899,0 0.73438,0.18359 0.73438,0.50488c0,0.41309 -0.55078,1.14746 -1.88184,1.88184c-0.78028,0.45899 -2.43262,1.05567 -3.39649,1.05567z" data-paper-data="{&quot;glyphName&quot;:&quot;e&quot;,&quot;glyphIndex&quot;:5,&quot;lastGlyphOfWord&quot;:true,&quot;word&quot;:1}" id="element-id-21572"></path><path d="M299.71638,332.83713c10.64847,0 25.79499,-8.16994 25.79499,-12.8975c0,-0.96387 -0.59668,-1.79004 -1.92774,-2.38673c-0.1377,-0.0459 -0.22949,-0.0459 -0.36719,-0.0459c-0.55078,0 -0.91797,0.50488 -0.91797,0.96387c0,0.32129 0.1377,0.64258 0.55078,0.82617c0.50488,0.18359 0.73438,0.50488 0.73438,0.82617c0,0.1377 -0.0459,0.22949 -0.0918,0.36719c-1.69825,4.03907 -15.69731,10.60257 -23.95905,10.60257c-3.53419,0 -6.05861,-1.33106 -6.05861,-3.94728c0,-6.4717 15.69731,-17.85454 19.50689,-20.47076c0.27539,-0.18359 0.41309,-0.45899 0.41309,-0.73438c0,-0.45899 -0.32129,-0.87207 -0.82617,-0.96387c-13.58598,-1.83594 -18.40532,-6.01271 -18.40532,-10.51077c0,-3.58009 2.98341,-7.25197 5.78322,-9.82229c7.61916,-7.11428 21.29693,-13.08109 32.40439,-13.08109c1.10157,0 2.20313,0.0459 3.2588,0.18359c2.75391,0.32129 3.80958,1.92774 3.80958,4.13087c0,5.78322 -7.71096,16.47758 -11.88773,16.47758h-0.18359c-0.68848,0 -0.87207,0.50488 -0.87207,1.00977c0,0.50488 0.36719,0.87207 1.05567,0.87207c5.23244,0 13.72367,-11.52054 13.72367,-18.40532c0,-3.02931 -1.46875,-5.46193 -5.41603,-5.92091c-1.14746,-0.1377 -2.29493,-0.18359 -3.48829,-0.18359c-11.61234,0 -25.74909,6.19631 -33.68955,13.54008c-3.2129,2.98341 -6.334,7.06838 -6.334,11.19925c0,4.86525 4.31447,9.77639 17.67095,12.02542c-4.45216,3.1211 -18.35943,13.49418 -18.35943,20.74615c0,3.58009 3.2129,5.59962 8.07815,5.59962z" data-paper-data="{&quot;glyphName&quot;:&quot;E&quot;,&quot;glyphIndex&quot;:6,&quot;firstGlyphOfWord&quot;:true,&quot;word&quot;:2}" id="element-id-10019"></path><path d="M342.03485,315.76286c3.3506,0 12.668,-5.55373 16.1104,-7.52736c0.32129,-0.18359 0.45899,-0.45899 0.45899,-0.73438c0,-0.50488 -0.36719,-1.00977 -0.91797,-1.00977c-0.18359,0 -0.32129,0.0459 -0.50488,0.1377c-2.84571,1.65235 -12.39261,7.25197 -15.14653,7.25197c-0.68848,0 -0.96387,-0.36719 -0.96387,-1.14746c0,-1.79004 1.69825,-5.00294 2.15723,-5.69142c0.1377,-0.18359 0.18359,-0.36719 0.18359,-0.55078c0,-0.55078 -0.45899,-0.96387 -0.96387,-0.96387c-0.18359,0 -0.36719,0.0918 -0.55078,0.18359c-0.78028,-0.78028 -2.29493,-1.28516 -3.48829,-1.28516c-4.40626,0 -8.81252,5.18654 -8.81252,8.39944c0,1.42286 0.96387,2.34083 2.43262,2.34083c2.52442,0 5.82912,-2.84571 7.43557,-4.31447c-0.1377,0.59668 -0.22949,1.19336 -0.22949,1.79004c0,1.74415 0.68848,3.0752 2.79981,3.1211zM332.16666,313.51383c-0.36719,0 -0.59668,-0.22949 -0.59668,-0.73438c0,-1.92774 3.0752,-6.2422 6.79299,-6.4258c0.82617,0 1.79004,0.27539 2.24903,0.73438c-0.78028,0.82617 -6.56349,6.4258 -8.44534,6.4258z" data-paper-data="{&quot;glyphName&quot;:&quot;a&quot;,&quot;glyphIndex&quot;:7,&quot;word&quot;:2}" id="element-id-96642"></path><path d="M343.5954,339.12523c0.32129,0 0.64258,-0.1377 0.82617,-0.55078c6.79299,-15.835 14.32035,-31.21102 21.48053,-44.10852c10.18948,0.0918 21.66412,0.18359 24.69343,0.32129c0.55078,0 0.82617,-0.41309 0.87207,-0.87207c0,-0.50488 -0.27539,-0.96387 -0.91797,-1.00977l-23.63776,-0.32129c1.88184,-3.2588 4.26857,-7.80276 5.41603,-9.501c0.1377,-0.22949 0.22949,-0.41309 0.22949,-0.64258c0,-0.36719 -0.41309,-0.73438 -0.91797,-0.73438c-0.27539,0 -0.55078,0.1377 -0.73438,0.45899c-1.23926,1.88184 -3.99318,6.65529 -6.10451,10.41897l-24.78522,-0.18359c-0.59668,0 -0.91797,0.45899 -0.91797,0.87207c0,0.50488 0.22949,1.00977 0.91797,1.00977c13.76957,0.0918 18.35943,2.79981 18.35943,7.38967c0,2.15723 -0.91797,4.72755 -2.29493,7.43557c-4.22267,8.44534 -8.90432,18.26763 -13.40238,28.7325l-0.0918,0.41309c0,0.55078 0.50488,0.87207 1.00977,0.87207zM360.25658,300.98353c-0.22949,-3.2129 -2.34083,-5.32423 -5.82912,-6.65529l9.31741,0.0918z" data-paper-data="{&quot;glyphName&quot;:&quot;t&quot;,&quot;glyphIndex&quot;:8,&quot;word&quot;:2}" id="element-id-35641"></path><path d="M369.2986,315.80876c6.56349,0 16.52348,-4.40626 22.71979,-7.52736c0.36719,-0.18359 0.55078,-0.50488 0.55078,-0.78028c0,-0.50488 -0.45899,-1.00977 -0.96387,-1.00977c-0.1377,0 -0.27539,0 -0.41309,0.0918c-5.92091,2.98341 -15.65141,7.34377 -21.80182,7.34377c-2.06544,-0.0459 -2.75391,-0.45899 -2.75391,-1.51465c0,-0.78028 0.36719,-1.74415 0.91797,-2.66212c0.41309,0.22949 0.91797,0.32129 1.51465,0.32129c1.28516,0 2.93751,-0.50488 4.31447,-1.28516c2.01954,-1.14746 2.84571,-2.52442 2.84571,-3.62599c0,-1.23926 -1.05567,-2.15723 -2.66212,-2.15723c-1.23926,0 -2.75391,0.55078 -4.36036,1.88184c-2.15723,1.79004 -4.40626,5.00294 -4.40626,7.61916c0,2.01954 1.23926,3.2588 4.49806,3.3047zM369.02321,308.2355l-0.41309,-0.0459c1.69825,-2.15723 3.85548,-3.39649 4.95704,-3.39649c0.45899,0 0.73438,0.18359 0.73438,0.50488c0,0.41309 -0.55078,1.14746 -1.88184,1.88184c-0.78028,0.45899 -2.43262,1.05567 -3.39649,1.05567z" data-paper-data="{&quot;glyphName&quot;:&quot;e&quot;,&quot;glyphIndex&quot;:9,&quot;word&quot;:2}" id="element-id-96451"></path><path d="M387.88752,315.85466c0.27539,0 0.50488,-0.1377 0.73438,-0.41309c2.11133,-3.2129 6.4258,-6.93068 9.91409,-9.17971c-0.0918,0.32129 -0.0918,0.59668 -0.0918,0.87207c0,2.47852 2.43262,3.76368 4.95704,3.94728l1.56055,0.0459c4.54396,0 9.91409,-1.19336 13.44828,-2.84571c0.41309,-0.18359 0.55078,-0.50488 0.55078,-0.82617c0,-0.45899 -0.41309,-0.96387 -0.91797,-0.96387c-0.1377,0 -0.27539,0.0459 -0.41309,0.0918c-3.3506,1.51465 -8.44534,2.66212 -12.7598,2.66212l-1.33106,-0.0459c-1.37696,-0.1377 -3.2129,-0.68848 -3.2129,-2.15723c0,-0.78028 0.41309,-1.74415 0.91797,-2.52442c0.0918,-0.18359 0.1377,-0.36719 0.1377,-0.50488c0,-0.50488 -0.36719,-0.96387 -0.91797,-0.96387c-0.1377,0 -0.32129,0 -0.45899,0.0918c-2.66212,1.46875 -5.59962,3.58009 -8.03225,5.82912c0.68848,-1.33106 1.37696,-2.52442 1.88184,-3.39649c0.0918,-0.18359 0.1377,-0.32129 0.1377,-0.50488c0,-0.45899 -0.45899,-0.91797 -0.96387,-0.91797c-0.27539,0 -0.55078,0.1377 -0.78028,0.45899c-1.37696,2.24903 -4.22267,7.71096 -5.27833,9.91409c-0.0918,0.1377 -0.0918,0.27539 -0.0918,0.41309c0,0.50488 0.50488,0.91797 1.00977,0.91797z" data-paper-data="{&quot;glyphName&quot;:&quot;r&quot;,&quot;glyphIndex&quot;:10,&quot;word&quot;:2}" id="element-id-80736"></path><path d="M408.86316,339.12523c4.58986,0 11.56644,-11.84183 17.16606,-22.4444c6.2422,-3.80958 13.08109,-6.2881 20.10357,-8.35354c0.45899,-0.1377 0.64258,-0.50488 0.64258,-0.87207c-0.0918,-0.59668 -0.27539,-1.00977 -0.91797,-1.00977l-0.27539,0.0459c-6.10451,1.83594 -12.20902,3.94728 -17.94634,7.11428c1.14746,-2.24903 3.39649,-6.70119 4.13087,-7.89455c0.0918,-0.18359 0.1377,-0.36719 0.1377,-0.50488c0,-0.50488 -0.45899,-0.91797 -0.96387,-0.91797c-0.22949,0 -0.50488,0.0918 -0.68848,0.36719c-1.46875,1.88184 -9.77639,9.17971 -12.7139,9.17971c-0.73438,-0.1377 -1.00977,-0.27539 -1.00977,-1.05567c0,-1.83594 2.84571,-5.69142 4.03907,-7.25197c0.0918,-0.18359 0.18359,-0.36719 0.18359,-0.59668c0,-0.50488 -0.41309,-0.91797 -0.91797,-0.91797c-0.32129,0 -0.59668,0.1377 -0.78028,0.36719c-1.19336,1.56055 -4.45216,5.69142 -4.45216,8.53713c0,1.28516 0.91797,2.75391 2.79981,2.75391c2.93751,0 7.71096,-3.76368 9.95999,-5.69142l-2.75391,5.37013c-5.82912,3.62599 -16.75298,13.21879 -18.22173,20.14947c-0.0459,0.32129 -0.0918,0.59668 -0.0918,0.87207c0,1.69825 1.10157,2.75391 2.57032,2.75391zM409.04676,337.33519c-0.50488,0 -0.87207,-0.27539 -0.87207,-0.96387l0.0459,-0.50488c1.14746,-5.37013 10.00589,-13.76957 14.50395,-17.02837c-5.09474,9.501 -10.64847,18.49712 -13.67777,18.49712z" data-paper-data="{&quot;glyphName&quot;:&quot;y&quot;,&quot;glyphIndex&quot;:11,&quot;lastGlyphOfWord&quot;:true,&quot;word&quot;:2}" id="element-id-479"></path></g><g data-paper-data="{&quot;fillRule&quot;:&quot;evenodd&quot;,&quot;fillRuleOriginal&quot;:&quot;evenodd&quot;,&quot;isIcon&quot;:true,&quot;iconStyle&quot;:&quot;standalone&quot;,&quot;selectedEffects&quot;:{&quot;container&quot;:&quot;&quot;,&quot;transformation&quot;:&quot;&quot;,&quot;pattern&quot;:&quot;&quot;},&quot;bounds&quot;:{&quot;x&quot;:190.3197354896076,&quot;y&quot;:115,&quot;width&quot;:169.36052902078475,&quot;height&quot;:136.220849713827},&quot;iconType&quot;:&quot;icon&quot;,&quot;rawIconId&quot;:&quot;21988&quot;,&quot;isDetailed&quot;:false,&quot;suitableAsStandaloneIcon&quot;:true}" fill-rule="evenodd" id="element-id-50714"><path d="M324.54131,128.77205l-105.35114,-10.22486c-0.54737,-0.05254 -0.95242,-0.54518 -0.89769,-1.09255l0.15108,-1.54796c0.05254,-0.55175 0.54299,-0.95461 1.09036,-0.90207l105.35114,10.22486c0.54956,0.05254 0.95461,0.54518 0.90207,1.09474l-0.15108,1.54796c-0.05474,0.54956 -0.54518,0.95242 -1.09474,0.89987zM283.33751,135.57257h-64.47576c-0.54956,0 -0.99841,-0.44884 -1.00059,-0.99841v-1.55672c0,-0.55394 0.45103,-1.00278 1.00059,-1.00278h69.04739c0.15108,0 0.29339,0.03941 0.42257,0.10072c0.08539,-0.01095 0.1664,-0.03941 0.25398,-0.04598h0.22552c0.01095,0 0.01095,-0.00219 0.0219,-0.00219h36.20083c0.55175,0 1.00278,0.44884 1.00278,1.00278v1.57205c0.00219,0.55394 -0.45323,1.00278 -1.00278,1.00278h-0.38535v0.01751c0,0 -1.10131,-0.00876 -1.19764,-0.00876c-1.53044,0.12699 -2.6843,1.36185 -2.6843,2.87916c0,1.02905 0.54737,1.96396 1.46476,2.50039c1.10131,0.6459 1.77785,1.82603 1.77785,3.10249c0,1.27646 -0.67655,2.45659 -1.77785,3.10249c-0.91739,0.53642 -1.46476,1.47133 -1.46476,2.50039c0,1.02905 0.54737,1.96396 1.46476,2.50039c1.10131,0.64371 1.77785,1.82384 1.77785,3.10031c0,1.27646 -0.67436,2.45659 -1.77567,3.10249c-0.90426,0.52985 -1.44505,1.44725 -1.46038,2.45659c0.01533,1.00935 0.55613,1.92455 1.45819,2.45441c1.10131,0.6459 1.77785,1.82603 1.77785,3.10249c0,1.27646 -0.67655,2.45659 -1.77785,3.10249c-0.91739,0.53642 -1.46476,1.47133 -1.46476,2.50039c0,1.02905 0.54737,1.96396 1.46476,2.50039c1.10131,0.64371 1.77785,1.82384 1.77785,3.10031c0,1.27646 -0.67436,2.45659 -1.77567,3.10249c-0.91958,0.53642 -1.46695,1.47133 -1.46695,2.50039c0,1.51293 1.15167,2.74561 2.67554,2.87698c-0.0116,-0.00131 0.08189,-0.007 0.18436,-0.01335c0.07247,-0.0046 0.14933,-0.0092 0.19662,-0.01291c0.01313,0 0.01533,-0.00438 0.03065,-0.00438h1.15823c0.55175,0 1.00278,0.44884 1.00278,1.00278v1.58956c0.00219,0.55394 -0.45323,1.00278 -1.00278,1.00278h-1.15167l-0.69187,0.01971c-3.3499,-0.26931 -5.9948,-3.04118 -5.9948,-6.46115c0,-2.39967 1.31149,-4.47091 3.24262,-5.60288c-1.93112,-1.13196 -3.24262,-3.20321 -3.24262,-5.60288c0,-2.37777 1.2896,-4.4315 3.19226,-5.57003c-1.44287,-0.85608 -2.5179,-2.23984 -2.9558,-3.90165c0,-0.00219 -0.00219,-0.00438 -0.00219,-0.00657c-0.06131,-0.22771 -0.10947,-0.4576 -0.14451,-0.69626c-0.03941,-0.23428 -0.05912,-0.47512 -0.07006,-0.71815c-0.00438,-0.07444 -0.0219,-0.14451 -0.0219,-0.21895c0,-0.01533 0.00438,-0.03065 0.00438,-0.04598c-0.00219,-0.01533 -0.00438,-0.02846 -0.00438,-0.04379h0.00657c0.03284,-2.36026 1.32901,-4.39428 3.23605,-5.51311c-1.93112,-1.13196 -3.24262,-3.20321 -3.24262,-5.60288c0,-2.39967 1.31149,-4.47091 3.24262,-5.60288c-1.93112,-1.13196 -3.24262,-3.20539 -3.24262,-5.60288c0,-1.04438 0.26931,-2.01651 0.70939,-2.88792h-1.87857v0.01751c0,0 -1.10131,-0.00876 -1.19764,-0.00876c-1.53264,0.12699 -2.6843,1.36185 -2.6843,2.87916c0,1.02905 0.54737,1.96396 1.46476,2.50039c1.10131,0.6459 1.77785,1.82603 1.77785,3.10249c0,1.27646 -0.67655,2.45659 -1.77785,3.10249c-0.91739,0.53642 -1.46476,1.47133 -1.46476,2.50039c0,1.02905 0.54737,1.96396 1.46476,2.50039c1.10131,0.64371 1.77785,1.82384 1.77785,3.10031c0,1.27646 -0.67436,2.45659 -1.77567,3.10249c-0.90426,0.52985 -1.44505,1.44725 -1.46038,2.45659c0.01533,1.00935 0.55613,1.92455 1.45819,2.45441c1.10131,0.6459 1.77785,1.82603 1.77785,3.10249c0,1.27646 -0.67655,2.45659 -1.77785,3.10249c-0.91739,0.53642 -1.46476,1.47133 -1.46476,2.50039c0,1.02905 0.54737,1.96396 1.46476,2.50039c1.10131,0.64371 1.77785,1.82384 1.77785,3.10031c0,1.27646 -0.67436,2.45659 -1.77567,3.10249c-0.91958,0.53642 -1.46695,1.47133 -1.46695,2.50039c0,1.51293 1.15167,2.74561 2.67554,2.87698c-0.0116,-0.00131 0.08189,-0.007 0.18436,-0.01335c0.07247,-0.0046 0.14933,-0.0092 0.19662,-0.01291c0.01313,0 0.01533,-0.00438 0.03065,-0.00438h1.15823c0.54956,0 1.00278,0.44884 1.00278,1.00278v1.58956c0.00219,0.55394 -0.45323,1.00278 -1.00278,1.00278h-1.15167l-0.69187,0.01971c-3.3499,-0.26931 -5.9948,-3.04118 -5.9948,-6.46115c0,-2.39967 1.31149,-4.47091 3.24262,-5.60288c-1.93112,-1.13196 -3.24262,-3.20321 -3.24262,-5.60288c0,-2.37777 1.2896,-4.4315 3.19226,-5.57003c-1.44287,-0.85608 -2.5179,-2.23984 -2.9558,-3.90165c0,-0.00219 -0.00219,-0.00438 -0.00219,-0.00657c-0.06131,-0.22771 -0.10947,-0.4576 -0.14451,-0.69626c-0.03941,-0.23428 -0.05912,-0.47512 -0.07006,-0.71815c-0.00219,-0.07444 -0.0219,-0.14451 -0.0219,-0.21895c0,-0.01533 0.00438,-0.03065 0.00438,-0.04598c-0.00219,-0.01533 -0.00438,-0.02846 -0.00438,-0.04379h0.01095c0.03284,-2.36026 1.32901,-4.39428 3.23605,-5.51311c-1.93112,-1.13196 -3.24262,-3.20321 -3.24262,-5.60288c0,-2.39967 1.31149,-4.47091 3.24262,-5.60288c-1.93112,-1.13196 -3.24262,-3.20539 -3.24262,-5.60288c0,-1.04657 0.26931,-2.01651 0.70939,-2.88792h-1.87857v0.01751c0,0 -1.10131,-0.00876 -1.19764,-0.00876c-1.53264,0.12699 -2.6843,1.36185 -2.6843,2.87916c0,1.02905 0.54737,1.96396 1.46476,2.50039c1.10131,0.6459 1.77785,1.82603 1.77785,3.10249c0,1.27646 -0.67874,2.45659 -1.77785,3.10249c-0.91739,0.53642 -1.46476,1.47133 -1.46476,2.50039c0,1.02905 0.54737,1.96396 1.46476,2.50039c1.10131,0.64371 1.77785,1.82384 1.77785,3.10031c0,1.27646 -0.67655,2.45659 -1.77567,3.10249c-0.90426,0.52985 -1.44505,1.44725 -1.46038,2.45659c0.01533,1.00935 0.55613,1.92455 1.45819,2.45441c1.10131,0.6459 1.77785,1.82603 1.77785,3.10249c0,1.27646 -0.67874,2.45659 -1.77785,3.10249c-0.91739,0.53642 -1.46476,1.47133 -1.46476,2.50039c0,1.02905 0.54737,1.96396 1.46476,2.50039c1.10131,0.64371 1.77785,1.82384 1.77785,3.10031c0,1.27646 -0.67655,2.45659 -1.77567,3.10249c-0.91958,0.53642 -1.46695,1.47133 -1.46695,2.50039c0,1.51293 1.15167,2.74561 2.67554,2.87698c-0.0116,-0.00131 0.08189,-0.007 0.18436,-0.01335c0.07247,-0.0046 0.14933,-0.0092 0.19662,-0.01291c0.01313,0 0.01533,-0.00438 0.03065,-0.00438h1.15823c0.54956,0 1.00278,0.44884 1.00278,1.00278v1.58956c0.00219,0.55394 -0.45103,1.00278 -1.00278,1.00278h-1.15167l-0.69187,0.01971c-3.3499,-0.26931 -5.9948,-3.04118 -5.9948,-6.46115c0,-2.39967 1.31149,-4.47091 3.24262,-5.60288c-1.93112,-1.13196 -3.24262,-3.20321 -3.24262,-5.60288c0,-2.37777 1.2896,-4.4315 3.19226,-5.57003c-1.44287,-0.85608 -2.5179,-2.23984 -2.9558,-3.90165c0,-0.00219 -0.00219,-0.00438 -0.00219,-0.00657c-0.06131,-0.22771 -0.10947,-0.4576 -0.14451,-0.69626c-0.03941,-0.23428 -0.05912,-0.47512 -0.07006,-0.71815c-0.00219,-0.07444 -0.0219,-0.14451 -0.0219,-0.21895c0,-0.01533 0.00438,-0.03065 0.00438,-0.04598c-0.00219,-0.01533 -0.00438,-0.02846 -0.00438,-0.04379h0.00657c0.03284,-2.36026 1.32901,-4.39428 3.23605,-5.51311c-1.93112,-1.13196 -3.24262,-3.20321 -3.24262,-5.60288c0,-2.39967 1.31149,-4.47091 3.24262,-5.60288c-1.93112,-1.13196 -3.24262,-3.20539 -3.24262,-5.60288c0,-1.04657 0.26931,-2.01651 0.70939,-2.88792h-1.87857v0.01751c0,0 -1.10131,-0.00876 -1.19764,-0.00876c-1.53044,0.12699 -2.6843,1.36185 -2.6843,2.87916c0,1.02905 0.54737,1.96396 1.46476,2.50039c1.10131,0.6459 1.77785,1.82603 1.77785,3.10249c0,1.27646 -0.67655,2.45659 -1.77785,3.10249c-0.91739,0.53642 -1.46476,1.47133 -1.46476,2.50039c0,1.02905 0.54737,1.96396 1.46476,2.50039c1.10131,0.64371 1.77785,1.82384 1.77785,3.10031c0,1.27646 -0.67436,2.45659 -1.77567,3.10249c-0.90426,0.52985 -1.44505,1.44725 -1.46038,2.45659c0.01533,1.00935 0.55613,1.92455 1.45819,2.45441c1.10131,0.6459 1.77785,1.82603 1.77785,3.10249c0,1.27646 -0.67655,2.45659 -1.77785,3.10249c-0.91739,0.53642 -1.46476,1.47133 -1.46476,2.50039c0,1.02905 0.54737,1.96396 1.46476,2.50039c1.10131,0.64371 1.77785,1.82384 1.77785,3.10031c0,1.27646 -0.67436,2.45659 -1.77567,3.10249c-0.91958,0.53642 -1.46695,1.47133 -1.46695,2.50039c0,1.51293 1.14948,2.74561 2.67554,2.87698c-0.0116,-0.00131 0.08189,-0.007 0.18436,-0.01335c0.07247,-0.0046 0.14933,-0.0092 0.19662,-0.01291c0.01313,0 0.01533,-0.00438 0.03065,-0.00438h1.15823c0.54956,0 1.00278,0.44884 1.00278,1.00278v1.58956c0.00219,0.55394 -0.45323,1.00278 -1.00278,1.00278h-1.15167l-0.69187,0.01971c-3.35209,-0.26931 -5.9948,-3.04118 -5.9948,-6.46115c0,-2.39967 1.30931,-4.47091 3.24043,-5.60288c-1.92893,-1.13196 -3.24043,-3.20321 -3.24043,-5.60288c0,-2.37777 1.2896,-4.4315 3.19226,-5.57003c-1.44505,-0.85608 -2.5179,-2.23984 -2.9558,-3.90165c0,-0.00219 -0.00219,-0.00438 -0.00219,-0.00657c-0.06131,-0.22771 -0.10947,-0.4576 -0.14451,-0.69626c-0.03941,-0.23428 -0.05912,-0.47512 -0.07006,-0.71815c-0.00219,-0.07444 -0.0219,-0.14451 -0.0219,-0.21895c0,-0.01533 0.00438,-0.03065 0.00438,-0.04598c-0.00219,-0.01533 -0.00438,-0.02846 -0.00438,-0.04379h0.00657c0.03503,-2.36026 1.3312,-4.39428 3.23605,-5.51311c-1.92893,-1.13196 -3.24043,-3.20321 -3.24043,-5.60288c0,-2.39967 1.30931,-4.47091 3.24043,-5.60288c-1.92893,-1.13196 -3.24043,-3.20539 -3.24043,-5.60288c0,-1.04657 0.27149,-2.01651 0.71158,-2.88792h-1.88077v0.01751c0,0 -1.10131,-0.00876 -1.19764,-0.00876c-1.53044,0.12699 -2.6843,1.36185 -2.6843,2.87916c0,1.02905 0.54737,1.96396 1.46476,2.50039c1.10131,0.6459 1.77785,1.82603 1.77785,3.10249c0,1.27646 -0.67655,2.45659 -1.77785,3.10249c-0.91739,0.53642 -1.46476,1.47133 -1.46476,2.50039c0,1.02905 0.54737,1.96396 1.46476,2.50039c1.10131,0.64371 1.77785,1.82384 1.77785,3.10031c0,1.27646 -0.67436,2.45659 -1.77567,3.10249c-0.90644,0.52985 -1.44505,1.44725 -1.46038,2.45659c0.01533,1.00935 0.55394,1.92455 1.45819,2.45441c1.10131,0.6459 1.77785,1.82603 1.77785,3.10249c0,1.27646 -0.67655,2.45659 -1.77785,3.10249c-0.91739,0.53642 -1.46476,1.47133 -1.46476,2.50039c0,1.02905 0.54737,1.96396 1.46476,2.50039c1.10131,0.64371 1.77785,1.82384 1.77785,3.10031c0,1.27646 -0.67436,2.45659 -1.77567,3.10249c-0.91958,0.53642 -1.46695,1.47133 -1.46695,2.50039c0,1.51293 1.14948,2.74561 2.67554,2.87698c-0.0116,-0.00131 0.08189,-0.007 0.18414,-0.01335c0.07269,-0.0046 0.14955,-0.0092 0.19683,-0.01291c0.01313,0 0.01533,-0.00438 0.03065,-0.00438h1.15823c0.55175,0 1.00278,0.44884 1.00278,1.00278v1.58956c0.00219,0.55394 -0.45323,1.00278 -1.00278,1.00278h-1.15385l-0.69187,0.01971c-3.3499,-0.26931 -5.9948,-3.04118 -5.9948,-6.46115c0,-2.39967 1.31149,-4.47091 3.24262,-5.60288c-1.93112,-1.13196 -3.24262,-3.20321 -3.24262,-5.60288c0,-2.37777 1.2896,-4.4315 3.19226,-5.57003c-1.44287,-0.85608 -2.5179,-2.23984 -2.9558,-3.90165c0,-0.00219 -0.00219,-0.00438 -0.00219,-0.00657c-0.06131,-0.22771 -0.10947,-0.4576 -0.14451,-0.69626c-0.03941,-0.23428 -0.05912,-0.47512 -0.07006,-0.71815c-0.00219,-0.07444 -0.0219,-0.14451 -0.0219,-0.21895c0,-0.01533 0.00438,-0.03065 0.00438,-0.04598c-0.00219,-0.01533 -0.00438,-0.02846 -0.00438,-0.04379h0.00657c0.03284,-2.36026 1.32901,-4.39428 3.23605,-5.51311c-1.93112,-1.13196 -3.24262,-3.20321 -3.24262,-5.60288c0,-2.39967 1.31149,-4.47091 3.24262,-5.60288c-1.93112,-1.13196 -3.24262,-3.20539 -3.24262,-5.60288c0,-1.07503 0.28464,-2.07125 0.74661,-2.96018zM273.24402,193.83021h85.43564c0.54956,0 1.00278,0.44884 1.00059,1.00497v4.5147c0,0.55394 -0.45323,1.00278 -1.00278,1.00278h-5.0161c-0.84076,0.38972 -2.02526,1.07723 -3.40026,2.33618c-2.91639,2.67773 -6.70637,7.92153 -9.198,18.36097c-2.66678,11.14226 -6.02106,18.5602 -10.73939,23.39677c-4.67016,4.80809 -10.64743,6.55749 -17.02538,6.55749h-20.60956c-0.84952,0.14231 -1.65744,0.21676 -2.39967,0.21676h-62.02573c-5.25256,0.01095 -13.65796,-3.28203 -19.32433,-13.80904c-3.08716,-5.88313 -9.20019,-7.90621 -12.18226,-8.52801h-5.4321c-0.55394,0 -1.00497,-0.44884 -1.00497,-1.00278v-4.5147c0,-0.55175 0.45103,-1.00059 1.00497,-1.00059h15.25629c1.167,-3.09592 3.06527,-5.65104 5.6598,-7.40044c2.90106,-1.97491 6.42393,-2.92295 10.43506,-3.1638c0.68749,-4.51033 2.43251,-8.22149 5.40801,-10.82478c3.56228,-3.11344 8.38789,-4.31108 13.99296,-4.3067h0.3941c1.06408,0 2.09095,0.0416 3.08716,0.13136c3.32362,-2.10408 7.4508,-2.93828 12.15379,-2.93828h0.3963c4.16439,0 7.84271,0.64808 10.96272,2.25736c2.54418,1.29836 4.63075,3.29516 6.08018,5.80431c3.97828,0.19705 7.48145,1.07503 10.39565,2.9339c2.61424,1.65525 4.58257,4.11184 5.82182,7.10924c1.26114,-0.15546 2.58139,-0.23208 3.96295,-0.23208h0.3963c4.76431,0.00219 8.92212,0.84952 12.28735,3.02148c2.73685,1.74939 4.74022,4.39209 5.951,7.60624h13.23978c0.55175,0 1.00278,0.45103 1.00278,1.00059v4.5147c0,0.55394 -0.45323,1.00278 -1.00278,1.00278h-5.42772c-0.9568,0.19487 -2.23326,0.53205 -3.62577,1.09912c-3.00616,1.22392 -6.40203,3.40464 -8.56742,7.4289c-1.68371,3.12439 -3.60826,5.59849 -5.61821,7.55151h9.09509c5.5766,-0.0416 9.45417,-1.23924 12.94858,-4.7446c3.50536,-3.53601 6.65601,-9.93585 9.17611,-20.56577c2.23546,-9.39724 5.61382,-15.44677 8.9484,-19.29807h-58.58825c-0.49701,-0.18172 -1.02249,-0.33499 -1.5611,-0.47512c-0.20143,-0.05254 -0.41382,-0.09634 -0.62182,-0.14231c-0.35688,-0.07882 -0.72034,-0.15326 -1.09474,-0.21676c-0.23646,-0.0416 -0.47731,-0.07882 -0.72253,-0.11166c-0.3963,-0.05254 -0.80572,-0.09634 -1.22173,-0.13356c-0.21895,-0.01971 -0.43352,-0.0416 -0.65903,-0.05693c-0.64808,-0.0416 -1.31369,-0.06787 -2.00556,-0.06787h-0.07882c-0.24523,-0.57364 -0.5189,-1.11007 -0.82324,-1.61364c-0.0416,-0.07006 -0.09195,-0.12699 -0.13575,-0.19267c-0.26931,-0.42913 -0.55175,-0.84513 -0.86265,-1.22392c-0.05693,-0.07006 -0.1248,-0.12699 -0.18172,-0.19487c-0.3131,-0.36346 -0.63495,-0.71377 -0.98746,-1.03344c-0.06569,-0.05912 -0.14231,-0.10728 -0.208,-0.1664c-0.36346,-0.31528 -0.73567,-0.61962 -1.13853,-0.89331zM224.83684,217.77216c-4.19942,-0.00219 -7.19462,0.80135 -9.18924,2.17196c-0.92615,0.64371 -1.70341,1.42535 -2.34712,2.41718h93.97242c-0.68749,-1.05533 -1.52607,-1.86762 -2.53761,-2.5398c-1.99023,-1.29398 -4.93727,-2.05154 -9.00532,-2.04716h-0.3963c-2.03621,0 -3.79875,0.19487 -5.31386,0.55613c-1.6027,0.38097 -3.21634,-0.59335 -3.62359,-2.18948c-0.81887,-3.10687 -2.13474,-4.911 -4.10746,-6.2006c-1.97929,-1.28085 -4.911,-2.02746 -8.93964,-2.02308h-0.08101c-1.21297,0 -2.30114,-0.72034 -2.77626,-1.83478c-0.96994,-2.21137 -2.25736,-3.57761 -4.19504,-4.60228c-1.9355,-1.00935 -4.64608,-1.58737 -8.18646,-1.583h-0.3963c-4.4534,0 -7.53619,0.89769 -9.54175,2.43032c-0.63495,0.47949 -1.43192,0.69187 -2.22232,0.58678c-1.05533,-0.14013 -2.21356,-0.21238 -3.4747,-0.21238h-0.3941c-4.81685,0.00438 -8.00693,1.03782 -10.01248,2.8091c-2.00337,1.76253 -3.34114,4.58696 -3.65424,9.43008c-0.09853,1.59175 -1.41878,2.83537 -3.01272,2.83537c-0.11823,0 -0.19267,-0.00438 -0.21895,-0.00438zM259.66268,200.89128c0.24303,-0.24303 0.64152,-0.24084 0.88236,0.00219l5.951,5.951c0.24303,0.24303 0.24303,0.63933 0.00219,0.88236l-1.99462,1.99243c-0.24523,0.24303 -0.64152,0.24303 -0.88455,-0.00219l-5.951,-5.94881c-0.24084,-0.24303 -0.24303,-0.64152 0,-0.88455zM243.10584,207.03277h8.41416c0.34594,0 0.62838,0.27806 0.62838,0.624v2.81567c0,0.34594 -0.28244,0.62619 -0.62838,0.62619h-8.41416c-0.34156,0 -0.624,-0.28025 -0.624,-0.624v-2.81785c0,-0.34375 0.28244,-0.624 0.624,-0.624zM235.27408,207.93045h2.81785c0.34594,0 0.62619,0.28244 0.62619,0.62838v8.41416c0,0.34375 -0.28025,0.624 -0.624,0.624h-2.81785c-0.34375,0 -0.624,-0.28025 -0.624,-0.624v-8.41416c-0.00219,-0.34594 0.28025,-0.62838 0.62182,-0.62838zM258.34899,209.36894c0.24303,-0.24303 0.63933,-0.24523 0.88236,-0.00219l1.99243,1.99243c0.24303,0.24303 0.24303,0.64152 -0.00219,0.88455l-5.94881,5.94881c-0.24303,0.24303 -0.63933,0.24523 -0.88455,0l-1.99023,-1.99243c-0.24523,-0.24303 -0.24084,-0.63933 0,-0.88236zM272.44267,214.02377h8.41416c0.34375,0 0.624,0.27806 0.624,0.624v2.81785c0,0.34375 -0.28025,0.624 -0.624,0.624h-8.41416c-0.34594,0 -0.62838,-0.28025 -0.62838,-0.62619v-2.81785c0,-0.34156 0.28244,-0.62182 0.62838,-0.62182zM228.26337,245.17786h61.99945c2.89668,-0.01313 9.30529,-1.90703 14.00171,-10.6343c1.27866,-2.31209 2.81348,-4.1622 4.44464,-5.66418h-98.88342c-0.00219,0.00219 -0.00657,0.00438 -0.01095,0.00657c1.62897,1.50198 3.1638,3.3499 4.44026,5.6598c4.703,8.72507 11.10942,10.62116 14.00828,10.63211z" data-paper-data="{&quot;isPathIcon&quot;:true}" id="element-id-79985"></path></g></g></g><rect data-element-id="element-id-73647" stroke-width="2" fill="transparent" class="invisible-element-box grouping-element" x="103" y="270" width="344" height="69" data-element-name="isPrimaryText"></rect><rect data-element-id="element-id-50714" stroke-width="2" fill="transparent" class="invisible-element-box grouping-element" x="190" y="115" width="169" height="136" data-element-name="isIcon"></rect><rect data-element-id="element-id-79985" stroke-width="2" fill="transparent" class="invisible-element-box individual-element" x="190" y="115" width="169" height="136"></rect><rect data-element-id="element-id-54750" stroke-width="2" fill="transparent" class="invisible-element-box grouping-element" x="103" y="327" width="344" height="28" data-element-name="isSecondaryText"></rect><rect data-element-id="element-id-10019" stroke-width="2" fill="transparent" class="invisible-element-box individual-element" x="292" y="270" width="50" height="63"></rect><rect data-element-id="element-id-35641" stroke-width="2" fill="transparent" class="invisible-element-box individual-element" x="339" y="282" width="52" height="57"></rect><rect data-element-id="element-id-78457" stroke-width="2" fill="transparent" class="invisible-element-box individual-element" x="103" y="277" width="47" height="54"></rect><rect data-element-id="element-id-479" stroke-width="2" fill="transparent" class="invisible-element-box individual-element" x="406" y="304" width="40" height="35"></rect><rect data-element-id="element-id-58408" stroke-width="2" fill="transparent" class="invisible-element-box individual-element" x="103" y="327" width="344" height="2"></rect><rect data-element-id="element-id-66365" stroke-width="2" fill="transparent" class="invisible-element-box individual-element" x="103" y="353" width="344" height="2"></rect><rect data-element-id="element-id-23509" stroke-width="2" fill="transparent" class="invisible-element-box individual-element" x="215" y="303" width="36" height="13"></rect><rect data-element-id="element-id-80736" stroke-width="2" fill="transparent" class="invisible-element-box individual-element" x="387" y="303" width="32" height="13"></rect><rect data-element-id="element-id-50404" stroke-width="2" fill="transparent" class="invisible-element-box individual-element" x="142" y="305" width="34" height="11"></rect><rect data-element-id="element-id-21572" stroke-width="2" fill="transparent" class="invisible-element-box individual-element" x="247" y="303" width="28" height="13"></rect><rect data-element-id="element-id-96451" stroke-width="2" fill="transparent" class="invisible-element-box individual-element" x="365" y="303" width="28" height="13"></rect><rect data-element-id="element-id-61776" stroke-width="2" fill="transparent" class="invisible-element-box individual-element" x="171" y="304" width="27" height="12"></rect><rect data-element-id="element-id-96358" stroke-width="2" fill="transparent" class="invisible-element-box individual-element" x="193" y="304" width="27" height="12"></rect><rect data-element-id="element-id-96642" stroke-width="2" fill="transparent" class="invisible-element-box individual-element" x="330" y="304" width="29" height="11"></rect><rect data-element-id="element-id-23530" stroke-width="2" fill="transparent" class="invisible-element-box individual-element" x="284" y="341" width="10" height="7"></rect><rect data-element-id="element-id-6743" stroke-width="2" fill="transparent" class="invisible-element-box individual-element" x="319" y="341" width="7" height="8"></rect><rect data-element-id="element-id-2109" stroke-width="2" fill="transparent" class="invisible-element-box individual-element" x="362" y="341" width="7" height="8"></rect><rect data-element-id="element-id-40599" stroke-width="2" fill="transparent" class="invisible-element-box individual-element" x="190" y="341" width="7" height="7"></rect><rect data-element-id="element-id-43502" stroke-width="2" fill="transparent" class="invisible-element-box individual-element" x="234" y="341" width="7" height="7"></rect><rect data-element-id="element-id-51074" stroke-width="2" fill="transparent" class="invisible-element-box individual-element" x="262" y="341" width="7" height="7"></rect><rect data-element-id="element-id-60851" stroke-width="2" fill="transparent" class="invisible-element-box individual-element" x="353" y="341" width="7" height="7"></rect><rect data-element-id="element-id-83408" stroke-width="2" fill="transparent" class="invisible-element-box individual-element" x="200" y="341" width="6" height="8"></rect><rect data-element-id="element-id-81750" stroke-width="2" fill="transparent" class="invisible-element-box individual-element" x="244" y="341" width="6" height="8"></rect><rect data-element-id="element-id-56064" stroke-width="2" fill="transparent" class="invisible-element-box individual-element" x="310" y="341" width="6" height="8"></rect><rect data-element-id="element-id-71789" stroke-width="2" fill="transparent" class="invisible-element-box individual-element" x="159" y="341" width="6" height="7"></rect><rect data-element-id="element-id-62788" stroke-width="2" fill="transparent" class="invisible-element-box individual-element" x="168" y="341" width="6" height="7"></rect><rect data-element-id="element-id-75755" stroke-width="2" fill="transparent" class="invisible-element-box individual-element" x="214" y="341" width="6" height="7"></rect><rect data-element-id="element-id-31522" stroke-width="2" fill="transparent" class="invisible-element-box individual-element" x="224" y="341" width="6" height="7"></rect><rect data-element-id="element-id-86281" stroke-width="2" fill="transparent" class="invisible-element-box individual-element" x="253" y="341" width="6" height="7"></rect><rect data-element-id="element-id-48876" stroke-width="2" fill="transparent" class="invisible-element-box individual-element" x="297" y="341" width="6" height="7"></rect><rect data-element-id="element-id-19611" stroke-width="2" fill="transparent" class="invisible-element-box individual-element" x="329" y="341" width="6" height="7"></rect><rect data-element-id="element-id-27199" stroke-width="2" fill="transparent" class="invisible-element-box individual-element" x="372" y="341" width="6" height="7"></rect><rect data-element-id="element-id-37987" stroke-width="2" fill="transparent" class="invisible-element-box individual-element" x="271" y="341" width="5" height="8"></rect><rect data-element-id="element-id-47899" stroke-width="2" fill="transparent" class="invisible-element-box individual-element" x="151" y="341" width="5" height="7"></rect><rect data-element-id="element-id-7759" stroke-width="2" fill="transparent" class="invisible-element-box individual-element" x="177" y="341" width="5" height="7"></rect><rect data-element-id="element-id-98533" stroke-width="2" fill="transparent" class="invisible-element-box individual-element" x="185" y="341" width="2" height="7"></rect></svg>